<?xml version="1.0" encoding="UTF-8"?>
<svg xmlns="http://www.w3.org/2000/svg" xmlns:xlink="http://www.w3.org/1999/xlink" width="288pt" height="288pt" viewBox="0 0 288 288" version="1.1">
<g id="surface139">
<rect x="0" y="0" width="288" height="288" style="fill:rgb(100%,100%,100%);fill-opacity:1;stroke:none;"/>
<path style="fill-rule:nonzero;fill:rgb(5.882353%,14.117647%,17.254902%);fill-opacity:1;stroke-width:0.75;stroke-linecap:round;stroke-linejoin:round;stroke:rgb(0%,0%,0%);stroke-opacity:1;stroke-miterlimit:10;" d="M 172.210938 225.320312 L 173.25 225.046875 L 174.289062 224.757812 L 175.324219 224.457031 L 176.355469 224.144531 L 177.382812 223.816406 L 178.410156 223.476562 L 179.433594 223.125 L 180.453125 222.757812 L 181.46875 222.378906 L 182.480469 221.988281 L 183.488281 221.582031 L 184.488281 221.164062 L 185.488281 220.730469 L 186.484375 220.289062 L 187.472656 219.832031 L 188.460938 219.359375 L 189.441406 218.878906 L 190.414062 218.382812 L 191.386719 217.875 L 192.351562 217.351562 L 193.308594 216.820312 L 194.261719 216.273438 L 195.210938 215.714844 L 196.148438 215.144531 L 197.085938 214.558594 L 198.011719 213.964844 L 198.933594 213.355469 L 199.851562 212.738281 L 200.757812 212.105469 L 201.660156 211.460938 L 202.550781 210.804688 L 203.4375 210.136719 L 204.316406 209.457031 L 205.1875 208.769531 L 206.050781 208.066406 L 206.90625 207.351562 L 207.753906 206.625 L 208.59375 205.890625 L 209.421875 205.140625 L 210.242188 204.382812 L 211.054688 203.613281 L 211.859375 202.832031 L 212.65625 202.042969 L 213.441406 201.238281 L 214.21875 200.425781 L 214.984375 199.605469 L 215.742188 198.769531 L 216.488281 197.925781 L 217.226562 197.074219 L 217.953125 196.207031 L 218.671875 195.335938 L 219.378906 194.453125 L 220.074219 193.558594 L 220.761719 192.65625 L 221.433594 191.742188 L 222.101562 190.820312 L 222.753906 189.890625 L 223.394531 188.953125 L 224.027344 188.003906 L 224.648438 187.046875 L 225.253906 186.082031 L 225.851562 185.105469 L 226.4375 184.125 L 227.011719 183.132812 L 227.570312 182.132812 L 228.121094 181.125 L 228.660156 180.113281 L 229.183594 179.089844 L 229.695312 178.058594 L 230.199219 177.023438 L 230.683594 175.980469 L 231.160156 174.925781 L 231.621094 173.867188 L 232.070312 172.804688 L 232.507812 171.734375 L 232.933594 170.65625 L 233.34375 169.570312 L 233.738281 168.480469 L 234.125 167.382812 L 234.492188 166.28125 L 234.851562 165.175781 L 235.195312 164.0625 L 235.523438 162.945312 L 235.839844 161.820312 L 236.140625 160.691406 L 236.429688 159.558594 L 236.707031 158.421875 L 236.964844 157.28125 L 237.210938 156.132812 L 237.445312 154.984375 L 237.664062 153.828125 L 237.867188 152.671875 L 238.054688 151.507812 L 238.230469 150.34375 L 238.390625 149.175781 L 238.535156 148.003906 L 238.667969 146.832031 L 238.785156 145.65625 L 238.847656 146.835938 L 238.894531 148.019531 L 238.925781 149.207031 L 238.941406 150.390625 L 238.941406 151.578125 L 238.929688 152.769531 L 238.902344 153.957031 L 238.859375 155.148438 L 238.800781 156.339844 L 238.730469 157.53125 L 238.640625 158.722656 L 238.539062 159.914062 L 238.421875 161.105469 L 238.289062 162.296875 L 238.140625 163.484375 L 237.976562 164.675781 L 237.800781 165.863281 L 237.605469 167.050781 L 237.398438 168.234375 L 237.175781 169.417969 L 236.9375 170.601562 L 236.6875 171.78125 L 236.417969 172.957031 L 236.136719 174.132812 L 235.835938 175.304688 L 235.523438 176.476562 L 235.195312 177.644531 L 234.855469 178.808594 L 234.496094 179.96875 L 234.125 181.125 L 233.738281 182.277344 L 233.335938 183.429688 L 232.917969 184.574219 L 232.488281 185.714844 L 232.042969 186.851562 L 231.582031 187.984375 L 231.105469 189.109375 L 230.617188 190.234375 L 230.113281 191.351562 L 229.59375 192.460938 L 229.0625 193.566406 L 228.515625 194.667969 L 227.953125 195.761719 L 227.378906 196.851562 L 226.789062 197.933594 L 226.1875 199.007812 L 225.570312 200.078125 L 224.9375 201.140625 L 224.292969 202.195312 L 223.632812 203.242188 L 222.960938 204.28125 L 222.273438 205.316406 L 221.574219 206.339844 L 220.863281 207.355469 L 220.136719 208.367188 L 219.394531 209.367188 L 218.644531 210.359375 L 217.878906 211.34375 L 217.097656 212.316406 L 216.308594 213.285156 L 215.503906 214.238281 L 214.6875 215.1875 L 213.859375 216.125 L 213.015625 217.054688 L 212.164062 217.972656 L 211.296875 218.882812 L 210.417969 219.78125 L 209.527344 220.667969 L 208.625 221.546875 L 207.710938 222.414062 L 206.785156 223.269531 L 205.851562 224.113281 L 204.902344 224.949219 L 203.941406 225.773438 L 202.972656 226.585938 L 201.992188 227.386719 L 201 228.175781 L 199.996094 228.953125 L 198.984375 229.714844 L 197.957031 230.46875 L 196.925781 231.210938 L 195.882812 231.9375 L 194.828125 232.65625 L 193.761719 233.359375 L 192.691406 234.050781 L 191.605469 234.726562 L 190.515625 235.390625 L 189.414062 236.042969 L 188.304688 236.679688 L 187.183594 237.304688 L 186.054688 237.917969 L 184.917969 238.515625 L 183.773438 239.097656 L 182.621094 239.667969 L 181.460938 240.226562 L 180.292969 240.765625 L 179.113281 241.296875 L 177.929688 241.808594 L 179.359375 245.929688 L 147.308594 238.742188 L 170.78125 221.195312 Z M 172.210938 225.320312 "/>
<path style="fill-rule:nonzero;fill:rgb(49.803922%,54.509804%,72.54902%);fill-opacity:1;stroke-width:0.75;stroke-linecap:round;stroke-linejoin:round;stroke:rgb(0%,0%,0%);stroke-opacity:1;stroke-miterlimit:10;" d="M 62.679688 172.210938 L 63.039062 173.21875 L 63.410156 174.226562 L 63.789062 175.226562 L 64.1875 176.222656 L 64.59375 177.210938 L 65.011719 178.195312 L 65.445312 179.175781 L 65.886719 180.152344 L 66.34375 181.121094 L 66.8125 182.085938 L 67.292969 183.042969 L 67.78125 183.992188 L 68.285156 184.9375 L 68.800781 185.878906 L 69.328125 186.808594 L 69.867188 187.734375 L 70.417969 188.65625 L 70.976562 189.566406 L 71.550781 190.472656 L 72.136719 191.371094 L 72.730469 192.261719 L 73.335938 193.144531 L 73.953125 194.019531 L 74.582031 194.886719 L 75.21875 195.746094 L 75.867188 196.597656 L 76.527344 197.441406 L 77.199219 198.277344 L 77.878906 199.105469 L 78.570312 199.921875 L 79.269531 200.734375 L 79.980469 201.535156 L 80.703125 202.324219 L 81.433594 203.109375 L 82.171875 203.882812 L 82.921875 204.648438 L 83.683594 205.402344 L 84.449219 206.148438 L 85.230469 206.882812 L 86.015625 207.609375 L 86.8125 208.328125 L 87.617188 209.035156 L 88.429688 209.730469 L 89.253906 210.417969 L 90.082031 211.09375 L 90.921875 211.757812 L 91.769531 212.414062 L 92.625 213.058594 L 93.488281 213.691406 L 94.359375 214.316406 L 95.238281 214.929688 L 96.125 215.527344 L 97.019531 216.121094 L 97.917969 216.699219 L 98.828125 217.265625 L 99.742188 217.824219 L 100.664062 218.367188 L 101.59375 218.902344 L 102.527344 219.421875 L 103.46875 219.933594 L 104.417969 220.429688 L 105.371094 220.917969 L 106.332031 221.394531 L 107.296875 221.855469 L 108.269531 222.304688 L 109.246094 222.746094 L 110.230469 223.171875 L 111.214844 223.585938 L 112.210938 223.988281 L 113.207031 224.375 L 114.210938 224.753906 L 115.21875 225.117188 L 116.226562 225.46875 L 117.246094 225.808594 L 118.265625 226.136719 L 119.289062 226.449219 L 120.316406 226.75 L 121.347656 227.039062 L 122.382812 227.3125 L 123.421875 227.578125 L 124.460938 227.824219 L 125.507812 228.0625 L 126.554688 228.285156 L 127.605469 228.496094 L 128.65625 228.695312 L 129.710938 228.878906 L 130.769531 229.050781 L 131.828125 229.207031 L 132.890625 229.351562 L 133.953125 229.484375 L 135.015625 229.601562 L 136.082031 229.707031 L 137.148438 229.800781 L 138.21875 229.878906 L 139.285156 229.945312 L 140.355469 229.996094 L 141.425781 230.035156 L 142.496094 230.058594 L 142.191406 247.511719 L 140.90625 247.480469 L 139.617188 247.433594 L 138.332031 247.371094 L 137.046875 247.292969 L 135.761719 247.199219 L 134.476562 247.089844 L 133.195312 246.960938 L 131.914062 246.820312 L 130.636719 246.660156 L 129.359375 246.488281 L 128.085938 246.296875 L 126.816406 246.089844 L 125.546875 245.871094 L 124.28125 245.632812 L 123.015625 245.378906 L 121.757812 245.109375 L 120.5 244.824219 L 119.246094 244.523438 L 118 244.207031 L 116.753906 243.878906 L 115.511719 243.53125 L 114.277344 243.167969 L 113.046875 242.792969 L 111.820312 242.398438 L 110.597656 241.992188 L 109.378906 241.566406 L 108.167969 241.128906 L 106.960938 240.675781 L 105.761719 240.207031 L 104.570312 239.722656 L 103.378906 239.226562 L 102.199219 238.714844 L 101.023438 238.1875 L 99.855469 237.644531 L 98.691406 237.085938 L 97.539062 236.515625 L 96.390625 235.929688 L 95.25 235.332031 L 94.117188 234.71875 L 92.992188 234.089844 L 91.875 233.449219 L 90.765625 232.792969 L 89.667969 232.125 L 88.574219 231.441406 L 87.492188 230.746094 L 86.414062 230.035156 L 85.347656 229.3125 L 84.292969 228.574219 L 83.246094 227.824219 L 82.207031 227.0625 L 81.179688 226.289062 L 80.160156 225.5 L 79.148438 224.699219 L 78.152344 223.886719 L 77.160156 223.058594 L 76.183594 222.222656 L 75.214844 221.371094 L 74.257812 220.511719 L 73.3125 219.636719 L 72.375 218.75 L 71.449219 217.855469 L 70.539062 216.945312 L 69.636719 216.027344 L 68.746094 215.09375 L 67.867188 214.152344 L 67 213.199219 L 66.144531 212.238281 L 65.300781 211.261719 L 64.46875 210.277344 L 63.652344 209.285156 L 62.84375 208.28125 L 62.050781 207.265625 L 61.269531 206.238281 L 60.503906 205.207031 L 59.75 204.164062 L 59.007812 203.109375 L 58.277344 202.046875 L 57.5625 200.976562 L 56.859375 199.894531 L 56.171875 198.808594 L 55.496094 197.710938 L 54.832031 196.605469 L 54.1875 195.492188 L 53.550781 194.371094 L 52.933594 193.242188 L 52.328125 192.105469 L 51.734375 190.960938 L 51.160156 189.808594 L 50.59375 188.648438 L 50.046875 187.484375 L 49.511719 186.3125 L 48.996094 185.132812 L 48.488281 183.945312 L 48 182.753906 L 47.527344 181.558594 L 47.066406 180.355469 L 46.621094 179.144531 L 46.191406 177.929688 L 42.070312 179.359375 L 49.257812 147.308594 L 66.804688 170.78125 Z M 62.679688 172.210938 "/>
<path style="fill-rule:nonzero;fill:rgb(3.137255%,96.862745%,40%);fill-opacity:1;stroke-width:0.75;stroke-linecap:round;stroke-linejoin:round;stroke:rgb(0%,0%,0%);stroke-opacity:1;stroke-miterlimit:10;" d="M 115.789062 62.679688 L 114.75 62.953125 L 113.710938 63.242188 L 112.675781 63.542969 L 111.644531 63.855469 L 110.617188 64.183594 L 109.589844 64.523438 L 108.566406 64.875 L 107.546875 65.242188 L 106.53125 65.621094 L 105.519531 66.011719 L 104.511719 66.417969 L 103.511719 66.835938 L 102.511719 67.269531 L 101.515625 67.710938 L 100.527344 68.167969 L 99.539062 68.640625 L 98.558594 69.121094 L 97.585938 69.617188 L 96.613281 70.125 L 95.648438 70.648438 L 94.691406 71.179688 L 93.738281 71.726562 L 92.789062 72.285156 L 91.851562 72.855469 L 90.914062 73.441406 L 89.988281 74.035156 L 89.066406 74.644531 L 88.148438 75.261719 L 87.242188 75.894531 L 86.339844 76.539062 L 85.449219 77.195312 L 84.5625 77.863281 L 83.683594 78.542969 L 82.8125 79.230469 L 81.949219 79.933594 L 81.09375 80.648438 L 80.246094 81.375 L 79.40625 82.109375 L 78.578125 82.859375 L 77.757812 83.617188 L 76.945312 84.386719 L 76.140625 85.167969 L 75.34375 85.957031 L 74.558594 86.761719 L 73.78125 87.574219 L 73.015625 88.394531 L 72.257812 89.230469 L 71.511719 90.074219 L 70.773438 90.925781 L 70.046875 91.792969 L 69.328125 92.664062 L 68.621094 93.546875 L 67.925781 94.441406 L 67.238281 95.34375 L 66.566406 96.257812 L 65.898438 97.179688 L 65.246094 98.109375 L 64.605469 99.046875 L 63.972656 99.996094 L 63.351562 100.953125 L 62.746094 101.917969 L 62.148438 102.894531 L 61.5625 103.875 L 60.988281 104.867188 L 60.429688 105.867188 L 59.878906 106.875 L 59.339844 107.886719 L 58.816406 108.910156 L 58.304688 109.941406 L 57.800781 110.976562 L 57.316406 112.019531 L 56.839844 113.074219 L 56.378906 114.132812 L 55.929688 115.195312 L 55.492188 116.265625 L 55.066406 117.34375 L 54.65625 118.429688 L 54.261719 119.519531 L 53.875 120.617188 L 53.507812 121.71875 L 53.148438 122.824219 L 52.804688 123.9375 L 52.476562 125.054688 L 52.160156 126.179688 L 51.859375 127.308594 L 51.570312 128.441406 L 51.292969 129.578125 L 51.035156 130.71875 L 50.789062 131.867188 L 50.554688 133.015625 L 50.335938 134.171875 L 50.132812 135.328125 L 49.945312 136.492188 L 49.769531 137.65625 L 49.609375 138.824219 L 49.464844 139.996094 L 49.332031 141.167969 L 49.214844 142.34375 L 49.152344 141.164062 L 49.105469 139.980469 L 49.074219 138.792969 L 49.058594 137.609375 L 49.058594 136.421875 L 49.070312 135.230469 L 49.097656 134.042969 L 49.140625 132.851562 L 49.199219 131.660156 L 49.269531 130.46875 L 49.359375 129.277344 L 49.460938 128.085938 L 49.578125 126.894531 L 49.710938 125.703125 L 49.859375 124.515625 L 50.023438 123.324219 L 50.199219 122.136719 L 50.394531 120.949219 L 50.601562 119.765625 L 50.824219 118.582031 L 51.0625 117.398438 L 51.3125 116.21875 L 51.582031 115.042969 L 51.863281 113.867188 L 52.164062 112.695312 L 52.476562 111.523438 L 52.804688 110.355469 L 53.144531 109.191406 L 53.503906 108.03125 L 53.875 106.875 L 54.261719 105.722656 L 54.664062 104.570312 L 55.082031 103.425781 L 55.511719 102.285156 L 55.957031 101.148438 L 56.417969 100.015625 L 56.894531 98.890625 L 57.382812 97.765625 L 57.886719 96.648438 L 58.40625 95.539062 L 58.9375 94.433594 L 59.484375 93.332031 L 60.046875 92.238281 L 60.621094 91.148438 L 61.210938 90.066406 L 61.8125 88.992188 L 62.429688 87.921875 L 63.0625 86.859375 L 63.707031 85.804688 L 64.367188 84.757812 L 65.039062 83.71875 L 65.726562 82.683594 L 66.425781 81.660156 L 67.136719 80.644531 L 67.863281 79.632812 L 68.605469 78.632812 L 69.355469 77.640625 L 70.121094 76.65625 L 70.902344 75.683594 L 71.691406 74.714844 L 72.496094 73.761719 L 73.3125 72.8125 L 74.140625 71.875 L 74.984375 70.945312 L 75.835938 70.027344 L 76.703125 69.117188 L 77.582031 68.21875 L 78.472656 67.332031 L 79.375 66.453125 L 80.289062 65.585938 L 81.214844 64.730469 L 82.148438 63.886719 L 83.097656 63.050781 L 84.058594 62.226562 L 85.027344 61.414062 L 86.007812 60.613281 L 87 59.824219 L 88.003906 59.046875 L 89.015625 58.285156 L 90.042969 57.53125 L 91.074219 56.789062 L 92.117188 56.0625 L 93.171875 55.34375 L 94.238281 54.640625 L 95.308594 53.949219 L 96.394531 53.273438 L 97.484375 52.609375 L 98.585938 51.957031 L 99.695312 51.320312 L 100.816406 50.695312 L 101.945312 50.082031 L 103.082031 49.484375 L 104.226562 48.902344 L 105.378906 48.332031 L 106.539062 47.773438 L 107.707031 47.234375 L 108.886719 46.703125 L 110.070312 46.191406 L 108.640625 42.070312 L 140.691406 49.257812 L 117.21875 66.804688 Z M 115.789062 62.679688 "/>
<path style="fill-rule:nonzero;fill:rgb(18.431373%,16.470588%,22.352941%);fill-opacity:1;stroke-width:0.75;stroke-linecap:round;stroke-linejoin:round;stroke:rgb(0%,0%,0%);stroke-opacity:1;stroke-miterlimit:10;" d="M 225.320312 115.789062 L 224.960938 114.78125 L 224.589844 113.773438 L 224.210938 112.773438 L 223.8125 111.777344 L 223.40625 110.789062 L 222.988281 109.804688 L 222.554688 108.824219 L 222.113281 107.847656 L 221.65625 106.878906 L 221.1875 105.914062 L 220.707031 104.957031 L 220.21875 104.007812 L 219.714844 103.0625 L 219.199219 102.121094 L 218.671875 101.191406 L 218.132812 100.265625 L 217.582031 99.34375 L 217.023438 98.433594 L 216.449219 97.527344 L 215.863281 96.628906 L 215.269531 95.738281 L 214.664062 94.855469 L 214.046875 93.980469 L 213.417969 93.113281 L 212.78125 92.253906 L 212.132812 91.402344 L 211.472656 90.558594 L 210.800781 89.722656 L 210.121094 88.894531 L 209.429688 88.078125 L 208.730469 87.265625 L 208.019531 86.464844 L 207.296875 85.675781 L 206.566406 84.890625 L 205.828125 84.117188 L 205.078125 83.351562 L 204.316406 82.597656 L 203.550781 81.851562 L 202.769531 81.117188 L 201.984375 80.390625 L 201.1875 79.671875 L 200.382812 78.964844 L 199.570312 78.269531 L 198.746094 77.582031 L 197.917969 76.90625 L 197.078125 76.242188 L 196.230469 75.585938 L 195.375 74.941406 L 194.511719 74.308594 L 193.640625 73.683594 L 192.761719 73.070312 L 191.875 72.472656 L 190.980469 71.878906 L 190.082031 71.300781 L 189.171875 70.734375 L 188.257812 70.175781 L 187.335938 69.632812 L 186.40625 69.097656 L 185.472656 68.578125 L 184.53125 68.066406 L 183.582031 67.570312 L 182.628906 67.082031 L 181.667969 66.605469 L 180.703125 66.144531 L 179.730469 65.695312 L 178.753906 65.253906 L 177.769531 64.828125 L 176.785156 64.414062 L 175.789062 64.011719 L 174.792969 63.625 L 173.789062 63.246094 L 172.78125 62.882812 L 171.773438 62.53125 L 170.753906 62.191406 L 169.734375 61.863281 L 168.710938 61.550781 L 167.683594 61.25 L 166.652344 60.960938 L 165.617188 60.6875 L 164.578125 60.421875 L 163.539062 60.175781 L 162.492188 59.9375 L 161.445312 59.714844 L 160.394531 59.503906 L 159.34375 59.304688 L 158.289062 59.121094 L 157.230469 58.949219 L 156.171875 58.792969 L 155.109375 58.648438 L 154.046875 58.515625 L 152.984375 58.398438 L 151.917969 58.292969 L 150.851562 58.199219 L 149.78125 58.121094 L 148.714844 58.054688 L 147.644531 58.003906 L 146.574219 57.964844 L 145.503906 57.941406 L 145.808594 40.488281 L 147.09375 40.519531 L 148.382812 40.566406 L 149.667969 40.628906 L 150.953125 40.707031 L 152.238281 40.800781 L 153.523438 40.910156 L 154.804688 41.039062 L 156.085938 41.179688 L 157.363281 41.339844 L 158.640625 41.511719 L 159.914062 41.703125 L 161.183594 41.910156 L 162.453125 42.128906 L 163.71875 42.367188 L 164.984375 42.621094 L 166.242188 42.890625 L 167.5 43.175781 L 168.753906 43.476562 L 170 43.792969 L 171.246094 44.121094 L 172.488281 44.46875 L 173.722656 44.832031 L 174.953125 45.207031 L 176.179688 45.601562 L 177.402344 46.007812 L 178.621094 46.433594 L 179.832031 46.871094 L 181.039062 47.324219 L 182.238281 47.792969 L 183.429688 48.277344 L 184.621094 48.773438 L 185.800781 49.285156 L 186.976562 49.8125 L 188.144531 50.355469 L 189.308594 50.914062 L 190.460938 51.484375 L 191.609375 52.070312 L 192.75 52.667969 L 193.882812 53.28125 L 195.007812 53.910156 L 196.125 54.550781 L 197.234375 55.207031 L 198.332031 55.875 L 199.425781 56.558594 L 200.507812 57.253906 L 201.585938 57.964844 L 202.652344 58.6875 L 203.707031 59.425781 L 204.753906 60.175781 L 205.792969 60.9375 L 206.820312 61.710938 L 207.839844 62.5 L 208.851562 63.300781 L 209.847656 64.113281 L 210.839844 64.941406 L 211.816406 65.777344 L 212.785156 66.628906 L 213.742188 67.488281 L 214.6875 68.363281 L 215.625 69.25 L 216.550781 70.144531 L 217.460938 71.054688 L 218.363281 71.972656 L 219.253906 72.90625 L 220.132812 73.847656 L 221 74.800781 L 221.855469 75.761719 L 222.699219 76.738281 L 223.53125 77.722656 L 224.347656 78.714844 L 225.15625 79.71875 L 225.949219 80.734375 L 226.730469 81.761719 L 227.496094 82.792969 L 228.25 83.835938 L 228.992188 84.890625 L 229.722656 85.953125 L 230.4375 87.023438 L 231.140625 88.105469 L 231.828125 89.191406 L 232.503906 90.289062 L 233.167969 91.394531 L 233.8125 92.507812 L 234.449219 93.628906 L 235.066406 94.757812 L 235.671875 95.894531 L 236.265625 97.039062 L 236.839844 98.191406 L 237.40625 99.351562 L 237.953125 100.515625 L 238.488281 101.6875 L 239.003906 102.867188 L 239.511719 104.054688 L 240 105.246094 L 240.472656 106.441406 L 240.933594 107.644531 L 241.378906 108.855469 L 241.808594 110.070312 L 245.929688 108.640625 L 238.742188 140.691406 L 221.195312 117.21875 Z M 225.320312 115.789062 "/>
</g>
</svg>
