<?xml version="1.0" encoding="UTF-8"?>
<svg xmlns="http://www.w3.org/2000/svg" xmlns:xlink="http://www.w3.org/1999/xlink" width="288pt" height="288pt" viewBox="0 0 288 288" version="1.1">
<g id="surface99">
<rect x="0" y="0" width="288" height="288" style="fill:rgb(100%,100%,100%);fill-opacity:1;stroke:none;"/>
<path style="fill:none;stroke-width:0.75;stroke-linecap:round;stroke-linejoin:round;stroke:rgb(0%,0%,0%);stroke-opacity:1;stroke-miterlimit:10;" d="M 214.800781 144 L 262.800781 144 L 262.789062 145.488281 L 262.761719 146.976562 L 262.714844 148.464844 L 262.652344 149.949219 L 262.566406 151.4375 L 262.464844 152.921875 L 262.34375 154.402344 L 262.203125 155.886719 L 262.046875 157.367188 L 261.867188 158.84375 L 261.675781 160.320312 L 261.460938 161.792969 L 261.226562 163.261719 L 260.976562 164.726562 L 260.707031 166.191406 L 260.421875 167.652344 L 260.117188 169.109375 L 259.792969 170.5625 L 259.449219 172.007812 L 259.089844 173.453125 L 258.714844 174.894531 L 258.316406 176.328125 L 257.902344 177.757812 L 257.472656 179.179688 L 257.023438 180.601562 L 256.554688 182.011719 L 256.070312 183.417969 L 255.566406 184.820312 L 255.046875 186.214844 L 254.507812 187.601562 L 253.953125 188.984375 L 253.382812 190.355469 L 252.792969 191.722656 L 252.1875 193.082031 L 251.5625 194.433594 L 250.921875 195.777344 L 250.265625 197.113281 L 249.59375 198.441406 L 248.902344 199.757812 L 248.195312 201.066406 L 247.472656 202.367188 L 246.734375 203.660156 L 245.976562 204.941406 L 245.207031 206.214844 L 244.417969 207.476562 L 243.617188 208.730469 L 242.796875 209.972656 L 241.964844 211.207031 L 241.113281 212.429688 L 240.25 213.640625 L 239.367188 214.839844 L 238.472656 216.027344 L 237.5625 217.207031 L 236.640625 218.371094 L 235.699219 219.527344 L 234.746094 220.671875 L 233.78125 221.800781 L 232.796875 222.917969 L 231.804688 224.027344 L 230.792969 225.121094 L 229.769531 226.199219 L 228.734375 227.269531 L 227.683594 228.324219 L 226.621094 229.363281 L 225.546875 230.394531 L 224.457031 231.40625 L 223.355469 232.410156 L 222.242188 233.394531 L 221.117188 234.367188 L 219.976562 235.328125 L 218.828125 236.273438 L 217.667969 237.203125 L 216.492188 238.117188 L 215.308594 239.019531 L 214.113281 239.90625 L 212.90625 240.773438 L 211.6875 241.628906 L 210.460938 242.472656 L 209.222656 243.296875 L 207.972656 244.105469 L 206.714844 244.898438 L 205.445312 245.675781 L 204.164062 246.4375 L 202.878906 247.183594 L 201.582031 247.914062 L 200.273438 248.625 L 198.960938 249.324219 L 197.636719 250.003906 L 196.304688 250.667969 L 194.964844 251.3125 L 193.617188 251.941406 L 192.257812 252.554688 L 190.894531 253.152344 L 189.523438 253.730469 L 188.144531 254.292969 L 186.761719 254.835938 L 185.371094 255.363281 L 183.972656 255.875 L 182.566406 256.367188 L 181.15625 256.839844 L 179.738281 257.296875 L 178.316406 257.734375 L 176.890625 258.15625 L 175.457031 258.558594 L 174.019531 258.945312 L 172.578125 259.3125 L 171.132812 259.660156 L 169.679688 259.992188 L 168.226562 260.304688 L 166.765625 260.597656 L 165.304688 260.875 L 163.839844 261.132812 L 162.371094 261.371094 L 160.898438 261.59375 L 159.421875 261.792969 L 157.945312 261.976562 L 156.46875 262.144531 L 154.988281 262.289062 L 153.503906 262.417969 L 152.019531 262.527344 L 150.535156 262.621094 L 149.046875 262.691406 L 147.5625 262.746094 L 146.074219 262.78125 L 146.019531 259.78125 L 145.996094 258.28125 L 145.941406 255.28125 L 145.917969 253.785156 L 145.835938 249.285156 L 145.8125 247.785156 L 145.757812 244.785156 L 145.734375 243.285156 L 145.679688 240.285156 L 145.65625 238.785156 L 145.574219 234.285156 L 145.550781 232.785156 L 145.496094 229.785156 L 145.472656 228.289062 L 145.417969 225.289062 L 145.394531 223.789062 L 145.3125 219.289062 L 145.289062 217.789062 L 145.234375 214.789062 L 146.121094 214.769531 L 147.007812 214.734375 L 147.894531 214.691406 L 148.78125 214.636719 L 149.664062 214.574219 L 150.546875 214.496094 L 151.429688 214.410156 L 152.3125 214.308594 L 153.191406 214.199219 L 154.070312 214.082031 L 154.949219 213.949219 L 155.824219 213.804688 L 156.695312 213.652344 L 157.566406 213.488281 L 158.4375 213.3125 L 159.304688 213.125 L 160.167969 212.929688 L 161.03125 212.722656 L 161.890625 212.503906 L 162.746094 212.273438 L 163.601562 212.03125 L 164.453125 211.78125 L 165.300781 211.519531 L 166.144531 211.25 L 166.984375 210.964844 L 167.820312 210.671875 L 168.65625 210.367188 L 169.484375 210.054688 L 170.308594 209.730469 L 171.128906 209.394531 L 171.949219 209.050781 L 172.761719 208.695312 L 173.570312 208.328125 L 174.371094 207.953125 L 175.171875 207.570312 L 175.964844 207.171875 L 176.753906 206.769531 L 177.539062 206.351562 L 178.316406 205.929688 L 179.089844 205.492188 L 179.855469 205.046875 L 180.617188 204.59375 L 181.375 204.132812 L 182.125 203.660156 L 182.871094 203.175781 L 183.605469 202.683594 L 184.339844 202.183594 L 185.066406 201.675781 L 185.785156 201.15625 L 186.496094 200.628906 L 187.203125 200.089844 L 187.902344 199.542969 L 188.59375 198.992188 L 189.28125 198.425781 L 189.957031 197.855469 L 190.628906 197.277344 L 191.292969 196.6875 L 191.949219 196.089844 L 192.597656 195.488281 L 193.238281 194.875 L 193.871094 194.253906 L 194.5 193.625 L 195.117188 192.988281 L 195.726562 192.34375 L 196.328125 191.691406 L 196.921875 191.03125 L 197.503906 190.367188 L 198.082031 189.691406 L 198.648438 189.011719 L 199.210938 188.324219 L 199.761719 187.628906 L 200.300781 186.925781 L 200.835938 186.21875 L 201.359375 185.503906 L 201.875 184.78125 L 202.382812 184.050781 L 202.878906 183.316406 L 203.367188 182.578125 L 203.84375 181.832031 L 204.316406 181.078125 L 204.773438 180.320312 L 205.226562 179.554688 L 205.664062 178.785156 L 206.097656 178.011719 L 206.515625 177.230469 L 206.929688 176.445312 L 207.332031 175.652344 L 207.722656 174.855469 L 208.101562 174.058594 L 208.476562 173.25 L 208.835938 172.441406 L 209.1875 171.628906 L 209.527344 170.808594 L 209.859375 169.984375 L 210.179688 169.160156 L 210.488281 168.328125 L 210.789062 167.492188 L 211.078125 166.652344 L 211.355469 165.8125 L 211.625 164.964844 L 211.882812 164.117188 L 212.128906 163.265625 L 212.363281 162.410156 L 212.589844 161.554688 L 212.804688 160.691406 L 213.007812 159.828125 L 213.199219 158.964844 L 213.382812 158.097656 L 213.554688 157.226562 L 213.714844 156.351562 L 213.863281 155.480469 L 214 154.601562 L 214.128906 153.726562 L 214.246094 152.847656 L 214.351562 151.964844 L 214.445312 151.082031 L 214.527344 150.199219 L 214.601562 149.316406 L 214.660156 148.433594 L 214.710938 147.546875 L 214.75 146.660156 L 214.777344 145.773438 L 214.792969 144.886719 L 214.800781 144 "/>
<path style=" stroke:none;fill-rule:nonzero;fill:rgb(80%,80%,80%);fill-opacity:1;" d="M 248.023438 152.476562 L 247.867188 153.019531 L 247.546875 154.292969 L 247.207031 155.558594 L 246.851562 156.816406 L 246.480469 158.066406 L 246.097656 159.308594 L 245.695312 160.546875 L 245.28125 161.777344 L 245 162.984375 L 244.703125 164.191406 L 244.390625 165.394531 L 244.066406 166.589844 L 243.726562 167.785156 L 243.371094 168.972656 L 243.003906 170.15625 L 242.621094 171.332031 L 242.222656 172.503906 L 241.8125 173.667969 L 241.390625 174.832031 L 240.953125 175.984375 L 240.5 177.132812 L 240.035156 178.277344 L 239.558594 179.410156 L 239.066406 180.542969 L 238.558594 181.664062 L 238.042969 182.78125 L 237.617188 183.757812 L 237.179688 184.734375 L 236.734375 185.703125 L 236.277344 186.671875 L 235.8125 187.628906 L 235.335938 188.585938 L 234.761719 189.691406 L 234.171875 190.785156 L 233.566406 191.875 L 232.949219 192.957031 L 232.320312 194.027344 L 231.671875 195.097656 L 231.011719 196.15625 L 230.339844 197.207031 L 229.652344 198.25 L 228.953125 199.285156 L 228.242188 200.3125 L 227.519531 201.328125 L 226.785156 202.332031 L 226.035156 203.332031 L 225.277344 204.320312 L 224.574219 205.210938 L 223.863281 206.097656 L 223.140625 206.976562 L 222.410156 207.84375 L 221.671875 208.707031 L 220.921875 209.558594 L 220.582031 209.929688 L 219.746094 210.820312 L 218.90625 211.699219 L 218.050781 212.570312 L 217.1875 213.429688 L 216.3125 214.277344 L 215.429688 215.113281 L 214.539062 215.9375 L 213.636719 216.753906 L 212.722656 217.554688 L 211.847656 218.359375 L 210.964844 219.15625 L 210.070312 219.941406 L 209.261719 220.652344 L 208.445312 221.359375 L 207.617188 222.058594 L 206.707031 222.890625 L 205.78125 223.714844 L 204.847656 224.527344 L 203.902344 225.332031 L 202.945312 226.121094 L 201.976562 226.902344 L 201 227.671875 L 200.015625 228.425781 L 199.015625 229.171875 L 198.011719 229.90625 L 196.992188 230.628906 L 195.96875 231.335938 L 194.933594 232.035156 L 193.820312 232.546875 L 192.703125 233.046875 L 191.578125 233.53125 L 190.453125 234.003906 L 189.320312 234.460938 L 188.183594 234.902344 L 187.046875 235.332031 L 185.902344 235.746094 L 184.753906 236.148438 L 183.601562 236.535156 L 182.449219 236.90625 L 181.289062 237.261719 L 180.128906 237.605469 L 178.964844 237.933594 L 177.820312 238.292969 L 176.667969 238.640625 L 175.515625 238.976562 L 174.359375 239.296875 L 173.199219 239.601562 L 172.035156 239.890625 L 170.871094 240.167969 L 169.703125 240.433594 L 168.53125 240.679688 L 167.359375 240.914062 L 166.183594 241.136719 L 165.007812 241.34375 L 164.324219 241.558594 L 163.644531 241.773438 L 162.570312 242.136719 L 161.605469 242.582031 L 160.636719 243.015625 L 159.65625 243.441406 L 158.671875 243.859375 L 157.679688 244.265625 L 156.679688 244.660156 L 155.65625 245.21875 L 154.621094 245.761719 L 154.277344 245.953125 L 154.144531 244.652344 L 154.011719 243.347656 L 153.882812 242.042969 L 153.75 240.738281 L 153.617188 239.4375 L 153.488281 238.132812 L 153.824219 238.113281 L 154.828125 238.035156 L 155.832031 237.941406 L 156.984375 237.722656 L 158.128906 237.492188 L 159.269531 237.246094 L 160.410156 236.988281 L 161.542969 236.714844 L 162.558594 236.371094 L 163.832031 235.894531 L 164.90625 235.542969 L 165.976562 235.183594 L 167.042969 234.808594 L 168.101562 234.421875 L 169.152344 234.023438 L 170.199219 233.609375 L 171.242188 233.1875 L 172.273438 232.753906 L 173.300781 232.304688 L 174.324219 231.84375 L 175.335938 231.375 L 176.34375 230.890625 L 177.398438 230.53125 L 178.449219 230.160156 L 179.496094 229.777344 L 180.539062 229.378906 L 181.578125 228.96875 L 182.613281 228.546875 L 183.640625 228.109375 L 184.664062 227.664062 L 185.683594 227.203125 L 186.699219 226.730469 L 187.707031 226.242188 L 188.707031 225.746094 L 189.707031 225.238281 L 190.699219 224.714844 L 191.730469 224.214844 L 192.753906 223.699219 L 193.773438 223.167969 L 194.789062 222.628906 L 195.800781 222.074219 L 196.800781 221.507812 L 197.800781 220.925781 L 198.789062 220.335938 L 199.773438 219.730469 L 200.753906 219.109375 L 201.722656 218.480469 L 202.6875 217.835938 L 203.644531 217.179688 L 204.429688 216.542969 L 205.210938 215.898438 L 205.984375 215.242188 L 206.835938 214.519531 L 207.675781 213.789062 L 208.507812 213.042969 L 209.390625 212.316406 L 210.265625 211.582031 L 211.132812 210.832031 L 211.988281 210.074219 L 212.839844 209.300781 L 213.679688 208.519531 L 214.507812 207.726562 L 215.332031 206.925781 L 216.144531 206.109375 L 216.46875 205.761719 L 217.183594 204.964844 L 217.886719 204.164062 L 218.585938 203.351562 L 219.273438 202.53125 L 219.953125 201.703125 L 220.625 200.867188 L 221.324219 199.925781 L 222.015625 198.972656 L 222.695312 198.015625 L 223.363281 197.046875 L 224.019531 196.074219 L 224.660156 195.089844 L 225.292969 194.097656 L 225.910156 193.101562 L 226.519531 192.09375 L 227.113281 191.078125 L 227.699219 190.066406 L 228.273438 189.046875 L 228.832031 188.015625 L 229.382812 186.980469 L 229.917969 185.941406 L 230.382812 185.050781 L 230.835938 184.152344 L 231.28125 183.253906 L 231.71875 182.347656 L 232.144531 181.4375 L 232.5625 180.519531 L 233 179.449219 L 233.425781 178.375 L 233.839844 177.292969 L 234.238281 176.207031 L 234.625 175.117188 L 234.996094 174.019531 L 235.359375 172.921875 L 235.703125 171.816406 L 236.035156 170.707031 L 236.355469 169.59375 L 236.664062 168.480469 L 236.957031 167.359375 L 237.234375 166.234375 L 237.5 165.109375 L 237.753906 163.980469 L 237.992188 162.847656 L 238.214844 161.710938 L 238.425781 160.574219 L 238.511719 159.378906 L 238.585938 158.183594 L 238.640625 156.992188 L 238.683594 155.796875 L 238.710938 154.605469 L 238.722656 153.414062 L 238.71875 152.226562 L 238.691406 151.71875 Z M 248.023438 152.476562 "/>
<path style="fill:none;stroke-width:0.75;stroke-linecap:round;stroke-linejoin:round;stroke:rgb(0%,0%,0%);stroke-opacity:1;stroke-miterlimit:10;" d="M 241.253906 151.816406 C 241.253906 153.617188 238.554688 153.617188 238.554688 151.816406 C 238.554688 150.015625 241.253906 150.015625 241.253906 151.816406 "/>
<path style="fill:none;stroke-width:0.75;stroke-linecap:round;stroke-linejoin:round;stroke:rgb(0%,0%,0%);stroke-opacity:1;stroke-miterlimit:10;" d="M 253.070312 153.355469 C 253.070312 155.15625 250.371094 155.15625 250.371094 153.355469 C 250.371094 151.554688 253.070312 151.554688 253.070312 153.355469 "/>
<path style="fill:none;stroke-width:0.75;stroke-linecap:round;stroke-linejoin:round;stroke:rgb(0%,0%,0%);stroke-opacity:1;stroke-miterlimit:10;" d="M 234.984375 159.730469 C 234.984375 161.53125 232.28125 161.53125 232.28125 159.730469 C 232.28125 157.929688 234.984375 157.929688 234.984375 159.730469 "/>
<path style="fill:none;stroke-width:0.75;stroke-linecap:round;stroke-linejoin:round;stroke:rgb(0%,0%,0%);stroke-opacity:1;stroke-miterlimit:10;" d="M 240.277344 183.144531 C 240.277344 184.945312 237.578125 184.945312 237.578125 183.144531 C 237.578125 181.34375 240.277344 181.34375 240.277344 183.144531 "/>
<path style="fill:none;stroke-width:0.75;stroke-linecap:round;stroke-linejoin:round;stroke:rgb(0%,0%,0%);stroke-opacity:1;stroke-miterlimit:10;" d="M 240.421875 190.410156 C 240.421875 192.207031 237.722656 192.207031 237.722656 190.410156 C 237.722656 188.609375 240.421875 188.609375 240.421875 190.410156 "/>
<path style="fill:none;stroke-width:0.75;stroke-linecap:round;stroke-linejoin:round;stroke:rgb(0%,0%,0%);stroke-opacity:1;stroke-miterlimit:10;" d="M 222.707031 187.820312 C 222.707031 189.621094 220.007812 189.621094 220.007812 187.820312 C 220.007812 186.019531 222.707031 186.019531 222.707031 187.820312 "/>
<path style="fill:none;stroke-width:0.75;stroke-linecap:round;stroke-linejoin:round;stroke:rgb(0%,0%,0%);stroke-opacity:1;stroke-miterlimit:10;" d="M 226.203125 204.007812 C 226.203125 205.804688 223.503906 205.804688 223.503906 204.007812 C 223.503906 202.207031 226.203125 202.207031 226.203125 204.007812 "/>
<path style="fill:none;stroke-width:0.75;stroke-linecap:round;stroke-linejoin:round;stroke:rgb(0%,0%,0%);stroke-opacity:1;stroke-miterlimit:10;" d="M 218.804688 206.601562 C 218.804688 208.402344 216.105469 208.402344 216.105469 206.601562 C 216.105469 204.800781 218.804688 204.800781 218.804688 206.601562 "/>
<path style="fill:none;stroke-width:0.75;stroke-linecap:round;stroke-linejoin:round;stroke:rgb(0%,0%,0%);stroke-opacity:1;stroke-miterlimit:10;" d="M 217.105469 205.773438 C 217.105469 207.574219 214.40625 207.574219 214.40625 205.773438 C 214.40625 203.972656 217.105469 203.972656 217.105469 205.773438 "/>
<path style="fill:none;stroke-width:0.75;stroke-linecap:round;stroke-linejoin:round;stroke:rgb(0%,0%,0%);stroke-opacity:1;stroke-miterlimit:10;" d="M 215.164062 218.722656 C 215.164062 220.523438 212.464844 220.523438 212.464844 218.722656 C 212.464844 216.921875 215.164062 216.921875 215.164062 218.722656 "/>
<path style="fill:none;stroke-width:0.75;stroke-linecap:round;stroke-linejoin:round;stroke:rgb(0%,0%,0%);stroke-opacity:1;stroke-miterlimit:10;" d="M 213.554688 222.394531 C 213.554688 224.191406 210.855469 224.191406 210.855469 222.394531 C 210.855469 220.59375 213.554688 220.59375 213.554688 222.394531 "/>
<path style="fill:none;stroke-width:0.75;stroke-linecap:round;stroke-linejoin:round;stroke:rgb(0%,0%,0%);stroke-opacity:1;stroke-miterlimit:10;" d="M 204.523438 216.605469 C 204.523438 218.402344 201.824219 218.402344 201.824219 216.605469 C 201.824219 214.804688 204.523438 214.804688 204.523438 216.605469 "/>
<path style="fill:none;stroke-width:0.75;stroke-linecap:round;stroke-linejoin:round;stroke:rgb(0%,0%,0%);stroke-opacity:1;stroke-miterlimit:10;" d="M 191.554688 223.863281 C 191.554688 225.664062 188.855469 225.664062 188.855469 223.863281 C 188.855469 222.0625 191.554688 222.0625 191.554688 223.863281 "/>
<path style="fill:none;stroke-width:0.75;stroke-linecap:round;stroke-linejoin:round;stroke:rgb(0%,0%,0%);stroke-opacity:1;stroke-miterlimit:10;" d="M 181.335938 240.667969 C 181.335938 242.46875 178.632812 242.46875 178.632812 240.667969 C 178.632812 238.871094 181.335938 238.871094 181.335938 240.667969 "/>
<path style="fill:none;stroke-width:0.75;stroke-linecap:round;stroke-linejoin:round;stroke:rgb(0%,0%,0%);stroke-opacity:1;stroke-miterlimit:10;" d="M 166.871094 243.730469 C 166.871094 245.53125 164.171875 245.53125 164.171875 243.730469 C 164.171875 241.929688 166.871094 241.929688 166.871094 243.730469 "/>
<path style="fill:none;stroke-width:0.75;stroke-linecap:round;stroke-linejoin:round;stroke:rgb(0%,0%,0%);stroke-opacity:1;stroke-miterlimit:10;" d="M 162.484375 229.285156 C 162.484375 231.082031 159.785156 231.082031 159.785156 229.285156 C 159.785156 227.484375 162.484375 227.484375 162.484375 229.285156 "/>
<path style="fill:none;stroke-width:0.75;stroke-linecap:round;stroke-linejoin:round;stroke:rgb(0%,0%,0%);stroke-opacity:1;stroke-miterlimit:10;" d="M 161.910156 231.523438 C 161.910156 233.324219 159.210938 233.324219 159.210938 231.523438 C 159.210938 229.722656 161.910156 229.722656 161.910156 231.523438 "/>
<path style="fill:none;stroke-width:0.75;stroke-linecap:round;stroke-linejoin:round;stroke:rgb(0%,0%,0%);stroke-opacity:1;stroke-miterlimit:10;" d="M 157.546875 240.832031 C 157.546875 242.632812 154.847656 242.632812 154.847656 240.832031 C 154.847656 239.03125 157.546875 239.03125 157.546875 240.832031 "/>
<path style="fill:none;stroke-width:0.75;stroke-linecap:round;stroke-linejoin:round;stroke:rgb(0%,0%,0%);stroke-opacity:1;stroke-miterlimit:10;" d="M 156.859375 254.261719 C 156.859375 256.0625 154.15625 256.0625 154.15625 254.261719 C 154.15625 252.460938 156.859375 252.460938 156.859375 254.261719 "/>
<path style="fill:none;stroke-width:0.75;stroke-linecap:round;stroke-linejoin:round;stroke:rgb(0%,0%,0%);stroke-opacity:1;stroke-miterlimit:10;" d="M 154.777344 237.519531 C 154.777344 239.320312 152.074219 239.320312 152.074219 237.519531 C 152.074219 235.71875 154.777344 235.71875 154.777344 237.519531 "/>
<path style="fill:none;stroke-width:0.75;stroke-linecap:round;stroke-linejoin:round;stroke:rgb(0%,0%,0%);stroke-opacity:1;stroke-miterlimit:10;" d="M 243.359375 152.097656 L 243.292969 152.625 L 243.132812 153.855469 L 242.957031 155.082031 L 242.769531 156.304688 L 242.5625 157.527344 L 242.339844 158.746094 L 242.105469 159.960938 L 241.855469 161.175781 L 241.609375 162.347656 L 241.347656 163.519531 L 241.070312 164.6875 L 240.78125 165.851562 L 240.480469 167.011719 L 240.164062 168.164062 L 239.832031 169.316406 L 239.488281 170.464844 L 239.128906 171.605469 L 238.757812 172.742188 L 238.375 173.875 L 237.976562 175.003906 L 237.5625 176.125 L 237.136719 177.242188 L 236.699219 178.351562 L 236.246094 179.457031 L 235.78125 180.558594 L 235.300781 181.648438 L 234.882812 182.597656 L 234.449219 183.539062 L 234.007812 184.480469 L 233.558594 185.410156 L 233.097656 186.339844 L 232.628906 187.261719 L 232.070312 188.335938 L 231.5 189.402344 L 230.917969 190.460938 L 230.324219 191.511719 L 229.71875 192.554688 L 229.097656 193.59375 L 228.460938 194.628906 L 227.816406 195.652344 L 227.15625 196.671875 L 226.484375 197.679688 L 225.800781 198.679688 L 225.105469 199.671875 L 224.398438 200.652344 L 223.679688 201.628906 L 222.949219 202.59375 L 222.261719 203.457031 L 221.566406 204.3125 L 220.863281 205.164062 L 220.148438 206.003906 L 219.425781 206.835938 L 218.695312 207.660156 L 218.363281 208.019531 L 217.539062 208.871094 L 216.707031 209.714844 L 215.863281 210.542969 L 215.011719 211.363281 L 214.152344 212.175781 L 213.28125 212.972656 L 212.402344 213.757812 L 211.511719 214.535156 L 210.617188 215.300781 L 209.761719 216.074219 L 208.898438 216.839844 L 208.027344 217.589844 L 207.238281 218.277344 L 206.4375 218.953125 L 205.632812 219.617188 L 204.695312 220.363281 L 203.75 221.097656 L 202.800781 221.820312 L 201.835938 222.53125 L 200.867188 223.226562 L 199.886719 223.914062 L 198.902344 224.589844 L 197.90625 225.25 L 196.902344 225.902344 L 195.894531 226.539062 L 194.875 227.164062 L 193.847656 227.773438 L 192.816406 228.375 L 191.761719 228.890625 L 190.707031 229.398438 L 189.640625 229.886719 L 188.574219 230.367188 L 187.503906 230.832031 L 186.425781 231.28125 L 185.34375 231.722656 L 184.257812 232.144531 L 183.167969 232.558594 L 182.070312 232.957031 L 180.972656 233.339844 L 179.871094 233.710938 L 178.765625 234.070312 L 177.65625 234.414062 L 176.578125 234.835938 L 175.496094 235.242188 L 174.410156 235.640625 L 173.316406 236.023438 L 172.21875 236.394531 L 171.117188 236.75 L 170.011719 237.097656 L 168.902344 237.425781 L 167.785156 237.746094 L 166.667969 238.050781 L 165.542969 238.339844 L 164.417969 238.617188 L 163.761719 238.847656 L 163.101562 239.070312 L 162.058594 239.425781 L 160.910156 239.828125 L 159.757812 240.21875 L 158.597656 240.59375 L 157.429688 240.953125 L 156.257812 241.300781 L 155.242188 241.625 L 154.222656 241.9375 L 153.882812 242.042969 "/>
<path style="fill:none;stroke-width:0.75;stroke-linecap:round;stroke-linejoin:round;stroke:rgb(0%,0%,0%);stroke-opacity:1;stroke-miterlimit:10;" d="M 144 214.800781 L 144 262.800781 L 142.511719 262.789062 L 141.023438 262.761719 L 139.535156 262.714844 L 138.050781 262.652344 L 136.5625 262.566406 L 135.078125 262.464844 L 133.597656 262.34375 L 132.113281 262.203125 L 130.632812 262.046875 L 129.15625 261.867188 L 127.679688 261.675781 L 126.207031 261.460938 L 124.738281 261.226562 L 123.273438 260.976562 L 121.808594 260.707031 L 120.347656 260.421875 L 118.890625 260.117188 L 117.4375 259.792969 L 115.992188 259.449219 L 114.546875 259.089844 L 113.105469 258.714844 L 111.671875 258.316406 L 110.242188 257.902344 L 108.820312 257.472656 L 107.398438 257.023438 L 105.988281 256.554688 L 104.582031 256.070312 L 103.179688 255.566406 L 101.785156 255.046875 L 100.398438 254.507812 L 99.015625 253.953125 L 97.644531 253.382812 L 96.277344 252.792969 L 94.917969 252.1875 L 93.566406 251.5625 L 92.222656 250.921875 L 90.886719 250.265625 L 89.558594 249.59375 L 88.242188 248.902344 L 86.933594 248.195312 L 85.632812 247.472656 L 84.339844 246.734375 L 83.058594 245.976562 L 81.785156 245.207031 L 80.523438 244.417969 L 79.269531 243.617188 L 78.027344 242.796875 L 76.792969 241.964844 L 75.570312 241.113281 L 74.359375 240.25 L 73.160156 239.367188 L 71.972656 238.472656 L 70.792969 237.5625 L 69.628906 236.640625 L 68.472656 235.699219 L 67.328125 234.746094 L 66.199219 233.78125 L 65.082031 232.796875 L 63.972656 231.804688 L 62.878906 230.792969 L 61.800781 229.769531 L 60.730469 228.734375 L 59.675781 227.683594 L 58.636719 226.621094 L 57.605469 225.546875 L 56.59375 224.457031 L 55.589844 223.355469 L 54.605469 222.242188 L 53.632812 221.117188 L 52.671875 219.976562 L 51.726562 218.828125 L 50.796875 217.667969 L 49.882812 216.492188 L 48.980469 215.308594 L 48.09375 214.113281 L 47.226562 212.90625 L 46.371094 211.6875 L 45.527344 210.460938 L 44.703125 209.222656 L 43.894531 207.972656 L 43.101562 206.714844 L 42.324219 205.445312 L 41.5625 204.164062 L 40.816406 202.878906 L 40.085938 201.582031 L 39.375 200.273438 L 38.675781 198.960938 L 37.996094 197.636719 L 37.332031 196.304688 L 36.6875 194.964844 L 36.058594 193.617188 L 35.445312 192.257812 L 34.847656 190.894531 L 34.269531 189.523438 L 33.707031 188.144531 L 33.164062 186.761719 L 32.636719 185.371094 L 32.125 183.972656 L 31.632812 182.566406 L 31.160156 181.15625 L 30.703125 179.738281 L 30.265625 178.316406 L 29.84375 176.890625 L 29.441406 175.457031 L 29.054688 174.019531 L 28.6875 172.578125 L 28.339844 171.132812 L 28.007812 169.679688 L 27.695312 168.226562 L 27.402344 166.765625 L 27.125 165.304688 L 26.867188 163.839844 L 26.628906 162.371094 L 26.40625 160.898438 L 26.207031 159.421875 L 26.023438 157.945312 L 25.855469 156.46875 L 25.710938 154.988281 L 25.582031 153.503906 L 25.472656 152.019531 L 25.378906 150.535156 L 25.308594 149.046875 L 25.253906 147.5625 L 25.21875 146.074219 L 28.21875 146.019531 L 29.71875 145.996094 L 32.71875 145.941406 L 34.214844 145.917969 L 38.714844 145.835938 L 40.214844 145.8125 L 43.214844 145.757812 L 44.714844 145.734375 L 47.714844 145.679688 L 49.214844 145.65625 L 53.714844 145.574219 L 55.214844 145.550781 L 58.214844 145.496094 L 59.710938 145.472656 L 62.710938 145.417969 L 64.210938 145.394531 L 68.710938 145.3125 L 70.210938 145.289062 L 73.210938 145.234375 L 73.230469 146.121094 L 73.265625 147.007812 L 73.308594 147.894531 L 73.363281 148.78125 L 73.425781 149.664062 L 73.503906 150.546875 L 73.589844 151.429688 L 73.691406 152.3125 L 73.800781 153.191406 L 73.917969 154.070312 L 74.050781 154.949219 L 74.195312 155.824219 L 74.347656 156.695312 L 74.511719 157.566406 L 74.6875 158.4375 L 74.875 159.304688 L 75.070312 160.167969 L 75.277344 161.03125 L 75.496094 161.890625 L 75.726562 162.746094 L 75.96875 163.601562 L 76.21875 164.453125 L 76.480469 165.300781 L 76.75 166.144531 L 77.035156 166.984375 L 77.328125 167.820312 L 77.632812 168.65625 L 77.945312 169.484375 L 78.269531 170.308594 L 78.605469 171.128906 L 78.949219 171.949219 L 79.304688 172.761719 L 79.671875 173.570312 L 80.046875 174.371094 L 80.429688 175.171875 L 80.828125 175.964844 L 81.230469 176.753906 L 81.648438 177.539062 L 82.070312 178.316406 L 82.507812 179.089844 L 82.953125 179.855469 L 83.40625 180.617188 L 83.867188 181.375 L 84.339844 182.125 L 84.824219 182.871094 L 85.316406 183.605469 L 85.816406 184.339844 L 86.324219 185.066406 L 86.84375 185.785156 L 87.371094 186.496094 L 87.910156 187.203125 L 88.457031 187.902344 L 89.007812 188.59375 L 89.574219 189.28125 L 90.144531 189.957031 L 90.722656 190.628906 L 91.3125 191.292969 L 91.910156 191.949219 L 92.511719 192.597656 L 93.125 193.238281 L 93.746094 193.871094 L 94.375 194.5 L 95.011719 195.117188 L 95.65625 195.726562 L 96.308594 196.328125 L 96.96875 196.921875 L 97.632812 197.503906 L 98.308594 198.082031 L 98.988281 198.648438 L 99.675781 199.210938 L 100.371094 199.761719 L 101.074219 200.300781 L 101.78125 200.835938 L 102.496094 201.359375 L 103.21875 201.875 L 103.949219 202.382812 L 104.683594 202.878906 L 105.421875 203.367188 L 106.167969 203.84375 L 106.921875 204.316406 L 107.679688 204.773438 L 108.445312 205.226562 L 109.214844 205.664062 L 109.988281 206.097656 L 110.769531 206.515625 L 111.554688 206.929688 L 112.347656 207.332031 L 113.144531 207.722656 L 113.941406 208.101562 L 114.75 208.476562 L 115.558594 208.835938 L 116.371094 209.1875 L 117.191406 209.527344 L 118.015625 209.859375 L 118.839844 210.179688 L 119.671875 210.488281 L 120.507812 210.789062 L 121.347656 211.078125 L 122.1875 211.355469 L 123.035156 211.625 L 123.882812 211.882812 L 124.734375 212.128906 L 125.589844 212.363281 L 126.445312 212.589844 L 127.308594 212.804688 L 128.171875 213.007812 L 129.035156 213.199219 L 129.902344 213.382812 L 130.773438 213.554688 L 131.648438 213.714844 L 132.519531 213.863281 L 133.398438 214 L 134.273438 214.128906 L 135.152344 214.246094 L 136.035156 214.351562 L 136.917969 214.445312 L 137.800781 214.527344 L 138.683594 214.601562 L 139.566406 214.660156 L 140.453125 214.710938 L 141.339844 214.75 L 142.226562 214.777344 L 143.113281 214.792969 L 144 214.800781 "/>
<path style=" stroke:none;fill-rule:nonzero;fill:rgb(80%,80%,80%);fill-opacity:1;" d="M 142.039062 250.496094 L 140.773438 250.3125 L 139.515625 250.117188 L 138.257812 249.90625 L 137.003906 249.675781 L 135.757812 249.4375 L 134.515625 249.179688 L 133.277344 248.910156 L 132.042969 248.621094 L 130.816406 248.324219 L 129.59375 248.007812 L 128.378906 247.679688 L 127.167969 247.335938 L 125.910156 247.015625 L 124.65625 246.675781 L 123.472656 246.304688 L 122.292969 245.917969 L 121.121094 245.515625 L 119.957031 245.101562 L 118.796875 244.675781 L 117.644531 244.234375 L 116.496094 243.78125 L 115.359375 243.316406 L 114.226562 242.835938 L 113.101562 242.34375 L 111.988281 241.839844 L 110.878906 241.320312 L 109.777344 240.789062 L 108.683594 240.246094 L 107.609375 239.679688 L 106.542969 239.097656 L 105.484375 238.503906 L 104.4375 237.898438 L 103.394531 237.28125 L 102.363281 236.65625 L 101.34375 236.015625 L 100.371094 235.289062 L 99.40625 234.550781 L 98.457031 233.804688 L 97.515625 233.046875 L 96.585938 232.28125 L 95.671875 231.503906 L 94.765625 230.71875 L 93.871094 229.921875 L 92.992188 229.117188 L 92.121094 228.304688 L 91.328125 227.589844 L 90.542969 226.867188 L 89.769531 226.136719 L 89.003906 225.402344 L 88.542969 224.980469 L 87.777344 224 L 87.027344 223.015625 L 86.292969 222.023438 L 85.574219 221.023438 L 84.871094 220.019531 L 84.183594 219.007812 L 83.511719 217.996094 L 82.667969 217.035156 L 81.933594 216.402344 L 81.207031 215.761719 L 80.484375 215.113281 L 79.769531 214.460938 L 78.699219 213.984375 L 77.632812 213.492188 L 76.570312 212.988281 L 75.511719 212.464844 L 74.453125 211.929688 L 73.398438 211.375 L 72.347656 210.808594 L 71.300781 210.226562 L 70.257812 209.625 L 69.222656 209.011719 L 68.1875 208.382812 L 67.15625 207.738281 L 66.132812 207.082031 L 65.113281 206.40625 L 64.097656 205.714844 L 63.089844 205.011719 L 62.085938 204.289062 L 61.085938 203.554688 L 60.464844 202.953125 L 59.84375 202.347656 L 59.230469 201.734375 L 58.519531 200.863281 L 57.820312 199.984375 L 57.128906 199.097656 L 56.445312 198.199219 L 55.773438 197.296875 L 55.113281 196.320312 L 54.46875 195.332031 L 53.832031 194.339844 L 53.207031 193.339844 L 52.59375 192.332031 L 51.992188 191.316406 L 51.398438 190.3125 L 50.820312 189.304688 L 50.25 188.289062 L 49.691406 187.265625 L 49.144531 186.238281 L 48.609375 185.199219 L 47.902344 184.132812 L 47.207031 183.054688 L 46.523438 181.964844 L 45.855469 180.863281 L 45.195312 179.75 L 44.40625 178.699219 L 43.628906 177.628906 L 43.386719 177.316406 L 43.148438 177.015625 L 44.476562 176.578125 L 48.460938 175.277344 L 49.789062 174.839844 L 49.863281 175.171875 L 49.941406 175.515625 L 50.253906 176.660156 L 50.582031 177.804688 L 51.0625 178.90625 L 51.558594 180.003906 L 52.066406 181.09375 L 52.585938 182.175781 L 53.121094 183.253906 L 53.753906 184.1875 L 54.394531 185.109375 L 55.046875 186.023438 L 55.707031 186.929688 L 56.375 187.824219 L 57.054688 188.710938 L 57.761719 189.597656 L 58.476562 190.476562 L 59.199219 191.34375 L 59.933594 192.199219 L 60.671875 193.046875 L 61.421875 193.882812 L 62.125 194.683594 L 62.832031 195.480469 L 63.546875 196.261719 L 64.273438 197.039062 L 65.003906 197.804688 L 65.574219 198.375 L 66.152344 198.9375 L 66.734375 199.496094 L 67.632812 200.207031 L 68.539062 200.902344 L 69.449219 201.582031 L 70.363281 202.25 L 71.285156 202.90625 L 72.210938 203.546875 L 73.144531 204.175781 L 74.082031 204.789062 L 75.019531 205.390625 L 75.96875 205.976562 L 76.917969 206.550781 L 77.871094 207.109375 L 78.828125 207.65625 L 79.789062 208.1875 L 80.757812 208.707031 L 81.726562 209.210938 L 82.695312 209.699219 L 83.671875 210.179688 L 84.347656 210.789062 L 85.03125 211.390625 L 85.722656 211.984375 L 86.417969 212.574219 L 86.78125 213.058594 L 87.148438 213.546875 L 87.65625 214.4375 L 88.171875 215.324219 L 88.703125 216.210938 L 89.25 217.09375 L 89.804688 217.972656 L 90.375 218.847656 L 90.957031 219.71875 L 91.550781 220.585938 L 91.984375 220.988281 L 92.695312 221.703125 L 93.417969 222.414062 L 94.148438 223.117188 L 94.886719 223.8125 L 95.71875 224.566406 L 96.5625 225.3125 L 97.414062 226.050781 L 98.28125 226.78125 L 99.15625 227.5 L 100.039062 228.210938 L 100.9375 228.910156 L 101.84375 229.605469 L 102.761719 230.285156 L 103.6875 230.957031 L 104.652344 231.5625 L 105.625 232.160156 L 106.609375 232.742188 L 107.597656 233.316406 L 108.597656 233.875 L 109.605469 234.425781 L 110.621094 234.964844 L 111.664062 235.445312 L 112.71875 235.914062 L 113.773438 236.371094 L 114.839844 236.816406 L 115.910156 237.246094 L 116.988281 237.664062 L 118.070312 238.074219 L 119.160156 238.464844 L 120.253906 238.847656 L 121.355469 239.21875 L 122.460938 239.574219 L 123.570312 239.917969 L 124.6875 240.246094 L 125.808594 240.5625 L 127.011719 240.730469 L 128.21875 240.878906 L 129.410156 240.828125 L 130.597656 240.761719 L 131.78125 240.679688 L 132.964844 240.585938 L 134.140625 240.476562 L 135.3125 240.351562 L 136.480469 240.214844 L 137.640625 240.0625 L 138.800781 239.894531 L 139.953125 239.714844 L 141.101562 239.523438 L 142.246094 239.3125 Z M 142.039062 250.496094 "/>
<path style="fill:none;stroke-width:0.75;stroke-linecap:round;stroke-linejoin:round;stroke:rgb(0%,0%,0%);stroke-opacity:1;stroke-miterlimit:10;" d="M 143.421875 248.742188 C 143.421875 250.539062 140.722656 250.539062 140.722656 248.742188 C 140.722656 246.941406 143.421875 246.941406 143.421875 248.742188 "/>
<path style="fill:none;stroke-width:0.75;stroke-linecap:round;stroke-linejoin:round;stroke:rgb(0%,0%,0%);stroke-opacity:1;stroke-miterlimit:10;" d="M 130.242188 236.753906 C 130.242188 238.554688 127.542969 238.554688 127.542969 236.753906 C 127.542969 234.957031 130.242188 234.957031 130.242188 236.753906 "/>
<path style="fill:none;stroke-width:0.75;stroke-linecap:round;stroke-linejoin:round;stroke:rgb(0%,0%,0%);stroke-opacity:1;stroke-miterlimit:10;" d="M 127.359375 239.5 C 127.359375 241.300781 124.660156 241.300781 124.660156 239.5 C 124.660156 237.699219 127.359375 237.699219 127.359375 239.5 "/>
<path style="fill:none;stroke-width:0.75;stroke-linecap:round;stroke-linejoin:round;stroke:rgb(0%,0%,0%);stroke-opacity:1;stroke-miterlimit:10;" d="M 108.34375 244.855469 C 108.34375 246.652344 105.640625 246.652344 105.640625 244.855469 C 105.640625 243.054688 108.34375 243.054688 108.34375 244.855469 "/>
<path style="fill:none;stroke-width:0.75;stroke-linecap:round;stroke-linejoin:round;stroke:rgb(0%,0%,0%);stroke-opacity:1;stroke-miterlimit:10;" d="M 98.003906 246.128906 C 98.003906 247.929688 95.304688 247.929688 95.304688 246.128906 C 95.304688 244.328125 98.003906 244.328125 98.003906 246.128906 "/>
<path style="fill:none;stroke-width:0.75;stroke-linecap:round;stroke-linejoin:round;stroke:rgb(0%,0%,0%);stroke-opacity:1;stroke-miterlimit:10;" d="M 93.855469 227.683594 C 93.855469 229.484375 91.152344 229.484375 91.152344 227.683594 C 91.152344 225.882812 93.855469 225.882812 93.855469 227.683594 "/>
<path style="fill:none;stroke-width:0.75;stroke-linecap:round;stroke-linejoin:round;stroke:rgb(0%,0%,0%);stroke-opacity:1;stroke-miterlimit:10;" d="M 97.039062 215.507812 C 97.039062 217.308594 94.335938 217.308594 94.335938 215.507812 C 94.335938 213.707031 97.039062 213.707031 97.039062 215.507812 "/>
<path style="fill:none;stroke-width:0.75;stroke-linecap:round;stroke-linejoin:round;stroke:rgb(0%,0%,0%);stroke-opacity:1;stroke-miterlimit:10;" d="M 95.40625 216.925781 C 95.40625 218.726562 92.707031 218.726562 92.707031 216.925781 C 92.707031 215.125 95.40625 215.125 95.40625 216.925781 "/>
<path style="fill:none;stroke-width:0.75;stroke-linecap:round;stroke-linejoin:round;stroke:rgb(0%,0%,0%);stroke-opacity:1;stroke-miterlimit:10;" d="M 83.710938 219.402344 C 83.710938 221.203125 81.007812 221.203125 81.007812 219.402344 C 81.007812 217.601562 83.710938 217.601562 83.710938 219.402344 "/>
<path style="fill:none;stroke-width:0.75;stroke-linecap:round;stroke-linejoin:round;stroke:rgb(0%,0%,0%);stroke-opacity:1;stroke-miterlimit:10;" d="M 87.542969 212.839844 C 87.542969 214.640625 84.84375 214.640625 84.84375 212.839844 C 84.84375 211.042969 87.542969 211.042969 87.542969 212.839844 "/>
<path style="fill:none;stroke-width:0.75;stroke-linecap:round;stroke-linejoin:round;stroke:rgb(0%,0%,0%);stroke-opacity:1;stroke-miterlimit:10;" d="M 80.261719 215.398438 C 80.261719 217.199219 77.5625 217.199219 77.5625 215.398438 C 77.5625 213.601562 80.261719 213.601562 80.261719 215.398438 "/>
<path style="fill:none;stroke-width:0.75;stroke-linecap:round;stroke-linejoin:round;stroke:rgb(0%,0%,0%);stroke-opacity:1;stroke-miterlimit:10;" d="M 61.28125 204.386719 C 61.28125 206.183594 58.582031 206.183594 58.582031 204.386719 C 58.582031 202.585938 61.28125 202.585938 61.28125 204.386719 "/>
<path style="fill:none;stroke-width:0.75;stroke-linecap:round;stroke-linejoin:round;stroke:rgb(0%,0%,0%);stroke-opacity:1;stroke-miterlimit:10;" d="M 63.386719 199.824219 C 63.386719 201.625 60.6875 201.625 60.6875 199.824219 C 60.6875 198.023438 63.386719 198.023438 63.386719 199.824219 "/>
<path style="fill:none;stroke-width:0.75;stroke-linecap:round;stroke-linejoin:round;stroke:rgb(0%,0%,0%);stroke-opacity:1;stroke-miterlimit:10;" d="M 64.390625 192.90625 C 64.390625 194.707031 61.691406 194.707031 61.691406 192.90625 C 61.691406 191.105469 64.390625 191.105469 64.390625 192.90625 "/>
<path style="fill:none;stroke-width:0.75;stroke-linecap:round;stroke-linejoin:round;stroke:rgb(0%,0%,0%);stroke-opacity:1;stroke-miterlimit:10;" d="M 56.726562 189.574219 C 56.726562 191.375 54.027344 191.375 54.027344 189.574219 C 54.027344 187.773438 56.726562 187.773438 56.726562 189.574219 "/>
<path style="fill:none;stroke-width:0.75;stroke-linecap:round;stroke-linejoin:round;stroke:rgb(0%,0%,0%);stroke-opacity:1;stroke-miterlimit:10;" d="M 51.59375 184.496094 C 51.59375 186.296875 48.890625 186.296875 48.890625 184.496094 C 48.890625 182.695312 51.59375 182.695312 51.59375 184.496094 "/>
<path style="fill:none;stroke-width:0.75;stroke-linecap:round;stroke-linejoin:round;stroke:rgb(0%,0%,0%);stroke-opacity:1;stroke-miterlimit:10;" d="M 45.441406 180.152344 C 45.441406 181.953125 42.738281 181.953125 42.738281 180.152344 C 42.738281 178.351562 45.441406 178.351562 45.441406 180.152344 "/>
<path style="fill:none;stroke-width:0.75;stroke-linecap:round;stroke-linejoin:round;stroke:rgb(0%,0%,0%);stroke-opacity:1;stroke-miterlimit:10;" d="M 52.652344 175.058594 C 52.652344 176.859375 49.953125 176.859375 49.953125 175.058594 C 49.953125 173.257812 52.652344 173.257812 52.652344 175.058594 "/>
<path style="fill:none;stroke-width:0.75;stroke-linecap:round;stroke-linejoin:round;stroke:rgb(0%,0%,0%);stroke-opacity:1;stroke-miterlimit:10;" d="M 52.96875 174.589844 C 52.96875 176.390625 50.269531 176.390625 50.269531 174.589844 C 50.269531 172.792969 52.96875 172.792969 52.96875 174.589844 "/>
<path style="fill:none;stroke-width:0.75;stroke-linecap:round;stroke-linejoin:round;stroke:rgb(0%,0%,0%);stroke-opacity:1;stroke-miterlimit:10;" d="M 41.273438 178.070312 C 41.273438 179.871094 38.574219 179.871094 38.574219 178.070312 C 38.574219 176.269531 41.273438 176.269531 41.273438 178.070312 "/>
<path style="fill:none;stroke-width:0.75;stroke-linecap:round;stroke-linejoin:round;stroke:rgb(0%,0%,0%);stroke-opacity:1;stroke-miterlimit:10;" d="M 142.144531 244.90625 L 140.9375 244.917969 L 139.734375 244.917969 L 138.527344 244.898438 L 137.324219 244.871094 L 136.117188 244.824219 L 134.914062 244.765625 L 133.707031 244.691406 L 132.503906 244.605469 L 131.300781 244.503906 L 130.097656 244.386719 L 128.894531 244.253906 L 127.695312 244.109375 L 126.460938 243.871094 L 125.234375 243.621094 L 124.078125 243.273438 L 122.933594 242.917969 L 121.789062 242.542969 L 120.65625 242.160156 L 119.527344 241.761719 L 118.402344 241.351562 L 117.285156 240.925781 L 116.171875 240.492188 L 115.070312 240.042969 L 113.972656 239.578125 L 112.882812 239.105469 L 111.796875 238.617188 L 110.71875 238.117188 L 109.652344 237.605469 L 108.605469 237.054688 L 107.570312 236.488281 L 106.542969 235.910156 L 105.523438 235.320312 L 104.511719 234.71875 L 103.507812 234.109375 L 102.515625 233.488281 L 101.566406 232.789062 L 100.625 232.078125 L 99.695312 231.359375 L 98.777344 230.628906 L 97.871094 229.890625 L 96.976562 229.140625 L 96.089844 228.382812 L 95.21875 227.617188 L 94.355469 226.84375 L 93.503906 226.058594 L 92.738281 225.351562 L 91.980469 224.640625 L 91.234375 223.921875 L 90.492188 223.195312 L 90.046875 222.78125 L 89.324219 221.796875 L 88.617188 220.804688 L 87.929688 219.808594 L 87.253906 218.804688 L 86.597656 217.800781 L 85.957031 216.785156 L 85.328125 215.769531 L 84.933594 215.289062 L 84.542969 214.804688 L 83.828125 214.195312 L 83.117188 213.578125 L 82.417969 212.953125 L 81.71875 212.320312 L 80.699219 211.84375 L 79.679688 211.351562 L 78.664062 210.847656 L 77.652344 210.324219 L 76.640625 209.792969 L 75.636719 209.242188 L 74.632812 208.679688 L 73.632812 208.101562 L 72.640625 207.507812 L 71.652344 206.902344 L 70.664062 206.28125 L 69.683594 205.644531 L 68.707031 204.992188 L 67.738281 204.328125 L 66.773438 203.648438 L 65.8125 202.957031 L 64.859375 202.25 L 63.910156 201.527344 L 63.308594 200.945312 L 62.710938 200.359375 L 62.117188 199.769531 L 61.394531 198.949219 L 60.683594 198.125 L 59.980469 197.289062 L 59.285156 196.441406 L 58.597656 195.589844 L 57.894531 194.683594 L 57.199219 193.765625 L 56.515625 192.84375 L 55.839844 191.910156 L 55.175781 190.964844 L 54.523438 190.011719 L 53.886719 189.070312 L 53.261719 188.117188 L 52.648438 187.15625 L 52.042969 186.1875 L 51.449219 185.210938 L 50.867188 184.226562 L 50.246094 183.15625 L 49.636719 182.074219 L 49.042969 180.984375 L 48.457031 179.886719 L 47.886719 178.777344 L 47.332031 177.679688 L 46.785156 176.574219 L 46.625 176.246094 L 46.46875 175.925781 "/>
<path style="fill:none;stroke-width:0.75;stroke-linecap:round;stroke-linejoin:round;stroke:rgb(0%,0%,0%);stroke-opacity:1;stroke-miterlimit:10;" d="M 73.199219 144 L 25.199219 144 L 25.210938 142.511719 L 25.238281 141.023438 L 25.285156 139.535156 L 25.347656 138.050781 L 25.433594 136.5625 L 25.535156 135.078125 L 25.65625 133.597656 L 25.796875 132.113281 L 25.953125 130.632812 L 26.132812 129.15625 L 26.324219 127.679688 L 26.539062 126.207031 L 26.773438 124.738281 L 27.023438 123.273438 L 27.292969 121.808594 L 27.578125 120.347656 L 27.882812 118.890625 L 28.207031 117.4375 L 28.550781 115.992188 L 28.910156 114.546875 L 29.285156 113.105469 L 29.683594 111.671875 L 30.097656 110.242188 L 30.527344 108.820312 L 30.976562 107.398438 L 31.445312 105.988281 L 31.929688 104.582031 L 32.433594 103.179688 L 32.953125 101.785156 L 33.492188 100.398438 L 34.046875 99.015625 L 34.617188 97.644531 L 35.207031 96.277344 L 35.8125 94.917969 L 36.4375 93.566406 L 37.078125 92.222656 L 37.734375 90.886719 L 38.40625 89.558594 L 39.097656 88.242188 L 39.804688 86.933594 L 40.527344 85.632812 L 41.265625 84.339844 L 42.023438 83.058594 L 42.792969 81.785156 L 43.582031 80.523438 L 44.382812 79.269531 L 45.203125 78.027344 L 46.035156 76.792969 L 46.886719 75.570312 L 47.75 74.359375 L 48.632812 73.160156 L 49.527344 71.972656 L 50.4375 70.792969 L 51.359375 69.628906 L 52.300781 68.472656 L 53.253906 67.328125 L 54.21875 66.199219 L 55.203125 65.082031 L 56.195312 63.972656 L 57.207031 62.878906 L 58.230469 61.800781 L 59.265625 60.730469 L 60.316406 59.675781 L 61.378906 58.636719 L 62.453125 57.605469 L 63.542969 56.59375 L 64.644531 55.589844 L 65.757812 54.605469 L 66.882812 53.632812 L 68.023438 52.671875 L 69.171875 51.726562 L 70.332031 50.796875 L 71.507812 49.882812 L 72.691406 48.980469 L 73.886719 48.09375 L 75.09375 47.226562 L 76.3125 46.371094 L 77.539062 45.527344 L 78.777344 44.703125 L 80.027344 43.894531 L 81.285156 43.101562 L 82.554688 42.324219 L 83.835938 41.5625 L 85.121094 40.816406 L 86.417969 40.085938 L 87.726562 39.375 L 89.039062 38.675781 L 90.363281 37.996094 L 91.695312 37.332031 L 93.035156 36.6875 L 94.382812 36.058594 L 95.742188 35.445312 L 97.105469 34.847656 L 98.476562 34.269531 L 99.855469 33.707031 L 101.238281 33.164062 L 102.628906 32.636719 L 104.027344 32.125 L 105.433594 31.632812 L 106.84375 31.160156 L 108.261719 30.703125 L 109.683594 30.265625 L 111.109375 29.84375 L 112.542969 29.441406 L 113.980469 29.054688 L 115.421875 28.6875 L 116.867188 28.339844 L 118.320312 28.007812 L 119.773438 27.695312 L 121.234375 27.402344 L 122.695312 27.125 L 124.160156 26.867188 L 125.628906 26.628906 L 127.101562 26.40625 L 128.578125 26.207031 L 130.054688 26.023438 L 131.53125 25.855469 L 133.011719 25.710938 L 134.496094 25.582031 L 135.980469 25.472656 L 137.464844 25.378906 L 138.953125 25.308594 L 140.4375 25.253906 L 141.925781 25.21875 L 141.980469 28.21875 L 142.003906 29.71875 L 142.058594 32.71875 L 142.082031 34.214844 L 142.164062 38.714844 L 142.1875 40.214844 L 142.242188 43.214844 L 142.265625 44.714844 L 142.320312 47.714844 L 142.34375 49.214844 L 142.425781 53.714844 L 142.449219 55.214844 L 142.503906 58.214844 L 142.527344 59.710938 L 142.582031 62.710938 L 142.605469 64.210938 L 142.6875 68.710938 L 142.710938 70.210938 L 142.765625 73.210938 L 141.878906 73.230469 L 140.992188 73.265625 L 140.105469 73.308594 L 139.21875 73.363281 L 138.335938 73.425781 L 137.453125 73.503906 L 136.570312 73.589844 L 135.6875 73.691406 L 134.808594 73.800781 L 133.929688 73.917969 L 133.050781 74.050781 L 132.175781 74.195312 L 131.304688 74.347656 L 130.433594 74.511719 L 129.5625 74.6875 L 128.695312 74.875 L 127.832031 75.070312 L 126.96875 75.277344 L 126.109375 75.496094 L 125.253906 75.726562 L 124.398438 75.96875 L 123.546875 76.21875 L 122.699219 76.480469 L 121.855469 76.75 L 121.015625 77.035156 L 120.179688 77.328125 L 119.34375 77.632812 L 118.515625 77.945312 L 117.691406 78.269531 L 116.871094 78.605469 L 116.050781 78.949219 L 115.238281 79.304688 L 114.429688 79.671875 L 113.628906 80.046875 L 112.828125 80.429688 L 112.035156 80.828125 L 111.246094 81.230469 L 110.460938 81.648438 L 109.683594 82.070312 L 108.910156 82.507812 L 108.144531 82.953125 L 107.382812 83.40625 L 106.625 83.867188 L 105.875 84.339844 L 105.128906 84.824219 L 104.394531 85.316406 L 103.660156 85.816406 L 102.933594 86.324219 L 102.214844 86.84375 L 101.503906 87.371094 L 100.796875 87.910156 L 100.097656 88.457031 L 99.40625 89.007812 L 98.71875 89.574219 L 98.042969 90.144531 L 97.371094 90.722656 L 96.707031 91.3125 L 96.050781 91.910156 L 95.402344 92.511719 L 94.761719 93.125 L 94.128906 93.746094 L 93.5 94.375 L 92.882812 95.011719 L 92.273438 95.65625 L 91.671875 96.308594 L 91.078125 96.96875 L 90.496094 97.632812 L 89.917969 98.308594 L 89.351562 98.988281 L 88.789062 99.675781 L 88.238281 100.371094 L 87.699219 101.074219 L 87.164062 101.78125 L 86.640625 102.496094 L 86.125 103.21875 L 85.617188 103.949219 L 85.121094 104.683594 L 84.632812 105.421875 L 84.15625 106.167969 L 83.683594 106.921875 L 83.226562 107.679688 L 82.773438 108.445312 L 82.335938 109.214844 L 81.902344 109.988281 L 81.484375 110.769531 L 81.070312 111.554688 L 80.667969 112.347656 L 80.277344 113.144531 L 79.898438 113.941406 L 79.523438 114.75 L 79.164062 115.558594 L 78.8125 116.371094 L 78.472656 117.191406 L 78.140625 118.015625 L 77.820312 118.839844 L 77.511719 119.671875 L 77.210938 120.507812 L 76.921875 121.347656 L 76.644531 122.1875 L 76.375 123.035156 L 76.117188 123.882812 L 75.871094 124.734375 L 75.636719 125.589844 L 75.410156 126.445312 L 75.195312 127.308594 L 74.992188 128.171875 L 74.800781 129.035156 L 74.617188 129.902344 L 74.445312 130.773438 L 74.285156 131.648438 L 74.136719 132.519531 L 74 133.398438 L 73.871094 134.273438 L 73.753906 135.152344 L 73.648438 136.035156 L 73.554688 136.917969 L 73.472656 137.800781 L 73.398438 138.683594 L 73.339844 139.566406 L 73.289062 140.453125 L 73.25 141.339844 L 73.222656 142.226562 L 73.207031 143.113281 L 73.199219 144 "/>
<path style=" stroke:none;fill-rule:nonzero;fill:rgb(80%,80%,80%);fill-opacity:1;" d="M 49.96875 129.238281 L 50.207031 128.214844 L 50.457031 127.195312 L 50.71875 126.175781 L 50.992188 125.164062 L 51.273438 124.152344 L 51.566406 123.144531 L 51.871094 122.144531 L 52.082031 121.285156 L 52.296875 120.429688 L 52.507812 119.265625 L 52.730469 118.101562 L 52.96875 116.941406 L 53.21875 115.78125 L 53.488281 114.625 L 53.769531 113.46875 L 54.066406 112.316406 L 54.378906 111.167969 L 54.617188 110.019531 L 54.871094 108.871094 L 55.136719 107.722656 L 55.417969 106.578125 L 55.714844 105.433594 L 56.027344 104.289062 L 56.355469 103.148438 L 56.695312 102.011719 L 57.050781 100.875 L 57.421875 99.742188 L 57.808594 98.609375 L 58.109375 97.757812 L 58.421875 96.90625 L 58.785156 95.902344 L 59.160156 94.902344 L 59.550781 93.902344 L 59.949219 92.910156 L 60.359375 91.917969 L 60.785156 90.925781 L 61.21875 89.941406 L 61.695312 88.855469 L 62.1875 87.777344 L 62.695312 86.699219 L 63.214844 85.628906 L 63.746094 84.558594 L 64.296875 83.496094 L 64.855469 82.4375 L 65.433594 81.382812 L 66.023438 80.332031 L 66.800781 79.359375 L 67.59375 78.390625 L 68.398438 77.433594 L 69.214844 76.488281 L 70.042969 75.550781 L 70.882812 74.625 L 71.730469 73.707031 L 72.59375 72.800781 L 73.46875 71.90625 L 74.355469 71.019531 L 75.230469 70.125 L 76.121094 69.242188 L 77.019531 68.367188 L 77.933594 67.503906 L 78.855469 66.652344 L 79.789062 65.808594 L 80.734375 64.980469 L 81.691406 64.160156 L 82.65625 63.355469 L 83.632812 62.558594 L 84.617188 61.777344 L 85.617188 61.003906 L 86.46875 60.300781 L 87.332031 59.605469 L 88.203125 58.917969 L 89.085938 58.238281 L 89.816406 57.671875 L 90.554688 57.105469 L 91.367188 56.476562 L 92.1875 55.859375 L 92.882812 55.304688 L 93.582031 54.753906 L 94.292969 54.210938 L 95.261719 53.433594 L 96.242188 52.664062 L 97.234375 51.90625 L 98.238281 51.160156 L 99.253906 50.421875 L 100.277344 49.699219 L 101.390625 49.015625 L 102.511719 48.347656 L 103.644531 47.691406 L 104.789062 47.046875 L 105.941406 46.417969 L 107.101562 45.800781 L 108.113281 45.273438 L 109.132812 44.753906 L 110.160156 44.246094 L 111.191406 43.746094 L 112.230469 43.261719 L 113.371094 42.746094 L 114.519531 42.242188 L 115.671875 41.753906 L 116.835938 41.277344 L 118.003906 40.8125 L 119.183594 40.363281 L 120.367188 39.925781 L 121.558594 39.503906 L 122.753906 39.09375 L 123.996094 38.632812 L 125.246094 38.191406 L 126.507812 37.761719 L 127.773438 37.347656 L 129.046875 36.945312 L 130.328125 36.5625 L 131.617188 36.195312 L 132.910156 35.839844 L 134.214844 35.503906 L 135.523438 35.183594 L 136.835938 34.875 L 137.558594 34.683594 L 137.636719 36.050781 L 137.71875 37.417969 L 137.796875 38.78125 L 137.878906 40.148438 L 137.960938 41.511719 L 138.039062 42.878906 L 137.359375 42.828125 L 136.121094 42.859375 L 134.882812 42.910156 L 133.644531 42.972656 L 132.402344 43.054688 L 131.164062 43.148438 L 129.929688 43.257812 L 128.691406 43.386719 L 127.457031 43.523438 L 126.222656 43.679688 L 124.988281 43.851562 L 123.753906 44.039062 L 122.605469 44.390625 L 121.460938 44.753906 L 120.324219 45.132812 L 119.191406 45.523438 L 118.066406 45.925781 L 116.945312 46.34375 L 115.832031 46.773438 L 114.722656 47.214844 L 113.621094 47.667969 L 112.628906 48.136719 L 111.640625 48.617188 L 110.660156 49.105469 L 109.6875 49.605469 L 108.722656 50.113281 L 107.613281 50.707031 L 106.515625 51.316406 L 105.425781 51.9375 L 104.34375 52.570312 L 103.273438 53.214844 L 102.214844 53.875 L 101.238281 54.578125 L 100.277344 55.292969 L 99.324219 56.019531 L 98.382812 56.757812 L 97.453125 57.503906 L 96.53125 58.257812 L 95.871094 58.800781 L 95.214844 59.351562 L 94.5625 59.902344 L 93.792969 60.511719 L 93.027344 61.125 L 92.339844 61.691406 L 91.660156 62.261719 L 90.859375 62.96875 L 90.070312 63.679688 L 89.289062 64.398438 L 88.515625 65.128906 L 87.585938 65.882812 L 86.664062 66.648438 L 85.75 67.421875 L 84.847656 68.210938 L 83.957031 69.007812 L 83.078125 69.8125 L 82.210938 70.632812 L 81.351562 71.460938 L 80.503906 72.296875 L 79.667969 73.144531 L 78.839844 74.003906 L 78.027344 74.871094 L 77.261719 75.78125 L 76.503906 76.699219 L 75.761719 77.625 L 75.03125 78.558594 L 74.3125 79.503906 L 73.605469 80.453125 L 72.914062 81.410156 L 72.234375 82.375 L 71.566406 83.347656 L 70.914062 84.328125 L 70.324219 85.28125 L 69.742188 86.238281 L 69.175781 87.199219 L 68.621094 88.167969 L 68.078125 89.140625 L 67.546875 90.121094 L 67.027344 91.105469 L 66.523438 92.089844 L 66.03125 93.085938 L 65.601562 94 L 65.183594 94.917969 L 64.773438 95.839844 L 64.375 96.765625 L 63.988281 97.695312 L 63.613281 98.628906 L 63.246094 99.5625 L 62.921875 100.347656 L 62.601562 101.136719 L 62.199219 102.183594 L 61.804688 103.234375 L 61.429688 104.289062 L 61.0625 105.34375 L 60.710938 106.40625 L 60.375 107.46875 L 60.050781 108.535156 L 59.738281 109.601562 L 59.441406 110.671875 L 59.160156 111.746094 L 58.890625 112.820312 L 58.726562 113.828125 L 58.578125 114.832031 L 58.4375 115.839844 L 58.308594 116.84375 L 58.195312 117.847656 L 58.089844 118.851562 L 58 119.855469 L 57.917969 120.855469 L 57.851562 121.855469 L 57.855469 122.710938 L 57.867188 123.566406 L 57.949219 124.585938 L 58.039062 125.601562 L 58.144531 126.613281 L 58.261719 127.617188 L 58.390625 128.621094 L 58.53125 129.617188 L 58.683594 130.609375 Z M 49.96875 129.238281 "/>
<path style="fill:none;stroke-width:0.75;stroke-linecap:round;stroke-linejoin:round;stroke:rgb(0%,0%,0%);stroke-opacity:1;stroke-miterlimit:10;" d="M 59.8125 130.574219 C 59.8125 132.375 57.113281 132.375 57.113281 130.574219 C 57.113281 128.773438 59.8125 128.773438 59.8125 130.574219 "/>
<path style="fill:none;stroke-width:0.75;stroke-linecap:round;stroke-linejoin:round;stroke:rgb(0%,0%,0%);stroke-opacity:1;stroke-miterlimit:10;" d="M 50.824219 121.574219 C 50.824219 123.375 48.121094 123.375 48.121094 121.574219 C 48.121094 119.773438 50.824219 119.773438 50.824219 121.574219 "/>
<path style="fill:none;stroke-width:0.75;stroke-linecap:round;stroke-linejoin:round;stroke:rgb(0%,0%,0%);stroke-opacity:1;stroke-miterlimit:10;" d="M 54.453125 120.636719 C 54.453125 122.4375 51.753906 122.4375 51.753906 120.636719 C 51.753906 118.835938 54.453125 118.835938 54.453125 120.636719 "/>
<path style="fill:none;stroke-width:0.75;stroke-linecap:round;stroke-linejoin:round;stroke:rgb(0%,0%,0%);stroke-opacity:1;stroke-miterlimit:10;" d="M 59.675781 112.613281 C 59.675781 114.414062 56.976562 114.414062 56.976562 112.613281 C 56.976562 110.816406 59.675781 110.816406 59.675781 112.613281 "/>
<path style="fill:none;stroke-width:0.75;stroke-linecap:round;stroke-linejoin:round;stroke:rgb(0%,0%,0%);stroke-opacity:1;stroke-miterlimit:10;" d="M 53.019531 95.378906 C 53.019531 97.175781 50.316406 97.175781 50.316406 95.378906 C 50.316406 93.578125 53.019531 93.578125 53.019531 95.378906 "/>
<path style="fill:none;stroke-width:0.75;stroke-linecap:round;stroke-linejoin:round;stroke:rgb(0%,0%,0%);stroke-opacity:1;stroke-miterlimit:10;" d="M 74.972656 105.269531 C 74.972656 107.070312 72.269531 107.070312 72.269531 105.269531 C 72.269531 103.46875 74.972656 103.46875 74.972656 105.269531 "/>
<path style="fill:none;stroke-width:0.75;stroke-linecap:round;stroke-linejoin:round;stroke:rgb(0%,0%,0%);stroke-opacity:1;stroke-miterlimit:10;" d="M 67.914062 93.433594 C 67.914062 95.234375 65.214844 95.234375 65.214844 93.433594 C 65.214844 91.632812 67.914062 91.632812 67.914062 93.433594 "/>
<path style="fill:none;stroke-width:0.75;stroke-linecap:round;stroke-linejoin:round;stroke:rgb(0%,0%,0%);stroke-opacity:1;stroke-miterlimit:10;" d="M 62.96875 76.738281 C 62.96875 78.539062 60.269531 78.539062 60.269531 76.738281 C 60.269531 74.9375 62.96875 74.9375 62.96875 76.738281 "/>
<path style="fill:none;stroke-width:0.75;stroke-linecap:round;stroke-linejoin:round;stroke:rgb(0%,0%,0%);stroke-opacity:1;stroke-miterlimit:10;" d="M 78.390625 73.835938 C 78.390625 75.636719 75.691406 75.636719 75.691406 73.835938 C 75.691406 72.035156 78.390625 72.035156 78.390625 73.835938 "/>
<path style="fill:none;stroke-width:0.75;stroke-linecap:round;stroke-linejoin:round;stroke:rgb(0%,0%,0%);stroke-opacity:1;stroke-miterlimit:10;" d="M 88.191406 62.746094 C 88.191406 64.546875 85.492188 64.546875 85.492188 62.746094 C 85.492188 60.945312 88.191406 60.945312 88.191406 62.746094 "/>
<path style="fill:none;stroke-width:0.75;stroke-linecap:round;stroke-linejoin:round;stroke:rgb(0%,0%,0%);stroke-opacity:1;stroke-miterlimit:10;" d="M 93.613281 63.203125 C 93.613281 65.003906 90.914062 65.003906 90.914062 63.203125 C 90.914062 61.40625 93.613281 61.40625 93.613281 63.203125 "/>
<path style="fill:none;stroke-width:0.75;stroke-linecap:round;stroke-linejoin:round;stroke:rgb(0%,0%,0%);stroke-opacity:1;stroke-miterlimit:10;" d="M 91.90625 57.109375 C 91.90625 58.910156 89.207031 58.910156 89.207031 57.109375 C 89.207031 55.308594 91.90625 55.308594 91.90625 57.109375 "/>
<path style="fill:none;stroke-width:0.75;stroke-linecap:round;stroke-linejoin:round;stroke:rgb(0%,0%,0%);stroke-opacity:1;stroke-miterlimit:10;" d="M 96.195312 60.378906 C 96.195312 62.179688 93.492188 62.179688 93.492188 60.378906 C 93.492188 58.578125 96.195312 58.578125 96.195312 60.378906 "/>
<path style="fill:none;stroke-width:0.75;stroke-linecap:round;stroke-linejoin:round;stroke:rgb(0%,0%,0%);stroke-opacity:1;stroke-miterlimit:10;" d="M 97.492188 57.554688 C 97.492188 59.355469 94.792969 59.355469 94.792969 57.554688 C 94.792969 55.753906 97.492188 55.753906 97.492188 57.554688 "/>
<path style="fill:none;stroke-width:0.75;stroke-linecap:round;stroke-linejoin:round;stroke:rgb(0%,0%,0%);stroke-opacity:1;stroke-miterlimit:10;" d="M 101.25 48.878906 C 101.25 50.679688 98.546875 50.679688 98.546875 48.878906 C 98.546875 47.078125 101.25 47.078125 101.25 48.878906 "/>
<path style="fill:none;stroke-width:0.75;stroke-linecap:round;stroke-linejoin:round;stroke:rgb(0%,0%,0%);stroke-opacity:1;stroke-miterlimit:10;" d="M 108.882812 46.941406 C 108.882812 48.742188 106.179688 48.742188 106.179688 46.941406 C 106.179688 45.140625 108.882812 45.140625 108.882812 46.941406 "/>
<path style="fill:none;stroke-width:0.75;stroke-linecap:round;stroke-linejoin:round;stroke:rgb(0%,0%,0%);stroke-opacity:1;stroke-miterlimit:10;" d="M 112.640625 40.28125 C 112.640625 42.082031 109.941406 42.082031 109.941406 40.28125 C 109.941406 38.480469 112.640625 38.480469 112.640625 40.28125 "/>
<path style="fill:none;stroke-width:0.75;stroke-linecap:round;stroke-linejoin:round;stroke:rgb(0%,0%,0%);stroke-opacity:1;stroke-miterlimit:10;" d="M 124.691406 41.984375 C 124.691406 43.785156 121.988281 43.785156 121.988281 41.984375 C 121.988281 40.1875 124.691406 40.1875 124.691406 41.984375 "/>
<path style="fill:none;stroke-width:0.75;stroke-linecap:round;stroke-linejoin:round;stroke:rgb(0%,0%,0%);stroke-opacity:1;stroke-miterlimit:10;" d="M 138.828125 44.660156 C 138.828125 46.457031 136.128906 46.457031 136.128906 44.660156 C 136.128906 42.859375 138.828125 42.859375 138.828125 44.660156 "/>
<path style="fill:none;stroke-width:0.75;stroke-linecap:round;stroke-linejoin:round;stroke:rgb(0%,0%,0%);stroke-opacity:1;stroke-miterlimit:10;" d="M 138.914062 34.773438 C 138.914062 36.574219 136.210938 36.574219 136.210938 34.773438 C 136.210938 32.972656 138.914062 32.972656 138.914062 34.773438 "/>
<path style="fill:none;stroke-width:0.75;stroke-linecap:round;stroke-linejoin:round;stroke:rgb(0%,0%,0%);stroke-opacity:1;stroke-miterlimit:10;" d="M 54.328125 129.925781 L 54.371094 128.914062 L 54.425781 127.90625 L 54.492188 126.898438 L 54.566406 125.886719 L 54.65625 124.875 L 54.757812 123.867188 L 54.871094 122.855469 L 54.96875 122 L 55.074219 121.140625 L 55.21875 119.996094 L 55.375 118.851562 L 55.546875 117.707031 L 55.734375 116.5625 L 55.9375 115.417969 L 56.15625 114.277344 L 56.386719 113.136719 L 56.632812 111.996094 L 56.886719 110.882812 L 57.15625 109.773438 L 57.4375 108.664062 L 57.734375 107.554688 L 58.046875 106.449219 L 58.371094 105.347656 L 58.707031 104.246094 L 59.0625 103.148438 L 59.429688 102.054688 L 59.808594 100.960938 L 60.203125 99.871094 L 60.515625 99.050781 L 60.832031 98.234375 L 61.199219 97.265625 L 61.574219 96.296875 L 61.960938 95.335938 L 62.363281 94.375 L 62.769531 93.417969 L 63.191406 92.464844 L 63.625 91.511719 L 64.109375 90.472656 L 64.609375 89.441406 L 65.121094 88.410156 L 65.644531 87.382812 L 66.183594 86.363281 L 66.734375 85.347656 L 67.300781 84.335938 L 67.878906 83.332031 L 68.46875 82.332031 L 69.183594 81.351562 L 69.914062 80.382812 L 70.65625 79.421875 L 71.410156 78.46875 L 72.175781 77.527344 L 72.957031 76.59375 L 73.746094 75.667969 L 74.550781 74.75 L 75.363281 73.84375 L 76.191406 72.945312 L 77.035156 72.0625 L 77.894531 71.191406 L 78.761719 70.332031 L 79.640625 69.480469 L 80.53125 68.640625 L 81.433594 67.8125 L 82.347656 66.992188 L 83.269531 66.183594 L 84.203125 65.386719 L 85.148438 64.601562 L 86.101562 63.828125 L 87.066406 63.066406 L 87.878906 62.351562 L 88.703125 61.640625 L 89.53125 60.941406 L 90.371094 60.25 L 91.078125 59.679688 L 91.792969 59.117188 L 92.578125 58.496094 L 93.375 57.882812 L 94.046875 57.328125 L 94.726562 56.777344 L 95.410156 56.234375 L 96.355469 55.46875 L 97.3125 54.710938 L 98.277344 53.964844 L 99.257812 53.226562 L 100.246094 52.5 L 101.246094 51.785156 L 102.332031 51.117188 L 103.429688 50.457031 L 104.535156 49.8125 L 105.652344 49.179688 L 106.777344 48.5625 L 107.914062 47.957031 L 108.902344 47.4375 L 109.898438 46.929688 L 110.898438 46.429688 L 111.910156 45.941406 L 112.925781 45.464844 L 114.046875 44.980469 L 115.175781 44.507812 L 116.308594 44.046875 L 117.449219 43.601562 L 118.597656 43.167969 L 119.753906 42.746094 L 120.914062 42.339844 L 122.082031 41.945312 L 123.253906 41.566406 L 124.492188 41.242188 L 125.734375 40.933594 L 126.980469 40.644531 L 128.230469 40.367188 L 129.488281 40.101562 L 130.746094 39.855469 L 132.011719 39.625 L 133.277344 39.40625 L 134.546875 39.207031 L 135.820312 39.019531 L 137.097656 38.851562 L 137.796875 38.78125 "/>
<path style="fill:none;stroke-width:0.75;stroke-linecap:round;stroke-linejoin:round;stroke:rgb(0%,0%,0%);stroke-opacity:1;stroke-miterlimit:10;" d="M 144 73.199219 L 144 25.199219 L 145.488281 25.210938 L 146.976562 25.238281 L 148.464844 25.285156 L 149.949219 25.347656 L 151.4375 25.433594 L 152.921875 25.535156 L 154.402344 25.65625 L 155.886719 25.796875 L 157.367188 25.953125 L 158.84375 26.132812 L 160.320312 26.324219 L 161.792969 26.539062 L 163.261719 26.773438 L 164.726562 27.023438 L 166.191406 27.292969 L 167.652344 27.578125 L 169.109375 27.882812 L 170.5625 28.207031 L 172.007812 28.550781 L 173.453125 28.910156 L 174.894531 29.285156 L 176.328125 29.683594 L 177.757812 30.097656 L 179.179688 30.527344 L 180.601562 30.976562 L 182.011719 31.445312 L 183.417969 31.929688 L 184.820312 32.433594 L 186.214844 32.953125 L 187.601562 33.492188 L 188.984375 34.046875 L 190.355469 34.617188 L 191.722656 35.207031 L 193.082031 35.8125 L 194.433594 36.4375 L 195.777344 37.078125 L 197.113281 37.734375 L 198.441406 38.40625 L 199.757812 39.097656 L 201.066406 39.804688 L 202.367188 40.527344 L 203.660156 41.265625 L 204.941406 42.023438 L 206.214844 42.792969 L 207.476562 43.582031 L 208.730469 44.382812 L 209.972656 45.203125 L 211.207031 46.035156 L 212.429688 46.886719 L 213.640625 47.75 L 214.839844 48.632812 L 216.027344 49.527344 L 217.207031 50.4375 L 218.371094 51.359375 L 219.527344 52.300781 L 220.671875 53.253906 L 221.800781 54.21875 L 222.917969 55.203125 L 224.027344 56.195312 L 225.121094 57.207031 L 226.199219 58.230469 L 227.269531 59.265625 L 228.324219 60.316406 L 229.363281 61.378906 L 230.394531 62.453125 L 231.40625 63.542969 L 232.410156 64.644531 L 233.394531 65.757812 L 234.367188 66.882812 L 235.328125 68.023438 L 236.273438 69.171875 L 237.203125 70.332031 L 238.117188 71.507812 L 239.019531 72.691406 L 239.90625 73.886719 L 240.773438 75.09375 L 241.628906 76.3125 L 242.472656 77.539062 L 243.296875 78.777344 L 244.105469 80.027344 L 244.898438 81.285156 L 245.675781 82.554688 L 246.4375 83.835938 L 247.183594 85.121094 L 247.914062 86.417969 L 248.625 87.726562 L 249.324219 89.039062 L 250.003906 90.363281 L 250.667969 91.695312 L 251.3125 93.035156 L 251.941406 94.382812 L 252.554688 95.742188 L 253.152344 97.105469 L 253.730469 98.476562 L 254.292969 99.855469 L 254.835938 101.238281 L 255.363281 102.628906 L 255.875 104.027344 L 256.367188 105.433594 L 256.839844 106.84375 L 257.296875 108.261719 L 257.734375 109.683594 L 258.15625 111.109375 L 258.558594 112.542969 L 258.945312 113.980469 L 259.3125 115.421875 L 259.660156 116.867188 L 259.992188 118.320312 L 260.304688 119.773438 L 260.597656 121.234375 L 260.875 122.695312 L 261.132812 124.160156 L 261.371094 125.628906 L 261.59375 127.101562 L 261.792969 128.578125 L 261.976562 130.054688 L 262.144531 131.53125 L 262.289062 133.011719 L 262.417969 134.496094 L 262.527344 135.980469 L 262.621094 137.464844 L 262.691406 138.953125 L 262.746094 140.4375 L 262.78125 141.925781 L 259.78125 141.980469 L 258.28125 142.003906 L 255.28125 142.058594 L 253.785156 142.082031 L 249.285156 142.164062 L 247.785156 142.1875 L 244.785156 142.242188 L 243.285156 142.265625 L 240.285156 142.320312 L 238.785156 142.34375 L 234.285156 142.425781 L 232.785156 142.449219 L 229.785156 142.503906 L 228.289062 142.527344 L 225.289062 142.582031 L 223.789062 142.605469 L 219.289062 142.6875 L 217.789062 142.710938 L 214.789062 142.765625 L 214.769531 141.878906 L 214.734375 140.992188 L 214.691406 140.105469 L 214.636719 139.21875 L 214.574219 138.335938 L 214.496094 137.453125 L 214.410156 136.570312 L 214.308594 135.6875 L 214.199219 134.808594 L 214.082031 133.929688 L 213.949219 133.050781 L 213.804688 132.175781 L 213.652344 131.304688 L 213.488281 130.433594 L 213.3125 129.5625 L 213.125 128.695312 L 212.929688 127.832031 L 212.722656 126.96875 L 212.503906 126.109375 L 212.273438 125.253906 L 212.03125 124.398438 L 211.78125 123.546875 L 211.519531 122.699219 L 211.25 121.855469 L 210.964844 121.015625 L 210.671875 120.179688 L 210.367188 119.34375 L 210.054688 118.515625 L 209.730469 117.691406 L 209.394531 116.871094 L 209.050781 116.050781 L 208.695312 115.238281 L 208.328125 114.429688 L 207.953125 113.628906 L 207.570312 112.828125 L 207.171875 112.035156 L 206.769531 111.246094 L 206.351562 110.460938 L 205.929688 109.683594 L 205.492188 108.910156 L 205.046875 108.144531 L 204.59375 107.382812 L 204.132812 106.625 L 203.660156 105.875 L 203.175781 105.128906 L 202.683594 104.394531 L 202.183594 103.660156 L 201.675781 102.933594 L 201.15625 102.214844 L 200.628906 101.503906 L 200.089844 100.796875 L 199.542969 100.097656 L 198.992188 99.40625 L 198.425781 98.71875 L 197.855469 98.042969 L 197.277344 97.371094 L 196.6875 96.707031 L 196.089844 96.050781 L 195.488281 95.402344 L 194.875 94.761719 L 194.253906 94.128906 L 193.625 93.5 L 192.988281 92.882812 L 192.34375 92.273438 L 191.691406 91.671875 L 191.03125 91.078125 L 190.367188 90.496094 L 189.691406 89.917969 L 189.011719 89.351562 L 188.324219 88.789062 L 187.628906 88.238281 L 186.925781 87.699219 L 186.21875 87.164062 L 185.503906 86.640625 L 184.78125 86.125 L 184.050781 85.617188 L 183.316406 85.121094 L 182.578125 84.632812 L 181.832031 84.15625 L 181.078125 83.683594 L 180.320312 83.226562 L 179.554688 82.773438 L 178.785156 82.335938 L 178.011719 81.902344 L 177.230469 81.484375 L 176.445312 81.070312 L 175.652344 80.667969 L 174.855469 80.277344 L 174.058594 79.898438 L 173.25 79.523438 L 172.441406 79.164062 L 171.628906 78.8125 L 170.808594 78.472656 L 169.984375 78.140625 L 169.160156 77.820312 L 168.328125 77.511719 L 167.492188 77.210938 L 166.652344 76.921875 L 165.8125 76.644531 L 164.964844 76.375 L 164.117188 76.117188 L 163.265625 75.871094 L 162.410156 75.636719 L 161.554688 75.410156 L 160.691406 75.195312 L 159.828125 74.992188 L 158.964844 74.800781 L 158.097656 74.617188 L 157.226562 74.445312 L 156.351562 74.285156 L 155.480469 74.136719 L 154.601562 74 L 153.726562 73.871094 L 152.847656 73.753906 L 151.964844 73.648438 L 151.082031 73.554688 L 150.199219 73.472656 L 149.316406 73.398438 L 148.433594 73.339844 L 147.546875 73.289062 L 146.660156 73.25 L 145.773438 73.222656 L 144.886719 73.207031 L 144 73.199219 "/>
<path style=" stroke:none;fill-rule:nonzero;fill:rgb(80%,80%,80%);fill-opacity:1;" d="M 166.695312 54.664062 L 167.796875 54.609375 L 168.902344 54.570312 L 170.015625 54.542969 L 171.128906 54.53125 L 172.246094 54.53125 L 173.367188 54.546875 L 174.492188 54.578125 L 175.621094 54.621094 L 176.75 54.679688 L 177.882812 54.75 L 179.019531 54.835938 L 180.15625 54.9375 L 181.296875 55.050781 L 182.441406 55.179688 L 183.585938 55.324219 L 183.589844 55.324219 L 184.285156 55.421875 L 184.980469 55.527344 L 186.132812 55.738281 L 187.289062 55.96875 L 188.441406 56.210938 L 189.597656 56.46875 L 190.753906 56.742188 L 191.421875 56.9375 L 192.085938 57.140625 L 193.125 57.675781 L 194.164062 58.222656 L 195.191406 58.78125 L 196.214844 59.355469 L 197.230469 59.941406 L 198.242188 60.535156 L 199.246094 61.144531 L 200.242188 61.765625 L 201.230469 62.398438 L 202.214844 63.042969 L 203.191406 63.699219 L 204.050781 64.433594 L 204.90625 65.175781 L 205.75 65.929688 L 206.585938 66.6875 L 207.410156 67.457031 L 208.226562 68.238281 L 209.035156 69.023438 L 209.832031 69.820312 L 210.542969 70.691406 L 211.242188 71.570312 L 211.871094 72.554688 L 212.488281 73.546875 L 213.09375 74.542969 L 213.679688 75.542969 L 214.257812 76.546875 L 214.820312 77.554688 L 215.367188 78.566406 L 215.898438 79.585938 L 216.421875 80.605469 L 216.925781 81.628906 L 217.417969 82.65625 L 217.78125 83.136719 L 218.140625 83.617188 L 218.796875 84.425781 L 219.441406 85.238281 L 220.078125 86.058594 L 220.683594 86.773438 L 221.277344 87.488281 L 221.871094 88.214844 L 222.453125 88.941406 L 223.207031 89.808594 L 223.953125 90.6875 L 224.6875 91.574219 L 225.414062 92.472656 L 226.128906 93.378906 L 226.921875 94.304688 L 227.699219 95.238281 L 228.472656 96.183594 L 229.230469 97.140625 L 229.980469 98.109375 L 230.71875 99.089844 L 231.425781 100.097656 L 232.125 101.117188 L 232.808594 102.144531 L 233.484375 103.183594 L 234.144531 104.234375 L 234.796875 105.292969 L 235.433594 106.363281 L 236.058594 107.441406 L 236.667969 108.53125 L 237.269531 109.628906 L 237.855469 110.738281 L 238.425781 111.855469 L 238.984375 112.980469 L 239.53125 114.117188 L 240.0625 115.261719 L 240.582031 116.414062 L 241.003906 117.527344 L 241.414062 118.644531 L 241.808594 119.769531 L 242.191406 120.898438 L 242.5625 122.035156 L 242.917969 123.175781 L 243.261719 124.324219 L 243.59375 125.476562 L 243.789062 126.324219 L 243.980469 127.175781 L 244.234375 128.386719 L 244.46875 129.605469 L 244.691406 130.828125 L 244.921875 132.050781 L 245.140625 133.277344 L 245.34375 134.507812 L 245.53125 135.742188 L 245.703125 136.976562 L 245.859375 138.21875 L 244.523438 138.292969 L 243.183594 138.371094 L 240.511719 138.519531 L 239.175781 138.597656 L 239.359375 137.414062 L 239.527344 136.230469 L 239.683594 135.035156 L 239.824219 133.839844 L 239.945312 132.640625 L 240.054688 131.433594 L 240.015625 130.242188 L 239.957031 129.054688 L 239.882812 127.863281 L 239.765625 127.035156 L 239.644531 126.210938 L 239.324219 125.105469 L 238.992188 124.003906 L 238.648438 122.90625 L 238.289062 121.816406 L 237.921875 120.734375 L 237.539062 119.652344 L 237.144531 118.582031 L 236.734375 117.511719 L 236.234375 116.480469 L 235.722656 115.457031 L 235.199219 114.441406 L 234.664062 113.433594 L 234.117188 112.433594 L 233.558594 111.441406 L 232.992188 110.460938 L 232.414062 109.488281 L 231.824219 108.523438 L 231.222656 107.570312 L 230.613281 106.625 L 229.992188 105.6875 L 229.363281 104.761719 L 228.722656 103.84375 L 228.074219 102.933594 L 227.414062 102.035156 L 226.746094 101.148438 L 226.066406 100.199219 L 225.371094 99.261719 L 224.671875 98.335938 L 223.957031 97.417969 L 223.234375 96.511719 L 222.5 95.617188 L 221.835938 94.738281 L 221.160156 93.867188 L 220.476562 93.007812 L 219.78125 92.152344 L 219.078125 91.3125 L 218.5625 90.582031 L 218.035156 89.859375 L 217.503906 89.144531 L 216.964844 88.429688 L 216.328125 87.664062 L 215.679688 86.90625 L 215.023438 86.15625 L 214.652344 85.714844 L 214.277344 85.277344 L 213.785156 84.3125 L 213.28125 83.351562 L 212.765625 82.394531 L 212.234375 81.441406 L 211.691406 80.492188 L 211.132812 79.546875 L 210.566406 78.605469 L 209.984375 77.667969 L 209.386719 76.734375 L 208.78125 75.808594 L 208.160156 74.886719 L 207.472656 74.074219 L 206.773438 73.269531 L 206.046875 72.472656 L 205.308594 71.679688 L 204.5625 70.898438 L 203.804688 70.121094 L 203.039062 69.355469 L 202.265625 68.59375 L 201.480469 67.84375 L 200.683594 67.101562 L 199.765625 66.449219 L 198.84375 65.804688 L 197.910156 65.175781 L 196.972656 64.554688 L 196.027344 63.945312 L 195.074219 63.347656 L 194.113281 62.761719 L 193.148438 62.1875 L 192.171875 61.625 L 191.195312 61.070312 L 190.207031 60.53125 L 189.578125 60.320312 L 188.949219 60.113281 L 187.839844 59.847656 L 186.730469 59.597656 L 185.621094 59.359375 L 184.511719 59.140625 L 183.402344 58.933594 L 182.71875 58.863281 L 182.035156 58.800781 L 182.03125 58.800781 L 180.875 58.960938 L 179.726562 59.136719 L 178.585938 59.328125 L 177.453125 59.53125 L 176.328125 59.75 L 175.210938 59.984375 L 174.105469 60.230469 L 173.007812 60.492188 L 171.917969 60.769531 L 170.835938 61.058594 L 169.765625 61.359375 L 168.707031 61.675781 L 167.652344 62.007812 L 166.613281 62.347656 L 165.582031 62.703125 L 164.558594 63.070312 Z M 166.695312 54.664062 "/>
<path style="fill:none;stroke-width:0.75;stroke-linecap:round;stroke-linejoin:round;stroke:rgb(0%,0%,0%);stroke-opacity:1;stroke-miterlimit:10;" d="M 167.441406 57.035156 C 167.441406 58.835938 164.742188 58.835938 164.742188 57.035156 C 164.742188 55.234375 167.441406 55.234375 167.441406 57.035156 "/>
<path style="fill:none;stroke-width:0.75;stroke-linecap:round;stroke-linejoin:round;stroke:rgb(0%,0%,0%);stroke-opacity:1;stroke-miterlimit:10;" d="M 183.75 57.980469 C 183.75 59.78125 181.050781 59.78125 181.050781 57.980469 C 181.050781 56.183594 183.75 56.183594 183.75 57.980469 "/>
<path style="fill:none;stroke-width:0.75;stroke-linecap:round;stroke-linejoin:round;stroke:rgb(0%,0%,0%);stroke-opacity:1;stroke-miterlimit:10;" d="M 182.453125 60.886719 C 182.453125 62.6875 179.753906 62.6875 179.753906 60.886719 C 179.753906 59.085938 182.453125 59.085938 182.453125 60.886719 "/>
<path style="fill:none;stroke-width:0.75;stroke-linecap:round;stroke-linejoin:round;stroke:rgb(0%,0%,0%);stroke-opacity:1;stroke-miterlimit:10;" d="M 184.273438 59.964844 C 184.273438 61.765625 181.574219 61.765625 181.574219 59.964844 C 181.574219 58.167969 184.273438 58.167969 184.273438 59.964844 "/>
<path style="fill:none;stroke-width:0.75;stroke-linecap:round;stroke-linejoin:round;stroke:rgb(0%,0%,0%);stroke-opacity:1;stroke-miterlimit:10;" d="M 192.078125 56.789062 C 192.078125 58.589844 189.378906 58.589844 189.378906 56.789062 C 189.378906 54.988281 192.078125 54.988281 192.078125 56.789062 "/>
<path style="fill:none;stroke-width:0.75;stroke-linecap:round;stroke-linejoin:round;stroke:rgb(0%,0%,0%);stroke-opacity:1;stroke-miterlimit:10;" d="M 194.539062 55.148438 C 194.539062 56.949219 191.839844 56.949219 191.839844 55.148438 C 191.839844 53.347656 194.539062 53.347656 194.539062 55.148438 "/>
<path style="fill:none;stroke-width:0.75;stroke-linecap:round;stroke-linejoin:round;stroke:rgb(0%,0%,0%);stroke-opacity:1;stroke-miterlimit:10;" d="M 203.808594 64.691406 C 203.808594 66.492188 201.109375 66.492188 201.109375 64.691406 C 201.109375 62.890625 203.808594 62.890625 203.808594 64.691406 "/>
<path style="fill:none;stroke-width:0.75;stroke-linecap:round;stroke-linejoin:round;stroke:rgb(0%,0%,0%);stroke-opacity:1;stroke-miterlimit:10;" d="M 211.980469 68.921875 C 211.980469 70.71875 209.28125 70.71875 209.28125 68.921875 C 209.28125 67.121094 211.980469 67.121094 211.980469 68.921875 "/>
<path style="fill:none;stroke-width:0.75;stroke-linecap:round;stroke-linejoin:round;stroke:rgb(0%,0%,0%);stroke-opacity:1;stroke-miterlimit:10;" d="M 212.007812 72.199219 C 212.007812 74 209.308594 74 209.308594 72.199219 C 209.308594 70.398438 212.007812 70.398438 212.007812 72.199219 "/>
<path style="fill:none;stroke-width:0.75;stroke-linecap:round;stroke-linejoin:round;stroke:rgb(0%,0%,0%);stroke-opacity:1;stroke-miterlimit:10;" d="M 211.941406 88.359375 C 211.941406 90.160156 209.238281 90.160156 209.238281 88.359375 C 209.238281 86.558594 211.941406 86.558594 211.941406 88.359375 "/>
<path style="fill:none;stroke-width:0.75;stroke-linecap:round;stroke-linejoin:round;stroke:rgb(0%,0%,0%);stroke-opacity:1;stroke-miterlimit:10;" d="M 216.3125 86.207031 C 216.3125 88.007812 213.609375 88.007812 213.609375 86.207031 C 213.609375 84.40625 216.3125 84.40625 216.3125 86.207031 "/>
<path style="fill:none;stroke-width:0.75;stroke-linecap:round;stroke-linejoin:round;stroke:rgb(0%,0%,0%);stroke-opacity:1;stroke-miterlimit:10;" d="M 218.703125 88.136719 C 218.703125 89.9375 216 89.9375 216 88.136719 C 216 86.335938 218.703125 86.335938 218.703125 88.136719 "/>
<path style="fill:none;stroke-width:0.75;stroke-linecap:round;stroke-linejoin:round;stroke:rgb(0%,0%,0%);stroke-opacity:1;stroke-miterlimit:10;" d="M 226.308594 87.183594 C 226.308594 88.984375 223.609375 88.984375 223.609375 87.183594 C 223.609375 85.386719 226.308594 85.386719 226.308594 87.183594 "/>
<path style="fill:none;stroke-width:0.75;stroke-linecap:round;stroke-linejoin:round;stroke:rgb(0%,0%,0%);stroke-opacity:1;stroke-miterlimit:10;" d="M 226.167969 94.1875 C 226.167969 95.988281 223.46875 95.988281 223.46875 94.1875 C 223.46875 92.390625 226.167969 92.390625 226.167969 94.1875 "/>
<path style="fill:none;stroke-width:0.75;stroke-linecap:round;stroke-linejoin:round;stroke:rgb(0%,0%,0%);stroke-opacity:1;stroke-miterlimit:10;" d="M 232.511719 98.859375 C 232.511719 100.660156 229.8125 100.660156 229.8125 98.859375 C 229.8125 97.058594 232.511719 97.058594 232.511719 98.859375 "/>
<path style="fill:none;stroke-width:0.75;stroke-linecap:round;stroke-linejoin:round;stroke:rgb(0%,0%,0%);stroke-opacity:1;stroke-miterlimit:10;" d="M 237.410156 117.707031 C 237.410156 119.507812 234.710938 119.507812 234.710938 117.707031 C 234.710938 115.90625 237.410156 115.90625 237.410156 117.707031 "/>
<path style="fill:none;stroke-width:0.75;stroke-linecap:round;stroke-linejoin:round;stroke:rgb(0%,0%,0%);stroke-opacity:1;stroke-miterlimit:10;" d="M 251.570312 124.242188 C 251.570312 126.042969 248.871094 126.042969 248.871094 124.242188 C 248.871094 122.441406 251.570312 122.441406 251.570312 124.242188 "/>
<path style="fill:none;stroke-width:0.75;stroke-linecap:round;stroke-linejoin:round;stroke:rgb(0%,0%,0%);stroke-opacity:1;stroke-miterlimit:10;" d="M 242.65625 127.625 C 242.65625 129.425781 239.957031 129.425781 239.957031 127.625 C 239.957031 125.824219 242.65625 125.824219 242.65625 127.625 "/>
<path style="fill:none;stroke-width:0.75;stroke-linecap:round;stroke-linejoin:round;stroke:rgb(0%,0%,0%);stroke-opacity:1;stroke-miterlimit:10;" d="M 249.855469 130.328125 C 249.855469 132.128906 247.152344 132.128906 247.152344 130.328125 C 247.152344 128.527344 249.855469 128.527344 249.855469 130.328125 "/>
<path style="fill:none;stroke-width:0.75;stroke-linecap:round;stroke-linejoin:round;stroke:rgb(0%,0%,0%);stroke-opacity:1;stroke-miterlimit:10;" d="M 235.40625 138.886719 C 235.40625 140.6875 232.707031 140.6875 232.707031 138.886719 C 232.707031 137.085938 235.40625 137.085938 235.40625 138.886719 "/>
<path style="fill:none;stroke-width:0.75;stroke-linecap:round;stroke-linejoin:round;stroke:rgb(0%,0%,0%);stroke-opacity:1;stroke-miterlimit:10;" d="M 165.628906 58.867188 L 166.722656 58.644531 L 167.828125 58.4375 L 168.9375 58.242188 L 170.058594 58.0625 L 171.183594 57.894531 L 172.316406 57.746094 L 173.457031 57.609375 L 174.605469 57.488281 L 175.757812 57.378906 L 176.917969 57.289062 L 178.085938 57.210938 L 179.257812 57.152344 L 180.4375 57.105469 L 181.621094 57.078125 L 182.808594 57.0625 L 182.8125 57.0625 L 183.5 57.144531 L 184.191406 57.230469 L 185.320312 57.441406 L 186.453125 57.664062 L 187.585938 57.902344 L 188.71875 58.160156 L 189.851562 58.425781 L 190.5 58.628906 L 191.148438 58.835938 L 192.160156 59.375 L 193.167969 59.921875 L 194.167969 60.484375 L 195.164062 61.058594 L 196.152344 61.644531 L 197.132812 62.242188 L 198.109375 62.847656 L 199.078125 63.46875 L 200.039062 64.101562 L 200.992188 64.746094 L 201.9375 65.398438 L 202.765625 66.140625 L 203.585938 66.886719 L 204.394531 67.640625 L 205.195312 68.40625 L 205.988281 69.179688 L 206.769531 69.957031 L 207.539062 70.746094 L 208.304688 71.542969 L 209.007812 72.382812 L 209.699219 73.226562 L 210.328125 74.183594 L 210.9375 75.140625 L 211.539062 76.105469 L 212.121094 77.074219 L 212.695312 78.046875 L 213.253906 79.023438 L 213.800781 80.003906 L 214.332031 80.988281 L 214.851562 81.976562 L 215.355469 82.972656 L 215.847656 83.964844 L 216.21875 84.425781 L 216.582031 84.886719 L 217.238281 85.664062 L 217.882812 86.453125 L 218.523438 87.246094 L 219.09375 87.957031 L 219.65625 88.675781 L 220.214844 89.398438 L 220.765625 90.128906 L 221.496094 90.980469 L 222.214844 91.847656 L 222.925781 92.722656 L 223.625 93.605469 L 224.316406 94.5 L 225.078125 95.40625 L 225.828125 96.328125 L 226.570312 97.257812 L 227.300781 98.203125 L 228.023438 99.15625 L 228.730469 100.121094 L 229.398438 101.039062 L 230.058594 101.964844 L 230.707031 102.902344 L 231.34375 103.847656 L 231.972656 104.804688 L 232.589844 105.769531 L 233.199219 106.746094 L 233.792969 107.726562 L 234.378906 108.71875 L 234.953125 109.722656 L 235.519531 110.730469 L 236.070312 111.75 L 236.609375 112.777344 L 237.140625 113.8125 L 237.660156 114.855469 L 238.164062 115.90625 L 238.660156 116.964844 L 239.074219 118.054688 L 239.476562 119.148438 L 239.863281 120.25 L 240.242188 121.359375 L 240.605469 122.472656 L 240.957031 123.589844 L 241.292969 124.714844 L 241.617188 125.84375 L 241.777344 126.679688 L 241.933594 127.519531 L 242.09375 128.722656 L 242.242188 129.925781 L 242.375 131.128906 L 242.433594 132.34375 L 242.480469 133.558594 L 242.511719 134.773438 L 242.527344 135.984375 L 242.53125 137.195312 L 242.515625 138.40625 "/>
</g>
</svg>
