<?xml version="1.0" encoding="UTF-8"?>
<svg xmlns="http://www.w3.org/2000/svg" xmlns:xlink="http://www.w3.org/1999/xlink" width="576pt" height="144pt" viewBox="0 0 576 144" version="1.1">
<g id="surface34">
<rect x="0" y="0" width="576" height="144" style="fill:rgb(100%,100%,100%);fill-opacity:1;stroke:none;"/>
<path style="fill:none;stroke-width:0.75;stroke-linecap:round;stroke-linejoin:round;stroke:rgb(0%,0%,0%);stroke-opacity:1;stroke-miterlimit:10;" d="M 24 112 L 264 32 "/>
<path style=" stroke:none;fill-rule:nonzero;fill:rgb(0%,0%,0%);fill-opacity:1;" d="M 26.699219 112 C 26.699219 115.601562 21.300781 115.601562 21.300781 112 C 21.300781 108.398438 26.699219 108.398438 26.699219 112 "/>
<path style=" stroke:none;fill-rule:nonzero;fill:rgb(0%,0%,0%);fill-opacity:1;" d="M 39.332031 107.789062 C 39.332031 111.390625 33.929688 111.390625 33.929688 107.789062 C 33.929688 104.191406 39.332031 104.191406 39.332031 107.789062 "/>
<path style=" stroke:none;fill-rule:nonzero;fill:rgb(0%,0%,0%);fill-opacity:1;" d="M 51.964844 103.578125 C 51.964844 107.179688 46.5625 107.179688 46.5625 103.578125 C 46.5625 99.980469 51.964844 99.980469 51.964844 103.578125 "/>
<path style=" stroke:none;fill-rule:nonzero;fill:rgb(0%,0%,0%);fill-opacity:1;" d="M 64.59375 99.367188 C 64.59375 102.96875 59.195312 102.96875 59.195312 99.367188 C 59.195312 95.769531 64.59375 95.769531 64.59375 99.367188 "/>
<path style=" stroke:none;fill-rule:nonzero;fill:rgb(0%,0%,0%);fill-opacity:1;" d="M 77.226562 95.15625 C 77.226562 98.757812 71.828125 98.757812 71.828125 95.15625 C 71.828125 91.558594 77.226562 91.558594 77.226562 95.15625 "/>
<path style=" stroke:none;fill-rule:nonzero;fill:rgb(0%,0%,0%);fill-opacity:1;" d="M 89.859375 90.949219 C 89.859375 94.546875 84.457031 94.546875 84.457031 90.949219 C 84.457031 87.347656 89.859375 87.347656 89.859375 90.949219 "/>
<path style=" stroke:none;fill-rule:nonzero;fill:rgb(0%,0%,0%);fill-opacity:1;" d="M 102.488281 86.738281 C 102.488281 90.335938 97.089844 90.335938 97.089844 86.738281 C 97.089844 83.136719 102.488281 83.136719 102.488281 86.738281 "/>
<path style=" stroke:none;fill-rule:nonzero;fill:rgb(0%,0%,0%);fill-opacity:1;" d="M 115.121094 82.527344 C 115.121094 86.125 109.722656 86.125 109.722656 82.527344 C 109.722656 78.925781 115.121094 78.925781 115.121094 82.527344 "/>
<path style=" stroke:none;fill-rule:nonzero;fill:rgb(0%,0%,0%);fill-opacity:1;" d="M 127.753906 78.316406 C 127.753906 81.914062 122.351562 81.914062 122.351562 78.316406 C 122.351562 74.714844 127.753906 74.714844 127.753906 78.316406 "/>
<path style=" stroke:none;fill-rule:nonzero;fill:rgb(0%,0%,0%);fill-opacity:1;" d="M 140.382812 74.105469 C 140.382812 77.707031 134.984375 77.707031 134.984375 74.105469 C 134.984375 70.503906 140.382812 70.503906 140.382812 74.105469 "/>
<path style=" stroke:none;fill-rule:nonzero;fill:rgb(0%,0%,0%);fill-opacity:1;" d="M 153.015625 69.894531 C 153.015625 73.496094 147.617188 73.496094 147.617188 69.894531 C 147.617188 66.292969 153.015625 66.292969 153.015625 69.894531 "/>
<path style=" stroke:none;fill-rule:nonzero;fill:rgb(0%,0%,0%);fill-opacity:1;" d="M 165.648438 65.683594 C 165.648438 69.285156 160.246094 69.285156 160.246094 65.683594 C 160.246094 62.085938 165.648438 62.085938 165.648438 65.683594 "/>
<path style=" stroke:none;fill-rule:nonzero;fill:rgb(0%,0%,0%);fill-opacity:1;" d="M 178.277344 61.472656 C 178.277344 65.074219 172.878906 65.074219 172.878906 61.472656 C 172.878906 57.875 178.277344 57.875 178.277344 61.472656 "/>
<path style=" stroke:none;fill-rule:nonzero;fill:rgb(0%,0%,0%);fill-opacity:1;" d="M 190.910156 57.261719 C 190.910156 60.863281 185.511719 60.863281 185.511719 57.261719 C 185.511719 53.664062 190.910156 53.664062 190.910156 57.261719 "/>
<path style=" stroke:none;fill-rule:nonzero;fill:rgb(0%,0%,0%);fill-opacity:1;" d="M 203.542969 53.050781 C 203.542969 56.652344 198.140625 56.652344 198.140625 53.050781 C 198.140625 49.453125 203.542969 49.453125 203.542969 53.050781 "/>
<path style=" stroke:none;fill-rule:nonzero;fill:rgb(0%,0%,0%);fill-opacity:1;" d="M 216.171875 48.84375 C 216.171875 52.441406 210.773438 52.441406 210.773438 48.84375 C 210.773438 45.242188 216.171875 45.242188 216.171875 48.84375 "/>
<path style=" stroke:none;fill-rule:nonzero;fill:rgb(0%,0%,0%);fill-opacity:1;" d="M 228.804688 44.632812 C 228.804688 48.230469 223.40625 48.230469 223.40625 44.632812 C 223.40625 41.03125 228.804688 41.03125 228.804688 44.632812 "/>
<path style=" stroke:none;fill-rule:nonzero;fill:rgb(0%,0%,0%);fill-opacity:1;" d="M 241.4375 40.421875 C 241.4375 44.019531 236.035156 44.019531 236.035156 40.421875 C 236.035156 36.820312 241.4375 36.820312 241.4375 40.421875 "/>
<path style=" stroke:none;fill-rule:nonzero;fill:rgb(0%,0%,0%);fill-opacity:1;" d="M 254.070312 36.210938 C 254.070312 39.808594 248.667969 39.808594 248.667969 36.210938 C 248.667969 32.609375 254.070312 32.609375 254.070312 36.210938 "/>
<path style=" stroke:none;fill-rule:nonzero;fill:rgb(0%,0%,0%);fill-opacity:1;" d="M 266.699219 32 C 266.699219 35.601562 261.300781 35.601562 261.300781 32 C 261.300781 28.398438 266.699219 28.398438 266.699219 32 "/>
<path style="fill:none;stroke-width:0.75;stroke-linecap:round;stroke-linejoin:round;stroke:rgb(0%,0%,0%);stroke-opacity:1;stroke-miterlimit:10;" d="M 14.398438 115.199219 L 273.601562 115.199219 L 273.601562 28.800781 L 14.398438 28.800781 L 14.398438 115.199219 "/>
<path style="fill:none;stroke-width:0.75;stroke-linecap:round;stroke-linejoin:round;stroke:rgb(0%,0%,0%);stroke-opacity:1;stroke-miterlimit:10;" d="M 361.199219 139.199219 L 313.199219 139.199219 L 313.210938 137.707031 L 313.238281 136.214844 L 313.285156 134.722656 L 313.351562 133.230469 L 313.433594 131.742188 L 313.539062 130.25 L 313.660156 128.761719 L 313.800781 127.277344 L 313.957031 125.792969 L 314.136719 124.308594 L 314.332031 122.832031 L 314.546875 121.351562 L 314.78125 119.878906 L 315.035156 118.40625 L 315.304688 116.9375 L 315.59375 115.472656 L 315.902344 114.011719 L 316.226562 112.554688 L 316.570312 111.105469 L 316.933594 109.65625 L 317.3125 108.210938 L 317.710938 106.773438 L 318.128906 105.339844 L 318.5625 103.910156 L 319.015625 102.488281 L 319.484375 101.070312 L 319.972656 99.660156 L 320.476562 98.257812 L 321 96.859375 L 321.542969 95.46875 L 322.101562 94.082031 L 322.675781 92.703125 L 323.269531 91.335938 L 323.878906 89.972656 L 324.507812 88.617188 L 325.152344 87.269531 L 325.8125 85.933594 L 326.488281 84.601562 L 327.183594 83.28125 L 327.894531 81.96875 L 328.621094 80.664062 L 329.367188 79.371094 L 330.125 78.085938 L 330.902344 76.808594 L 331.695312 75.542969 L 332.5 74.289062 L 333.324219 73.042969 L 334.164062 71.808594 L 335.019531 70.585938 L 335.890625 69.371094 L 336.773438 68.167969 L 337.675781 66.976562 L 338.589844 65.796875 L 339.519531 64.628906 L 340.464844 63.472656 L 341.421875 62.328125 L 342.394531 61.199219 L 343.382812 60.078125 L 344.382812 58.96875 L 345.398438 57.875 L 346.425781 56.792969 L 347.46875 55.726562 L 348.523438 54.667969 L 349.59375 53.628906 L 350.675781 52.597656 L 351.769531 51.582031 L 352.878906 50.582031 L 353.996094 49.59375 L 355.128906 48.621094 L 356.273438 47.664062 L 357.429688 46.71875 L 358.597656 45.789062 L 359.777344 44.875 L 360.96875 43.972656 L 362.171875 43.089844 L 363.382812 42.21875 L 364.609375 41.363281 L 365.84375 40.523438 L 367.089844 39.703125 L 368.34375 38.894531 L 369.609375 38.101562 L 370.882812 37.324219 L 372.167969 36.566406 L 373.464844 35.820312 L 374.769531 35.09375 L 376.082031 34.382812 L 377.402344 33.6875 L 378.730469 33.011719 L 380.070312 32.351562 L 381.417969 31.707031 L 382.773438 31.078125 L 384.132812 30.46875 L 385.503906 29.875 L 386.882812 29.300781 L 388.265625 28.742188 L 389.660156 28.203125 L 391.054688 27.679688 L 392.460938 27.171875 L 393.871094 26.683594 L 395.289062 26.214844 L 396.710938 25.761719 L 398.140625 25.328125 L 399.574219 24.910156 L 401.011719 24.511719 L 402.457031 24.132812 L 403.902344 23.769531 L 405.355469 23.425781 L 406.8125 23.101562 L 408.273438 22.792969 L 409.738281 22.503906 L 411.207031 22.234375 L 412.679688 21.980469 L 414.152344 21.75 L 415.628906 21.53125 L 417.109375 21.335938 L 418.59375 21.160156 L 420.078125 21 L 421.5625 20.859375 L 423.050781 20.738281 L 424.539062 20.632812 L 426.03125 20.550781 L 427.523438 20.484375 L 429.015625 20.4375 L 430.507812 20.410156 L 432 20.398438 L 433.492188 20.410156 L 434.984375 20.4375 L 436.476562 20.484375 L 437.96875 20.550781 L 439.460938 20.632812 L 440.949219 20.738281 L 442.4375 20.859375 L 443.921875 21 L 445.40625 21.160156 L 446.890625 21.335938 L 448.371094 21.53125 L 449.847656 21.75 L 451.320312 21.980469 L 452.792969 22.234375 L 454.261719 22.503906 L 455.726562 22.792969 L 457.1875 23.101562 L 458.644531 23.425781 L 460.097656 23.769531 L 461.542969 24.132812 L 462.988281 24.511719 L 464.425781 24.910156 L 465.859375 25.328125 L 467.289062 25.761719 L 468.710938 26.214844 L 470.128906 26.683594 L 471.539062 27.171875 L 472.945312 27.679688 L 474.339844 28.203125 L 475.734375 28.742188 L 477.117188 29.300781 L 478.496094 29.875 L 479.867188 30.46875 L 481.226562 31.078125 L 482.582031 31.707031 L 483.929688 32.351562 L 485.269531 33.011719 L 486.597656 33.6875 L 487.917969 34.382812 L 489.230469 35.09375 L 490.535156 35.820312 L 491.832031 36.566406 L 493.117188 37.324219 L 494.390625 38.101562 L 495.65625 38.894531 L 496.910156 39.703125 L 498.15625 40.523438 L 499.390625 41.363281 L 500.617188 42.21875 L 501.828125 43.089844 L 503.03125 43.972656 L 504.222656 44.875 L 505.402344 45.789062 L 506.570312 46.71875 L 507.726562 47.664062 L 508.871094 48.621094 L 510.003906 49.59375 L 511.121094 50.582031 L 512.230469 51.582031 L 513.324219 52.597656 L 514.40625 53.628906 L 515.476562 54.667969 L 516.53125 55.726562 L 517.574219 56.792969 L 518.601562 57.875 L 519.617188 58.96875 L 520.617188 60.078125 L 521.605469 61.199219 L 522.578125 62.328125 L 523.535156 63.472656 L 524.480469 64.628906 L 525.410156 65.796875 L 526.324219 66.976562 L 527.226562 68.167969 L 528.109375 69.371094 L 528.980469 70.585938 L 529.835938 71.808594 L 530.675781 73.042969 L 531.5 74.289062 L 532.304688 75.542969 L 533.097656 76.808594 L 533.875 78.085938 L 534.632812 79.371094 L 535.378906 80.664062 L 536.105469 81.96875 L 536.816406 83.28125 L 537.511719 84.601562 L 538.1875 85.933594 L 538.847656 87.269531 L 539.492188 88.617188 L 540.121094 89.972656 L 540.730469 91.335938 L 541.324219 92.703125 L 541.898438 94.082031 L 542.457031 95.46875 L 543 96.859375 L 543.523438 98.257812 L 544.027344 99.660156 L 544.515625 101.070312 L 544.984375 102.488281 L 545.4375 103.910156 L 545.871094 105.339844 L 546.289062 106.773438 L 546.6875 108.210938 L 547.066406 109.65625 L 547.429688 111.105469 L 547.773438 112.554688 L 548.097656 114.011719 L 548.40625 115.472656 L 548.695312 116.9375 L 548.964844 118.40625 L 549.21875 119.878906 L 549.453125 121.351562 L 549.667969 122.832031 L 549.863281 124.308594 L 550.042969 125.792969 L 550.199219 127.277344 L 550.339844 128.761719 L 550.460938 130.25 L 550.566406 131.742188 L 550.648438 133.230469 L 550.714844 134.722656 L 550.761719 136.214844 L 550.789062 137.707031 L 550.800781 139.199219 L 502.800781 139.199219 L 502.792969 138.308594 L 502.777344 137.421875 L 502.75 136.53125 L 502.710938 135.644531 L 502.660156 134.753906 L 502.597656 133.867188 L 502.527344 132.980469 L 502.441406 132.09375 L 502.347656 131.210938 L 502.242188 130.328125 L 502.125 129.445312 L 501.996094 128.5625 L 501.855469 127.683594 L 501.707031 126.808594 L 501.546875 125.933594 L 501.375 125.058594 L 501.191406 124.191406 L 500.996094 123.320312 L 500.792969 122.457031 L 500.574219 121.59375 L 500.347656 120.730469 L 500.113281 119.875 L 499.863281 119.019531 L 499.605469 118.167969 L 499.335938 117.320312 L 499.054688 116.476562 L 498.765625 115.636719 L 498.460938 114.800781 L 498.152344 113.964844 L 497.828125 113.136719 L 497.496094 112.3125 L 497.152344 111.492188 L 496.800781 110.675781 L 496.433594 109.863281 L 496.0625 109.054688 L 495.679688 108.253906 L 495.285156 107.453125 L 494.878906 106.660156 L 494.464844 105.875 L 494.042969 105.09375 L 493.609375 104.316406 L 493.164062 103.542969 L 492.710938 102.777344 L 492.25 102.019531 L 491.777344 101.261719 L 491.296875 100.515625 L 490.804688 99.773438 L 490.304688 99.039062 L 489.796875 98.308594 L 489.277344 97.585938 L 488.75 96.867188 L 488.214844 96.160156 L 487.667969 95.457031 L 487.113281 94.757812 L 486.550781 94.070312 L 485.980469 93.386719 L 485.402344 92.714844 L 484.8125 92.046875 L 484.214844 91.386719 L 483.609375 90.734375 L 482.996094 90.089844 L 482.375 89.453125 L 481.746094 88.824219 L 481.109375 88.203125 L 480.464844 87.589844 L 479.8125 86.984375 L 479.152344 86.386719 L 478.484375 85.800781 L 477.8125 85.21875 L 477.128906 84.648438 L 476.441406 84.085938 L 475.746094 83.53125 L 475.042969 82.984375 L 474.332031 82.449219 L 473.613281 81.921875 L 472.890625 81.402344 L 472.164062 80.894531 L 471.425781 80.394531 L 470.683594 79.902344 L 469.9375 79.421875 L 469.183594 78.949219 L 468.421875 78.488281 L 467.65625 78.035156 L 466.886719 77.589844 L 466.109375 77.15625 L 465.324219 76.734375 L 464.539062 76.320312 L 463.746094 75.917969 L 462.949219 75.523438 L 462.144531 75.136719 L 461.335938 74.765625 L 460.527344 74.402344 L 459.710938 74.046875 L 458.886719 73.703125 L 458.0625 73.371094 L 457.234375 73.050781 L 456.402344 72.738281 L 455.5625 72.4375 L 454.722656 72.144531 L 453.878906 71.863281 L 453.03125 71.59375 L 452.179688 71.335938 L 451.324219 71.089844 L 450.46875 70.851562 L 449.605469 70.625 L 448.742188 70.410156 L 447.878906 70.203125 L 447.011719 70.007812 L 446.140625 69.828125 L 445.265625 69.652344 L 444.390625 69.492188 L 443.515625 69.34375 L 442.636719 69.203125 L 441.753906 69.074219 L 440.875 68.957031 L 439.988281 68.851562 L 439.105469 68.757812 L 438.21875 68.671875 L 437.332031 68.601562 L 436.445312 68.539062 L 435.558594 68.488281 L 434.667969 68.449219 L 433.777344 68.421875 L 432.890625 68.40625 L 432 68.398438 L 431.109375 68.40625 L 430.222656 68.421875 L 429.332031 68.449219 L 428.441406 68.488281 L 427.554688 68.539062 L 426.667969 68.601562 L 425.78125 68.671875 L 424.894531 68.757812 L 424.011719 68.851562 L 423.125 68.957031 L 422.246094 69.074219 L 421.363281 69.203125 L 420.484375 69.34375 L 419.609375 69.492188 L 418.734375 69.652344 L 417.859375 69.828125 L 416.988281 70.007812 L 416.121094 70.203125 L 415.257812 70.410156 L 414.394531 70.625 L 413.53125 70.851562 L 412.675781 71.089844 L 411.820312 71.335938 L 410.96875 71.59375 L 410.121094 71.863281 L 409.277344 72.144531 L 408.4375 72.4375 L 407.597656 72.738281 L 406.765625 73.050781 L 405.9375 73.371094 L 405.113281 73.703125 L 404.289062 74.046875 L 403.472656 74.402344 L 402.664062 74.765625 L 401.855469 75.136719 L 401.050781 75.523438 L 400.253906 75.917969 L 399.460938 76.320312 L 398.675781 76.734375 L 397.890625 77.15625 L 397.113281 77.589844 L 396.34375 78.035156 L 395.578125 78.488281 L 394.816406 78.949219 L 394.0625 79.421875 L 393.316406 79.902344 L 392.574219 80.394531 L 391.835938 80.894531 L 391.109375 81.402344 L 390.386719 81.921875 L 389.667969 82.449219 L 388.957031 82.984375 L 388.253906 83.53125 L 387.558594 84.085938 L 386.871094 84.648438 L 386.1875 85.21875 L 385.515625 85.800781 L 384.847656 86.386719 L 384.1875 86.984375 L 383.535156 87.589844 L 382.890625 88.203125 L 382.253906 88.824219 L 381.625 89.453125 L 381.003906 90.089844 L 380.390625 90.734375 L 379.785156 91.386719 L 379.1875 92.046875 L 378.597656 92.714844 L 378.019531 93.386719 L 377.449219 94.070312 L 376.886719 94.757812 L 376.332031 95.457031 L 375.785156 96.160156 L 375.25 96.867188 L 374.722656 97.585938 L 374.203125 98.308594 L 373.695312 99.039062 L 373.195312 99.773438 L 372.703125 100.515625 L 372.222656 101.261719 L 371.75 102.019531 L 371.289062 102.777344 L 370.835938 103.542969 L 370.390625 104.316406 L 369.957031 105.09375 L 369.535156 105.875 L 369.121094 106.660156 L 368.714844 107.453125 L 368.320312 108.253906 L 367.9375 109.054688 L 367.566406 109.863281 L 367.199219 110.675781 L 366.847656 111.492188 L 366.503906 112.3125 L 366.171875 113.136719 L 365.847656 113.964844 L 365.539062 114.800781 L 365.234375 115.636719 L 364.945312 116.476562 L 364.664062 117.320312 L 364.394531 118.167969 L 364.136719 119.019531 L 363.886719 119.875 L 363.652344 120.730469 L 363.425781 121.59375 L 363.207031 122.457031 L 363.003906 123.320312 L 362.808594 124.191406 L 362.625 125.058594 L 362.453125 125.933594 L 362.292969 126.808594 L 362.144531 127.683594 L 362.003906 128.5625 L 361.875 129.445312 L 361.757812 130.328125 L 361.652344 131.210938 L 361.558594 132.09375 L 361.472656 132.980469 L 361.402344 133.867188 L 361.339844 134.753906 L 361.289062 135.644531 L 361.25 136.53125 L 361.222656 137.421875 L 361.207031 138.308594 L 361.199219 139.199219 "/>
<path style="fill:none;stroke-width:0.75;stroke-linecap:round;stroke-linejoin:round;stroke:rgb(0%,0%,0%);stroke-opacity:1;stroke-miterlimit:10;" d="M 359.03125 137.925781 L 358.875 137.011719 L 358.734375 136.089844 L 358.601562 135.167969 L 358.484375 134.242188 L 358.378906 133.308594 L 358.28125 132.375 L 358.199219 131.4375 L 358.128906 130.496094 L 358.066406 129.554688 L 358.019531 128.605469 L 357.984375 127.65625 L 357.960938 126.707031 L 357.953125 125.753906 L 357.953125 124.796875 L 357.964844 123.835938 L 357.992188 122.878906 L 358.03125 121.914062 L 358.082031 120.953125 L 358.148438 119.988281 L 358.222656 119.019531 L 358.3125 118.054688 L 358.414062 117.085938 L 358.527344 116.117188 L 358.65625 115.148438 L 358.796875 114.175781 L 358.949219 113.207031 L 359.113281 112.238281 L 359.292969 111.265625 L 359.484375 110.296875 L 359.6875 109.328125 L 359.90625 108.359375 L 360.136719 107.390625 L 360.378906 106.421875 L 360.632812 105.457031 L 360.902344 104.492188 L 361.1875 103.53125 L 361.480469 102.570312 L 361.789062 101.609375 L 362.109375 100.652344 L 362.445312 99.695312 L 362.789062 98.742188 L 363.152344 97.792969 L 363.523438 96.84375 L 363.910156 95.898438 L 364.308594 94.957031 L 364.71875 94.019531 L 365.144531 93.082031 L 365.582031 92.152344 L 366.03125 91.222656 L 366.496094 90.296875 L 366.972656 89.378906 L 367.460938 88.460938 L 367.960938 87.550781 L 368.476562 86.644531 L 369.003906 85.742188 L 369.542969 84.847656 L 370.097656 83.953125 L 370.660156 83.066406 L 371.238281 82.1875 L 371.828125 81.3125 L 372.429688 80.441406 L 373.042969 79.578125 L 373.671875 78.722656 L 374.308594 77.871094 L 374.960938 77.027344 L 375.625 76.191406 L 376.300781 75.359375 L 376.988281 74.535156 L 377.6875 73.71875 L 378.398438 72.910156 L 379.121094 72.109375 L 379.855469 71.316406 L 380.601562 70.53125 L 381.359375 69.753906 L 382.125 68.984375 L 382.90625 68.222656 L 383.699219 67.472656 L 384.5 66.726562 L 385.316406 65.992188 L 386.140625 65.265625 L 386.976562 64.550781 L 387.820312 63.84375 L 388.679688 63.144531 L 389.546875 62.457031 L 390.421875 61.78125 L 391.3125 61.113281 L 392.210938 60.453125 L 393.117188 59.804688 L 394.035156 59.167969 L 394.964844 58.542969 L 395.902344 57.925781 L 396.851562 57.320312 L 397.808594 56.726562 L 398.773438 56.144531 L 399.75 55.574219 L 400.734375 55.011719 L 401.730469 54.464844 L 402.730469 53.925781 L 403.742188 53.402344 L 404.761719 52.890625 L 405.792969 52.386719 L 406.828125 51.898438 L 407.871094 51.421875 L 408.925781 50.960938 L 409.984375 50.507812 L 411.054688 50.070312 L 412.128906 49.644531 L 413.210938 49.230469 L 414.304688 48.832031 L 415.398438 48.445312 L 416.503906 48.074219 L 417.617188 47.714844 L 418.734375 47.367188 L 419.855469 47.035156 L 420.988281 46.71875 L 422.121094 46.414062 L 423.265625 46.125 L 424.414062 45.847656 L 425.566406 45.585938 L 426.722656 45.335938 L 427.886719 45.101562 L 429.058594 44.882812 L 430.230469 44.679688 L 431.410156 44.488281 L 432.59375 44.3125 L 433.777344 44.152344 L 434.96875 44.007812 L 436.164062 43.878906 L 437.363281 43.761719 L 438.566406 43.660156 L 439.773438 43.578125 L 440.980469 43.507812 L 442.191406 43.453125 L 443.40625 43.410156 L 444.625 43.386719 L 445.84375 43.378906 L 447.066406 43.386719 L 448.289062 43.410156 L 449.515625 43.449219 L 450.742188 43.5 L 451.96875 43.570312 L 453.199219 43.65625 L 454.429688 43.757812 L 455.660156 43.875 L 456.890625 44.007812 L 458.125 44.15625 L 459.355469 44.320312 L 460.589844 44.503906 L 461.820312 44.699219 L 463.050781 44.914062 L 464.285156 45.140625 L 465.511719 45.386719 L 466.742188 45.648438 L 467.96875 45.925781 L 469.195312 46.21875 L 470.421875 46.527344 L 471.640625 46.855469 L 472.863281 47.195312 L 474.082031 47.554688 L 475.296875 47.925781 L 476.507812 48.316406 L 477.71875 48.722656 L 478.925781 49.144531 L 480.125 49.582031 L 481.324219 50.035156 L 482.519531 50.507812 L 483.710938 50.992188 L 484.898438 51.496094 L 486.082031 52.011719 L 487.257812 52.546875 L 488.433594 53.097656 L 489.601562 53.660156 L 490.761719 54.242188 L 491.917969 54.839844 L 493.070312 55.453125 L 494.214844 56.082031 L 495.355469 56.722656 L 496.488281 57.382812 L 497.613281 58.058594 L 498.734375 58.75 L 499.84375 59.453125 L 500.949219 60.175781 L 502.046875 60.910156 L 503.136719 61.660156 L 504.21875 62.425781 L 505.292969 63.207031 L 506.359375 64.003906 L 507.414062 64.8125 L 508.464844 65.640625 L 509.503906 66.480469 L 510.535156 67.332031 L 511.554688 68.203125 L 512.566406 69.085938 L 513.570312 69.980469 L 514.5625 70.894531 L 515.542969 71.820312 L 516.515625 72.757812 L 517.476562 73.710938 L 518.429688 74.679688 L 519.367188 75.65625 L 520.296875 76.652344 L 521.214844 77.660156 L 522.121094 78.679688 L 523.015625 79.710938 L 523.898438 80.757812 L 524.769531 81.816406 L 525.628906 82.890625 L 526.476562 83.972656 L 527.308594 85.070312 L 528.128906 86.179688 L 528.9375 87.296875 L 529.734375 88.429688 L 530.515625 89.574219 L 531.285156 90.730469 L 532.042969 91.898438 L 532.78125 93.078125 L 533.511719 94.269531 L 534.226562 95.46875 L 534.925781 96.679688 L 535.609375 97.902344 L 536.28125 99.136719 L 536.9375 100.378906 L 537.578125 101.632812 L 538.203125 102.898438 L 538.816406 104.171875 L 539.410156 105.453125 L 539.992188 106.746094 L 540.554688 108.046875 L 541.105469 109.359375 L 541.640625 110.675781 L 542.15625 112.003906 L 542.65625 113.34375 L 543.144531 114.6875 L 543.613281 116.039062 L 544.0625 117.402344 L 544.5 118.769531 L 544.917969 120.144531 L 545.320312 121.527344 L 545.707031 122.917969 L 546.074219 124.316406 L 546.425781 125.71875 L 546.757812 127.128906 L 547.074219 128.546875 L 547.375 129.96875 L 547.65625 131.398438 L 547.917969 132.832031 L 548.164062 134.269531 L 548.390625 135.714844 L 548.601562 137.164062 "/>
<path style=" stroke:none;fill-rule:nonzero;fill:rgb(0%,0%,0%);fill-opacity:1;" d="M 361.730469 137.925781 C 361.730469 141.527344 356.328125 141.527344 356.328125 137.925781 C 356.328125 134.328125 361.730469 134.328125 361.730469 137.925781 "/>
<path style=" stroke:none;fill-rule:nonzero;fill:rgb(0%,0%,0%);fill-opacity:1;" d="M 360.652344 125.652344 C 360.652344 129.25 355.25 129.25 355.25 125.652344 C 355.25 122.050781 360.652344 122.050781 360.652344 125.652344 "/>
<path style=" stroke:none;fill-rule:nonzero;fill:rgb(0%,0%,0%);fill-opacity:1;" d="M 361.683594 113.003906 C 361.683594 116.601562 356.28125 116.601562 356.28125 113.003906 C 356.28125 109.402344 361.683594 109.402344 361.683594 113.003906 "/>
<path style=" stroke:none;fill-rule:nonzero;fill:rgb(0%,0%,0%);fill-opacity:1;" d="M 364.914062 100.347656 C 364.914062 103.949219 359.515625 103.949219 359.515625 100.347656 C 359.515625 96.75 364.914062 96.75 364.914062 100.347656 "/>
<path style=" stroke:none;fill-rule:nonzero;fill:rgb(0%,0%,0%);fill-opacity:1;" d="M 370.371094 88.078125 C 370.371094 91.679688 364.972656 91.679688 364.972656 88.078125 C 364.972656 84.476562 370.371094 84.476562 370.371094 88.078125 "/>
<path style=" stroke:none;fill-rule:nonzero;fill:rgb(0%,0%,0%);fill-opacity:1;" d="M 378.007812 76.585938 C 378.007812 80.1875 372.609375 80.1875 372.609375 76.585938 C 372.609375 72.984375 378.007812 72.984375 378.007812 76.585938 "/>
<path style=" stroke:none;fill-rule:nonzero;fill:rgb(0%,0%,0%);fill-opacity:1;" d="M 387.714844 66.261719 C 387.714844 69.863281 382.3125 69.863281 382.3125 66.261719 C 382.3125 62.664062 387.714844 62.664062 387.714844 66.261719 "/>
<path style=" stroke:none;fill-rule:nonzero;fill:rgb(0%,0%,0%);fill-opacity:1;" d="M 399.300781 57.480469 C 399.300781 61.078125 393.902344 61.078125 393.902344 57.480469 C 393.902344 53.878906 399.300781 53.878906 399.300781 57.480469 "/>
<path style=" stroke:none;fill-rule:nonzero;fill:rgb(0%,0%,0%);fill-opacity:1;" d="M 412.519531 50.578125 C 412.519531 54.179688 407.117188 54.179688 407.117188 50.578125 C 407.117188 46.980469 412.519531 46.980469 412.519531 50.578125 "/>
<path style=" stroke:none;fill-rule:nonzero;fill:rgb(0%,0%,0%);fill-opacity:1;" d="M 427.050781 45.859375 C 427.050781 49.460938 421.652344 49.460938 421.652344 45.859375 C 421.652344 42.261719 427.050781 42.261719 427.050781 45.859375 "/>
<path style=" stroke:none;fill-rule:nonzero;fill:rgb(0%,0%,0%);fill-opacity:1;" d="M 442.535156 43.570312 C 442.535156 47.171875 437.136719 47.171875 437.136719 43.570312 C 437.136719 39.972656 442.535156 39.972656 442.535156 43.570312 "/>
<path style=" stroke:none;fill-rule:nonzero;fill:rgb(0%,0%,0%);fill-opacity:1;" d="M 458.554688 43.894531 C 458.554688 47.496094 453.15625 47.496094 453.15625 43.894531 C 453.15625 40.296875 458.554688 40.296875 458.554688 43.894531 "/>
<path style=" stroke:none;fill-rule:nonzero;fill:rgb(0%,0%,0%);fill-opacity:1;" d="M 474.664062 46.941406 C 474.664062 50.542969 469.265625 50.542969 469.265625 46.941406 C 469.265625 43.34375 474.664062 43.34375 474.664062 46.941406 "/>
<path style=" stroke:none;fill-rule:nonzero;fill:rgb(0%,0%,0%);fill-opacity:1;" d="M 490.390625 52.746094 C 490.390625 56.347656 484.992188 56.347656 484.992188 52.746094 C 484.992188 49.148438 490.390625 49.148438 490.390625 52.746094 "/>
<path style=" stroke:none;fill-rule:nonzero;fill:rgb(0%,0%,0%);fill-opacity:1;" d="M 505.265625 61.265625 C 505.265625 64.863281 499.863281 64.863281 499.863281 61.265625 C 499.863281 57.664062 505.265625 57.664062 505.265625 61.265625 "/>
<path style=" stroke:none;fill-rule:nonzero;fill:rgb(0%,0%,0%);fill-opacity:1;" d="M 518.808594 72.359375 C 518.808594 75.960938 513.40625 75.960938 513.40625 72.359375 C 513.40625 68.761719 518.808594 68.761719 518.808594 72.359375 "/>
<path style=" stroke:none;fill-rule:nonzero;fill:rgb(0%,0%,0%);fill-opacity:1;" d="M 530.574219 85.828125 C 530.574219 89.425781 525.171875 89.425781 525.171875 85.828125 C 525.171875 82.226562 530.574219 82.226562 530.574219 85.828125 "/>
<path style=" stroke:none;fill-rule:nonzero;fill:rgb(0%,0%,0%);fill-opacity:1;" d="M 540.144531 101.367188 C 540.144531 104.96875 534.742188 104.96875 534.742188 101.367188 C 534.742188 97.769531 540.144531 97.769531 540.144531 101.367188 "/>
<path style=" stroke:none;fill-rule:nonzero;fill:rgb(0%,0%,0%);fill-opacity:1;" d="M 547.15625 118.625 C 547.15625 122.226562 541.753906 122.226562 541.753906 118.625 C 541.753906 115.023438 547.15625 115.023438 547.15625 118.625 "/>
<path style=" stroke:none;fill-rule:nonzero;fill:rgb(0%,0%,0%);fill-opacity:1;" d="M 551.300781 137.164062 C 551.300781 140.765625 545.902344 140.765625 545.902344 137.164062 C 545.902344 133.566406 551.300781 133.566406 551.300781 137.164062 "/>
</g>
</svg>
