<?xml version="1.0" encoding="UTF-8"?>
<svg xmlns="http://www.w3.org/2000/svg" xmlns:xlink="http://www.w3.org/1999/xlink" width="288pt" height="288pt" viewBox="0 0 288 288" version="1.1">
<g id="surface214">
<rect x="0" y="0" width="288" height="288" style="fill:rgb(100%,100%,100%);fill-opacity:1;stroke:none;"/>
<path style=" stroke:none;fill-rule:nonzero;fill:rgb(74.509804%,74.509804%,74.509804%);fill-opacity:1;" d="M 256.800781 144 L 262.800781 144 L 262.789062 145.472656 L 262.761719 146.941406 L 262.71875 148.414062 L 262.652344 149.882812 L 262.570312 151.351562 L 262.472656 152.820312 L 262.355469 154.289062 L 262.21875 155.753906 L 262.0625 157.214844 L 261.890625 158.675781 L 261.699219 160.136719 L 261.488281 161.59375 L 261.261719 163.046875 L 261.019531 164.496094 L 260.753906 165.945312 L 260.476562 167.390625 L 260.175781 168.832031 L 259.859375 170.269531 L 259.523438 171.699219 L 259.171875 173.128906 L 258.804688 174.554688 L 258.417969 175.972656 L 258.011719 177.386719 L 257.589844 178.796875 L 257.148438 180.203125 L 256.691406 181.601562 L 256.21875 182.992188 L 255.726562 184.378906 L 255.21875 185.761719 L 254.691406 187.136719 L 254.148438 188.503906 L 253.589844 189.863281 L 253.011719 191.21875 L 252.421875 192.566406 L 251.808594 193.902344 L 251.183594 195.234375 L 250.542969 196.558594 L 249.882812 197.875 L 249.207031 199.183594 L 248.515625 200.480469 L 247.808594 201.769531 L 247.082031 203.050781 L 246.34375 204.324219 L 245.589844 205.585938 L 244.820312 206.839844 L 244.03125 208.085938 L 243.230469 209.320312 L 242.414062 210.542969 L 241.582031 211.757812 L 240.738281 212.960938 L 239.875 214.152344 L 239 215.335938 L 238.109375 216.507812 L 237.203125 217.667969 L 236.28125 218.816406 L 235.347656 219.953125 L 234.402344 221.078125 L 233.441406 222.191406 L 232.464844 223.292969 L 231.476562 224.382812 L 230.472656 225.460938 L 229.457031 226.527344 L 227.300781 224.441406 L 226.21875 223.398438 L 225.140625 222.359375 L 226.105469 221.347656 L 227.058594 220.324219 L 227.996094 219.289062 L 228.921875 218.242188 L 229.835938 217.183594 L 230.734375 216.117188 L 231.621094 215.035156 L 232.496094 213.945312 L 233.355469 212.84375 L 234.199219 211.734375 L 235.03125 210.609375 L 235.851562 209.476562 L 236.65625 208.335938 L 237.445312 207.183594 L 238.21875 206.019531 L 238.980469 204.847656 L 239.726562 203.667969 L 240.457031 202.476562 L 241.175781 201.277344 L 241.878906 200.070312 L 242.566406 198.851562 L 243.238281 197.628906 L 243.894531 196.394531 L 244.535156 195.152344 L 245.160156 193.90625 L 245.769531 192.648438 L 246.367188 191.382812 L 246.945312 190.113281 L 247.507812 188.832031 L 248.054688 187.546875 L 248.585938 186.253906 L 249.101562 184.957031 L 249.601562 183.652344 L 250.082031 182.339844 L 250.550781 181.023438 L 251 179.703125 L 251.433594 178.375 L 251.851562 177.039062 L 252.253906 175.703125 L 252.636719 174.359375 L 253.003906 173.011719 L 253.355469 171.660156 L 253.691406 170.300781 L 254.007812 168.941406 L 254.308594 167.578125 L 254.59375 166.207031 L 254.859375 164.835938 L 255.109375 163.460938 L 255.339844 162.085938 L 255.554688 160.703125 L 255.753906 159.320312 L 255.9375 157.9375 L 256.101562 156.546875 L 256.246094 155.160156 L 256.375 153.769531 L 256.488281 152.375 L 256.582031 150.980469 L 256.660156 149.585938 L 256.722656 148.191406 L 256.765625 146.792969 L 256.792969 145.398438 Z M 256.800781 144 "/>
<path style=" stroke:none;fill-rule:nonzero;fill:rgb(74.509804%,74.509804%,74.509804%);fill-opacity:1;" d="M 223.761719 223.761719 L 228.003906 228.003906 L 226.957031 229.039062 L 225.898438 230.058594 L 224.824219 231.066406 L 223.742188 232.0625 L 222.644531 233.042969 L 221.535156 234.007812 L 220.414062 234.964844 L 219.28125 235.902344 L 218.136719 236.828125 L 216.980469 237.738281 L 215.816406 238.636719 L 214.636719 239.519531 L 213.449219 240.386719 L 212.25 241.238281 L 211.039062 242.078125 L 209.820312 242.898438 L 208.589844 243.707031 L 207.351562 244.5 L 206.101562 245.277344 L 204.84375 246.039062 L 203.574219 246.785156 L 202.296875 247.511719 L 201.007812 248.226562 L 199.714844 248.925781 L 198.410156 249.609375 L 197.097656 250.273438 L 195.777344 250.921875 L 194.449219 251.554688 L 193.113281 252.171875 L 191.769531 252.773438 L 190.417969 253.355469 L 189.0625 253.921875 L 187.695312 254.472656 L 186.324219 255.003906 L 184.945312 255.519531 L 183.5625 256.019531 L 182.171875 256.5 L 180.773438 256.964844 L 179.371094 257.410156 L 177.964844 257.839844 L 176.554688 258.253906 L 175.136719 258.648438 L 173.710938 259.023438 L 172.285156 259.382812 L 170.855469 259.726562 L 169.417969 260.046875 L 167.980469 260.355469 L 166.535156 260.644531 L 165.089844 260.914062 L 163.640625 261.164062 L 162.1875 261.398438 L 160.734375 261.617188 L 159.273438 261.8125 L 157.8125 261.992188 L 156.351562 262.15625 L 154.886719 262.300781 L 153.421875 262.425781 L 151.953125 262.535156 L 150.484375 262.621094 L 149.015625 262.695312 L 147.542969 262.746094 L 146.074219 262.78125 L 146.019531 259.78125 L 145.996094 258.28125 L 145.96875 256.78125 L 147.367188 256.75 L 148.761719 256.699219 L 150.15625 256.632812 L 151.550781 256.546875 L 152.945312 256.445312 L 154.335938 256.324219 L 155.726562 256.1875 L 157.117188 256.035156 L 158.503906 255.863281 L 159.886719 255.675781 L 161.269531 255.46875 L 162.648438 255.246094 L 164.023438 255.007812 L 165.398438 254.75 L 166.769531 254.476562 L 168.136719 254.1875 L 169.5 253.878906 L 170.855469 253.554688 L 172.210938 253.214844 L 173.5625 252.855469 L 174.910156 252.484375 L 176.25 252.089844 L 177.585938 251.683594 L 178.917969 251.257812 L 180.242188 250.820312 L 181.5625 250.363281 L 182.878906 249.886719 L 184.1875 249.398438 L 185.488281 248.894531 L 186.785156 248.371094 L 188.074219 247.832031 L 189.355469 247.277344 L 190.632812 246.710938 L 191.902344 246.125 L 193.164062 245.523438 L 194.417969 244.90625 L 195.664062 244.273438 L 196.898438 243.625 L 198.128906 242.964844 L 199.351562 242.285156 L 200.566406 241.59375 L 201.769531 240.882812 L 202.964844 240.160156 L 204.152344 239.421875 L 205.328125 238.671875 L 206.496094 237.902344 L 207.65625 237.121094 L 208.804688 236.328125 L 209.941406 235.519531 L 211.070312 234.695312 L 212.1875 233.855469 L 213.296875 233.003906 L 214.394531 232.140625 L 215.480469 231.261719 L 216.554688 230.367188 L 217.621094 229.464844 L 218.671875 228.546875 L 219.714844 227.613281 L 220.742188 226.667969 L 221.761719 225.710938 L 222.769531 224.742188 Z M 223.761719 223.761719 "/>
<path style=" stroke:none;fill-rule:nonzero;fill:rgb(74.509804%,74.509804%,74.509804%);fill-opacity:1;" d="M 144 256.800781 L 144 262.800781 L 142.527344 262.789062 L 141.058594 262.761719 L 139.585938 262.71875 L 138.117188 262.652344 L 136.648438 262.570312 L 135.179688 262.472656 L 133.710938 262.355469 L 132.246094 262.21875 L 130.785156 262.0625 L 129.324219 261.890625 L 127.863281 261.699219 L 126.40625 261.488281 L 124.953125 261.261719 L 123.503906 261.019531 L 122.054688 260.753906 L 120.609375 260.476562 L 119.167969 260.175781 L 117.730469 259.859375 L 116.300781 259.523438 L 114.871094 259.171875 L 113.445312 258.804688 L 112.027344 258.417969 L 110.613281 258.011719 L 109.203125 257.589844 L 107.796875 257.148438 L 106.398438 256.691406 L 105.007812 256.21875 L 103.621094 255.726562 L 102.238281 255.21875 L 100.863281 254.691406 L 99.496094 254.148438 L 98.136719 253.589844 L 96.78125 253.011719 L 95.433594 252.421875 L 94.097656 251.808594 L 92.765625 251.183594 L 91.441406 250.542969 L 90.125 249.882812 L 88.816406 249.207031 L 87.519531 248.515625 L 86.230469 247.808594 L 84.949219 247.082031 L 83.675781 246.34375 L 82.414062 245.589844 L 81.160156 244.820312 L 79.914062 244.03125 L 78.679688 243.230469 L 77.457031 242.414062 L 76.242188 241.582031 L 75.039062 240.738281 L 73.847656 239.875 L 72.664062 239 L 71.492188 238.109375 L 70.332031 237.203125 L 69.183594 236.28125 L 68.046875 235.347656 L 66.921875 234.402344 L 65.808594 233.441406 L 64.707031 232.464844 L 63.617188 231.476562 L 62.539062 230.472656 L 61.472656 229.457031 L 63.558594 227.300781 L 64.601562 226.21875 L 65.640625 225.140625 L 66.652344 226.105469 L 67.675781 227.058594 L 68.710938 227.996094 L 69.757812 228.921875 L 70.816406 229.835938 L 71.882812 230.734375 L 72.964844 231.621094 L 74.054688 232.496094 L 75.15625 233.355469 L 76.265625 234.199219 L 77.390625 235.03125 L 78.523438 235.851562 L 79.664062 236.65625 L 80.816406 237.445312 L 81.980469 238.21875 L 83.152344 238.980469 L 84.332031 239.726562 L 85.523438 240.457031 L 86.722656 241.175781 L 87.929688 241.878906 L 89.148438 242.566406 L 90.371094 243.238281 L 91.605469 243.894531 L 92.847656 244.535156 L 94.09375 245.160156 L 95.351562 245.769531 L 96.617188 246.367188 L 97.886719 246.945312 L 99.167969 247.507812 L 100.453125 248.054688 L 101.746094 248.585938 L 103.042969 249.101562 L 104.347656 249.601562 L 105.660156 250.082031 L 106.976562 250.550781 L 108.296875 251 L 109.625 251.433594 L 110.960938 251.851562 L 112.296875 252.253906 L 113.640625 252.636719 L 114.988281 253.003906 L 116.339844 253.355469 L 117.699219 253.691406 L 119.058594 254.007812 L 120.421875 254.308594 L 121.792969 254.59375 L 123.164062 254.859375 L 124.539062 255.109375 L 125.914062 255.339844 L 127.296875 255.554688 L 128.679688 255.753906 L 130.0625 255.9375 L 131.453125 256.101562 L 132.839844 256.246094 L 134.230469 256.375 L 135.625 256.488281 L 137.019531 256.582031 L 138.414062 256.660156 L 139.808594 256.722656 L 141.207031 256.765625 L 142.601562 256.792969 Z M 144 256.800781 "/>
<path style=" stroke:none;fill-rule:nonzero;fill:rgb(74.509804%,74.509804%,74.509804%);fill-opacity:1;" d="M 64.238281 223.761719 L 59.996094 228.003906 L 58.960938 226.957031 L 57.941406 225.898438 L 56.933594 224.824219 L 55.9375 223.742188 L 54.957031 222.644531 L 53.992188 221.535156 L 53.035156 220.414062 L 52.097656 219.28125 L 51.171875 218.136719 L 50.261719 216.980469 L 49.363281 215.816406 L 48.480469 214.636719 L 47.613281 213.449219 L 46.761719 212.25 L 45.921875 211.039062 L 45.101562 209.820312 L 44.292969 208.589844 L 43.5 207.351562 L 42.722656 206.101562 L 41.960938 204.84375 L 41.214844 203.574219 L 40.488281 202.296875 L 39.773438 201.007812 L 39.074219 199.714844 L 38.390625 198.410156 L 37.726562 197.097656 L 37.078125 195.777344 L 36.445312 194.449219 L 35.828125 193.113281 L 35.226562 191.769531 L 34.644531 190.417969 L 34.078125 189.0625 L 33.527344 187.695312 L 32.996094 186.324219 L 32.480469 184.945312 L 31.980469 183.5625 L 31.5 182.171875 L 31.035156 180.773438 L 30.589844 179.371094 L 30.160156 177.964844 L 29.746094 176.554688 L 29.351562 175.136719 L 28.976562 173.710938 L 28.617188 172.285156 L 28.273438 170.855469 L 27.953125 169.417969 L 27.644531 167.980469 L 27.355469 166.535156 L 27.085938 165.089844 L 26.835938 163.640625 L 26.601562 162.1875 L 26.382812 160.734375 L 26.1875 159.273438 L 26.007812 157.8125 L 25.84375 156.351562 L 25.699219 154.886719 L 25.574219 153.421875 L 25.464844 151.953125 L 25.378906 150.484375 L 25.304688 149.015625 L 25.253906 147.542969 L 25.21875 146.074219 L 28.21875 146.019531 L 29.71875 145.996094 L 31.21875 145.96875 L 31.25 147.367188 L 31.300781 148.761719 L 31.367188 150.15625 L 31.453125 151.550781 L 31.554688 152.945312 L 31.675781 154.335938 L 31.8125 155.726562 L 31.964844 157.117188 L 32.136719 158.503906 L 32.324219 159.886719 L 32.53125 161.269531 L 32.753906 162.648438 L 32.992188 164.023438 L 33.25 165.398438 L 33.523438 166.769531 L 33.8125 168.136719 L 34.121094 169.5 L 34.445312 170.855469 L 34.785156 172.210938 L 35.144531 173.5625 L 35.515625 174.910156 L 35.910156 176.25 L 36.316406 177.585938 L 36.742188 178.917969 L 37.179688 180.242188 L 37.636719 181.5625 L 38.113281 182.878906 L 38.601562 184.1875 L 39.105469 185.488281 L 39.628906 186.785156 L 40.167969 188.074219 L 40.722656 189.355469 L 41.289062 190.632812 L 41.875 191.902344 L 42.476562 193.164062 L 43.09375 194.417969 L 43.726562 195.664062 L 44.375 196.898438 L 45.035156 198.128906 L 45.714844 199.351562 L 46.40625 200.566406 L 47.117188 201.769531 L 47.839844 202.964844 L 48.578125 204.152344 L 49.328125 205.328125 L 50.097656 206.496094 L 50.878906 207.65625 L 51.671875 208.804688 L 52.480469 209.941406 L 53.304688 211.070312 L 54.144531 212.1875 L 54.996094 213.296875 L 55.859375 214.394531 L 56.738281 215.480469 L 57.632812 216.554688 L 58.535156 217.621094 L 59.453125 218.671875 L 60.386719 219.714844 L 61.332031 220.742188 L 62.289062 221.761719 L 63.257812 222.769531 Z M 64.238281 223.761719 "/>
<path style=" stroke:none;fill-rule:nonzero;fill:rgb(74.509804%,74.509804%,74.509804%);fill-opacity:1;" d="M 31.199219 144 L 25.199219 144 L 25.210938 142.527344 L 25.238281 141.058594 L 25.28125 139.585938 L 25.347656 138.117188 L 25.429688 136.648438 L 25.527344 135.179688 L 25.644531 133.710938 L 25.78125 132.246094 L 25.9375 130.785156 L 26.109375 129.324219 L 26.300781 127.863281 L 26.511719 126.40625 L 26.738281 124.953125 L 26.980469 123.503906 L 27.246094 122.054688 L 27.523438 120.609375 L 27.824219 119.167969 L 28.140625 117.730469 L 28.476562 116.300781 L 28.828125 114.871094 L 29.195312 113.445312 L 29.582031 112.027344 L 29.988281 110.613281 L 30.410156 109.203125 L 30.851562 107.796875 L 31.308594 106.398438 L 31.78125 105.007812 L 32.273438 103.621094 L 32.78125 102.238281 L 33.308594 100.863281 L 33.851562 99.496094 L 34.410156 98.136719 L 34.988281 96.78125 L 35.578125 95.433594 L 36.191406 94.097656 L 36.816406 92.765625 L 37.457031 91.441406 L 38.117188 90.125 L 38.792969 88.816406 L 39.484375 87.519531 L 40.191406 86.230469 L 40.917969 84.949219 L 41.65625 83.675781 L 42.410156 82.414062 L 43.179688 81.160156 L 43.96875 79.914062 L 44.769531 78.679688 L 45.585938 77.457031 L 46.417969 76.242188 L 47.261719 75.039062 L 48.125 73.847656 L 49 72.664062 L 49.890625 71.492188 L 50.796875 70.332031 L 51.71875 69.183594 L 52.652344 68.046875 L 53.597656 66.921875 L 54.558594 65.808594 L 55.535156 64.707031 L 56.523438 63.617188 L 57.527344 62.539062 L 58.542969 61.472656 L 60.699219 63.558594 L 61.78125 64.601562 L 62.859375 65.640625 L 61.894531 66.652344 L 60.941406 67.675781 L 60.003906 68.710938 L 59.078125 69.757812 L 58.164062 70.816406 L 57.265625 71.882812 L 56.378906 72.964844 L 55.503906 74.054688 L 54.644531 75.15625 L 53.800781 76.265625 L 52.96875 77.390625 L 52.148438 78.523438 L 51.34375 79.664062 L 50.554688 80.816406 L 49.78125 81.980469 L 49.019531 83.152344 L 48.273438 84.332031 L 47.542969 85.523438 L 46.824219 86.722656 L 46.121094 87.929688 L 45.433594 89.148438 L 44.761719 90.371094 L 44.105469 91.605469 L 43.464844 92.847656 L 42.839844 94.09375 L 42.230469 95.351562 L 41.632812 96.617188 L 41.054688 97.886719 L 40.492188 99.167969 L 39.945312 100.453125 L 39.414062 101.746094 L 38.898438 103.042969 L 38.398438 104.347656 L 37.917969 105.660156 L 37.449219 106.976562 L 37 108.296875 L 36.566406 109.625 L 36.148438 110.960938 L 35.746094 112.296875 L 35.363281 113.640625 L 34.996094 114.988281 L 34.644531 116.339844 L 34.308594 117.699219 L 33.992188 119.058594 L 33.691406 120.421875 L 33.40625 121.792969 L 33.140625 123.164062 L 32.890625 124.539062 L 32.660156 125.914062 L 32.445312 127.296875 L 32.246094 128.679688 L 32.0625 130.0625 L 31.898438 131.453125 L 31.753906 132.839844 L 31.625 134.230469 L 31.511719 135.625 L 31.417969 137.019531 L 31.339844 138.414062 L 31.277344 139.808594 L 31.234375 141.207031 L 31.207031 142.601562 Z M 31.199219 144 "/>
<path style=" stroke:none;fill-rule:nonzero;fill:rgb(74.509804%,74.509804%,74.509804%);fill-opacity:1;" d="M 64.238281 64.238281 L 59.996094 59.996094 L 61.042969 58.960938 L 62.101562 57.941406 L 63.175781 56.933594 L 64.257812 55.9375 L 65.355469 54.957031 L 66.464844 53.992188 L 67.585938 53.035156 L 68.71875 52.097656 L 69.863281 51.171875 L 71.019531 50.261719 L 72.183594 49.363281 L 73.363281 48.480469 L 74.550781 47.613281 L 75.75 46.761719 L 76.960938 45.921875 L 78.179688 45.101562 L 79.410156 44.292969 L 80.648438 43.5 L 81.898438 42.722656 L 83.15625 41.960938 L 84.425781 41.214844 L 85.703125 40.488281 L 86.992188 39.773438 L 88.285156 39.074219 L 89.589844 38.390625 L 90.902344 37.726562 L 92.222656 37.078125 L 93.550781 36.445312 L 94.886719 35.828125 L 96.230469 35.226562 L 97.582031 34.644531 L 98.9375 34.078125 L 100.304688 33.527344 L 101.675781 32.996094 L 103.054688 32.480469 L 104.4375 31.980469 L 105.828125 31.5 L 107.226562 31.035156 L 108.628906 30.589844 L 110.035156 30.160156 L 111.445312 29.746094 L 112.863281 29.351562 L 114.289062 28.976562 L 115.714844 28.617188 L 117.144531 28.273438 L 118.582031 27.953125 L 120.019531 27.644531 L 121.464844 27.355469 L 122.910156 27.085938 L 124.359375 26.835938 L 125.8125 26.601562 L 127.265625 26.382812 L 128.726562 26.1875 L 130.1875 26.007812 L 131.648438 25.84375 L 133.113281 25.699219 L 134.578125 25.574219 L 136.046875 25.464844 L 137.515625 25.378906 L 138.984375 25.304688 L 140.457031 25.253906 L 141.925781 25.21875 L 141.980469 28.21875 L 142.003906 29.71875 L 142.03125 31.21875 L 140.632812 31.25 L 139.238281 31.300781 L 137.84375 31.367188 L 136.449219 31.453125 L 135.054688 31.554688 L 133.664062 31.675781 L 132.273438 31.8125 L 130.882812 31.964844 L 129.496094 32.136719 L 128.113281 32.324219 L 126.730469 32.53125 L 125.351562 32.753906 L 123.976562 32.992188 L 122.601562 33.25 L 121.230469 33.523438 L 119.863281 33.8125 L 118.5 34.121094 L 117.144531 34.445312 L 115.789062 34.785156 L 114.4375 35.144531 L 113.089844 35.515625 L 111.75 35.910156 L 110.414062 36.316406 L 109.082031 36.742188 L 107.757812 37.179688 L 106.4375 37.636719 L 105.121094 38.113281 L 103.8125 38.601562 L 102.511719 39.105469 L 101.214844 39.628906 L 99.925781 40.167969 L 98.644531 40.722656 L 97.367188 41.289062 L 96.097656 41.875 L 94.835938 42.476562 L 93.582031 43.09375 L 92.335938 43.726562 L 91.101562 44.375 L 89.871094 45.035156 L 88.648438 45.714844 L 87.433594 46.40625 L 86.230469 47.117188 L 85.035156 47.839844 L 83.847656 48.578125 L 82.671875 49.328125 L 81.503906 50.097656 L 80.34375 50.878906 L 79.195312 51.671875 L 78.058594 52.480469 L 76.929688 53.304688 L 75.8125 54.144531 L 74.703125 54.996094 L 73.605469 55.859375 L 72.519531 56.738281 L 71.445312 57.632812 L 70.378906 58.535156 L 69.328125 59.453125 L 68.285156 60.386719 L 67.257812 61.332031 L 66.238281 62.289062 L 65.230469 63.257812 Z M 64.238281 64.238281 "/>
<path style=" stroke:none;fill-rule:nonzero;fill:rgb(74.509804%,74.509804%,74.509804%);fill-opacity:1;" d="M 144 31.199219 L 144 25.199219 L 145.472656 25.210938 L 146.941406 25.238281 L 148.414062 25.28125 L 149.882812 25.347656 L 151.351562 25.429688 L 152.820312 25.527344 L 154.289062 25.644531 L 155.753906 25.78125 L 157.214844 25.9375 L 158.675781 26.109375 L 160.136719 26.300781 L 161.59375 26.511719 L 163.046875 26.738281 L 164.496094 26.980469 L 165.945312 27.246094 L 167.390625 27.523438 L 168.832031 27.824219 L 170.269531 28.140625 L 171.699219 28.476562 L 173.128906 28.828125 L 174.554688 29.195312 L 175.972656 29.582031 L 177.386719 29.988281 L 178.796875 30.410156 L 180.203125 30.851562 L 181.601562 31.308594 L 182.992188 31.78125 L 184.378906 32.273438 L 185.761719 32.78125 L 187.136719 33.308594 L 188.503906 33.851562 L 189.863281 34.410156 L 191.21875 34.988281 L 192.566406 35.578125 L 193.902344 36.191406 L 195.234375 36.816406 L 196.558594 37.457031 L 197.875 38.117188 L 199.183594 38.792969 L 200.480469 39.484375 L 201.769531 40.191406 L 203.050781 40.917969 L 204.324219 41.65625 L 205.585938 42.410156 L 206.839844 43.179688 L 208.085938 43.96875 L 209.320312 44.769531 L 210.542969 45.585938 L 211.757812 46.417969 L 212.960938 47.261719 L 214.152344 48.125 L 215.335938 49 L 216.507812 49.890625 L 217.667969 50.796875 L 218.816406 51.71875 L 219.953125 52.652344 L 221.078125 53.597656 L 222.191406 54.558594 L 223.292969 55.535156 L 224.382812 56.523438 L 225.460938 57.527344 L 226.527344 58.542969 L 224.441406 60.699219 L 223.398438 61.78125 L 222.359375 62.859375 L 221.347656 61.894531 L 220.324219 60.941406 L 219.289062 60.003906 L 218.242188 59.078125 L 217.183594 58.164062 L 216.117188 57.265625 L 215.035156 56.378906 L 213.945312 55.503906 L 212.84375 54.644531 L 211.734375 53.800781 L 210.609375 52.96875 L 209.476562 52.148438 L 208.335938 51.34375 L 207.183594 50.554688 L 206.019531 49.78125 L 204.847656 49.019531 L 203.667969 48.273438 L 202.476562 47.542969 L 201.277344 46.824219 L 200.070312 46.121094 L 198.851562 45.433594 L 197.628906 44.761719 L 196.394531 44.105469 L 195.152344 43.464844 L 193.90625 42.839844 L 192.648438 42.230469 L 191.382812 41.632812 L 190.113281 41.054688 L 188.832031 40.492188 L 187.546875 39.945312 L 186.253906 39.414062 L 184.957031 38.898438 L 183.652344 38.398438 L 182.339844 37.917969 L 181.023438 37.449219 L 179.703125 37 L 178.375 36.566406 L 177.039062 36.148438 L 175.703125 35.746094 L 174.359375 35.363281 L 173.011719 34.996094 L 171.660156 34.644531 L 170.300781 34.308594 L 168.941406 33.992188 L 167.578125 33.691406 L 166.207031 33.40625 L 164.835938 33.140625 L 163.460938 32.890625 L 162.085938 32.660156 L 160.703125 32.445312 L 159.320312 32.246094 L 157.9375 32.0625 L 156.546875 31.898438 L 155.160156 31.753906 L 153.769531 31.625 L 152.375 31.511719 L 150.980469 31.417969 L 149.585938 31.339844 L 148.191406 31.277344 L 146.792969 31.234375 L 145.398438 31.207031 Z M 144 31.199219 "/>
<path style=" stroke:none;fill-rule:nonzero;fill:rgb(74.509804%,74.509804%,74.509804%);fill-opacity:1;" d="M 223.761719 64.238281 L 228.003906 59.996094 L 229.039062 61.042969 L 230.058594 62.101562 L 231.066406 63.175781 L 232.0625 64.257812 L 233.042969 65.355469 L 234.007812 66.464844 L 234.964844 67.585938 L 235.902344 68.71875 L 236.828125 69.863281 L 237.738281 71.019531 L 238.636719 72.183594 L 239.519531 73.363281 L 240.386719 74.550781 L 241.238281 75.75 L 242.078125 76.960938 L 242.898438 78.179688 L 243.707031 79.410156 L 244.5 80.648438 L 245.277344 81.898438 L 246.039062 83.15625 L 246.785156 84.425781 L 247.511719 85.703125 L 248.226562 86.992188 L 248.925781 88.285156 L 249.609375 89.589844 L 250.273438 90.902344 L 250.921875 92.222656 L 251.554688 93.550781 L 252.171875 94.886719 L 252.773438 96.230469 L 253.355469 97.582031 L 253.921875 98.9375 L 254.472656 100.304688 L 255.003906 101.675781 L 255.519531 103.054688 L 256.019531 104.4375 L 256.5 105.828125 L 256.964844 107.226562 L 257.410156 108.628906 L 257.839844 110.035156 L 258.253906 111.445312 L 258.648438 112.863281 L 259.023438 114.289062 L 259.382812 115.714844 L 259.726562 117.144531 L 260.046875 118.582031 L 260.355469 120.019531 L 260.644531 121.464844 L 260.914062 122.910156 L 261.164062 124.359375 L 261.398438 125.8125 L 261.617188 127.265625 L 261.8125 128.726562 L 261.992188 130.1875 L 262.15625 131.648438 L 262.300781 133.113281 L 262.425781 134.578125 L 262.535156 136.046875 L 262.621094 137.515625 L 262.695312 138.984375 L 262.746094 140.457031 L 262.78125 141.925781 L 259.78125 141.980469 L 258.28125 142.003906 L 256.78125 142.03125 L 256.75 140.632812 L 256.699219 139.238281 L 256.632812 137.84375 L 256.546875 136.449219 L 256.445312 135.054688 L 256.324219 133.664062 L 256.1875 132.273438 L 256.035156 130.882812 L 255.863281 129.496094 L 255.675781 128.113281 L 255.46875 126.730469 L 255.246094 125.351562 L 255.007812 123.976562 L 254.75 122.601562 L 254.476562 121.230469 L 254.1875 119.863281 L 253.878906 118.5 L 253.554688 117.144531 L 253.214844 115.789062 L 252.855469 114.4375 L 252.484375 113.089844 L 252.089844 111.75 L 251.683594 110.414062 L 251.257812 109.082031 L 250.820312 107.757812 L 250.363281 106.4375 L 249.886719 105.121094 L 249.398438 103.8125 L 248.894531 102.511719 L 248.371094 101.214844 L 247.832031 99.925781 L 247.277344 98.644531 L 246.710938 97.367188 L 246.125 96.097656 L 245.523438 94.835938 L 244.90625 93.582031 L 244.273438 92.335938 L 243.625 91.101562 L 242.964844 89.871094 L 242.285156 88.648438 L 241.59375 87.433594 L 240.882812 86.230469 L 240.160156 85.035156 L 239.421875 83.847656 L 238.671875 82.671875 L 237.902344 81.503906 L 237.121094 80.34375 L 236.328125 79.195312 L 235.519531 78.058594 L 234.695312 76.929688 L 233.855469 75.8125 L 233.003906 74.703125 L 232.140625 73.605469 L 231.261719 72.519531 L 230.367188 71.445312 L 229.464844 70.378906 L 228.546875 69.328125 L 227.613281 68.285156 L 226.667969 67.257812 L 225.710938 66.238281 L 224.742188 65.230469 Z M 223.761719 64.238281 "/>
<path style="fill:none;stroke-width:0.75;stroke-linecap:butt;stroke-linejoin:round;stroke:rgb(0%,0%,0%);stroke-opacity:1;stroke-miterlimit:10;" d="M 246.359375 185.355469 L 244.628906 184.664062 L 242.910156 183.996094 L 241.195312 183.347656 L 239.492188 182.71875 L 237.796875 182.109375 L 236.109375 181.523438 L 234.429688 180.957031 L 232.761719 180.410156 L 231.101562 179.882812 L 229.449219 179.378906 L 227.808594 178.894531 L 226.171875 178.429688 L 224.546875 177.988281 L 222.929688 177.566406 L 221.324219 177.164062 L 219.722656 176.785156 L 218.132812 176.421875 L 216.550781 176.082031 L 214.980469 175.765625 L 213.414062 175.464844 L 211.859375 175.1875 L 210.3125 174.929688 L 208.773438 174.695312 L 207.246094 174.480469 L 205.726562 174.285156 L 204.214844 174.109375 L 202.710938 173.957031 L 201.21875 173.820312 L 199.734375 173.710938 L 198.257812 173.617188 L 196.789062 173.546875 L 195.328125 173.496094 L 193.878906 173.464844 L 192.4375 173.457031 L 191.003906 173.46875 L 189.582031 173.5 L 188.167969 173.550781 L 186.761719 173.625 L 185.363281 173.71875 L 183.972656 173.832031 L 182.59375 173.96875 L 181.222656 174.125 L 179.859375 174.300781 L 178.507812 174.496094 L 177.160156 174.714844 L 175.824219 174.953125 L 174.496094 175.210938 L 173.179688 175.492188 L 171.867188 175.792969 L 170.566406 176.113281 L 169.273438 176.453125 L 167.992188 176.816406 L 166.714844 177.199219 L 165.449219 177.601562 L 164.191406 178.027344 L 162.945312 178.472656 L 161.703125 178.9375 L 160.472656 179.421875 L 159.25 179.929688 L 158.039062 180.457031 L 156.832031 181.003906 L 155.636719 181.574219 L 154.449219 182.164062 L 153.269531 182.773438 L 152.101562 183.402344 L 150.941406 184.054688 L 149.789062 184.726562 L 148.644531 185.417969 L 147.511719 186.132812 L 146.382812 186.863281 L 145.265625 187.621094 L 144.160156 188.394531 L 143.058594 189.191406 L 141.96875 190.007812 L 140.886719 190.84375 L 139.8125 191.699219 L 138.746094 192.578125 L 137.691406 193.476562 L 136.644531 194.398438 L 135.605469 195.339844 L 134.578125 196.296875 L 133.554688 197.28125 L 132.542969 198.28125 L 131.539062 199.304688 L 130.546875 200.347656 L 129.558594 201.414062 L 128.582031 202.496094 L 127.617188 203.601562 L 126.65625 204.726562 L 125.707031 205.875 L 124.761719 207.042969 L 123.832031 208.230469 L 122.90625 209.4375 L 121.988281 210.667969 L 121.082031 211.917969 L 120.183594 213.1875 L 119.296875 214.480469 L 118.414062 215.792969 L 117.542969 217.125 L 116.679688 218.476562 L 115.824219 219.851562 L 114.980469 221.246094 L 114.144531 222.660156 L 113.316406 224.09375 L 112.496094 225.550781 L 111.6875 227.027344 L 110.882812 228.527344 L 110.089844 230.042969 L 109.308594 231.582031 L 108.53125 233.140625 L 107.765625 234.722656 L 107.007812 236.324219 L 106.257812 237.945312 L 105.515625 239.585938 L 104.785156 241.25 L 104.0625 242.933594 L 103.347656 244.636719 L 102.644531 246.359375 "/>
<path style="fill-rule:nonzero;fill:rgb(0%,0%,0%);fill-opacity:1;stroke-width:0.75;stroke-linecap:round;stroke-linejoin:round;stroke:rgb(0%,0%,0%);stroke-opacity:1;stroke-miterlimit:10;" d="M 187.136719 245.625 L 186.390625 243.882812 L 185.632812 242.164062 L 184.867188 240.46875 L 184.097656 238.796875 L 183.316406 237.144531 L 182.527344 235.519531 L 181.730469 233.914062 L 180.925781 232.328125 L 180.113281 230.769531 L 179.289062 229.234375 L 178.460938 227.71875 L 177.621094 226.226562 L 176.777344 224.757812 L 175.921875 223.308594 L 175.058594 221.886719 L 174.191406 220.484375 L 173.3125 219.105469 L 172.421875 217.746094 L 171.527344 216.414062 L 170.625 215.101562 L 169.714844 213.8125 L 168.792969 212.546875 L 167.867188 211.304688 L 166.929688 210.082031 L 165.984375 208.882812 L 165.035156 207.707031 L 164.074219 206.554688 L 163.105469 205.425781 L 162.128906 204.316406 L 161.140625 203.230469 L 160.148438 202.167969 L 159.148438 201.128906 L 158.136719 200.113281 L 157.121094 199.117188 L 156.09375 198.144531 L 155.058594 197.195312 L 154.015625 196.269531 L 152.964844 195.363281 L 151.90625 194.480469 L 150.839844 193.621094 L 149.765625 192.785156 L 148.683594 191.972656 L 147.589844 191.179688 L 146.492188 190.410156 L 145.382812 189.664062 L 144.265625 188.941406 L 143.144531 188.242188 L 142.011719 187.5625 L 140.871094 186.90625 L 139.722656 186.273438 L 138.5625 185.664062 L 137.398438 185.074219 L 136.226562 184.507812 L 135.042969 183.96875 L 133.855469 183.445312 L 132.65625 182.949219 L 131.449219 182.472656 L 130.234375 182.023438 L 129.015625 181.59375 L 127.785156 181.183594 L 126.542969 180.800781 L 125.296875 180.4375 L 124.042969 180.097656 L 122.777344 179.78125 L 121.507812 179.488281 L 120.226562 179.21875 L 118.941406 178.96875 L 117.644531 178.742188 L 116.339844 178.539062 L 115.027344 178.355469 L 113.707031 178.199219 L 112.378906 178.0625 L 111.039062 177.949219 L 109.695312 177.859375 L 108.34375 177.789062 L 106.980469 177.746094 L 105.609375 177.722656 L 104.234375 177.722656 L 102.847656 177.746094 L 101.453125 177.789062 L 100.050781 177.855469 L 98.640625 177.945312 L 97.21875 178.058594 L 95.792969 178.195312 L 94.359375 178.351562 L 92.914062 178.535156 L 91.464844 178.738281 L 90.003906 178.964844 L 88.535156 179.210938 L 87.058594 179.484375 L 85.574219 179.777344 L 84.082031 180.09375 L 82.582031 180.429688 L 81.074219 180.792969 L 79.554688 181.175781 L 78.03125 181.582031 L 76.496094 182.011719 L 74.957031 182.464844 L 73.40625 182.9375 L 71.847656 183.4375 L 70.28125 183.957031 L 68.707031 184.496094 L 67.125 185.0625 L 65.535156 185.652344 L 63.9375 186.261719 L 62.328125 186.894531 L 60.714844 187.546875 L 59.089844 188.226562 L 57.457031 188.925781 L 55.820312 189.648438 L 54.171875 190.394531 L 52.515625 191.164062 L 50.851562 191.957031 L 49.179688 192.769531 L 47.496094 193.605469 L 45.808594 194.464844 L 45 192.859375 L 44.214844 191.238281 L 43.460938 189.605469 L 42.730469 187.964844 L 42.027344 186.308594 L 41.351562 184.640625 L 40.703125 182.964844 L 40.082031 181.277344 L 39.488281 179.578125 L 41.226562 178.996094 L 42.957031 178.429688 L 44.675781 177.886719 L 46.390625 177.359375 L 48.09375 176.851562 L 49.789062 176.363281 L 51.472656 175.894531 L 53.152344 175.445312 L 54.820312 175.011719 L 56.480469 174.601562 L 58.132812 174.207031 L 59.777344 173.835938 L 61.414062 173.480469 L 63.039062 173.144531 L 64.660156 172.828125 L 66.269531 172.53125 L 67.871094 172.25 L 69.460938 171.992188 L 71.046875 171.75 L 72.621094 171.53125 L 74.1875 171.328125 L 75.746094 171.144531 L 77.296875 170.980469 L 78.839844 170.835938 L 80.371094 170.707031 L 81.894531 170.601562 L 83.414062 170.515625 L 84.917969 170.445312 L 86.417969 170.394531 L 87.910156 170.363281 L 89.390625 170.351562 L 90.863281 170.359375 L 92.328125 170.386719 L 93.785156 170.429688 L 95.234375 170.496094 L 96.671875 170.578125 L 98.101562 170.683594 L 99.523438 170.804688 L 100.9375 170.945312 L 102.34375 171.105469 L 103.742188 171.28125 L 105.128906 171.480469 L 106.507812 171.699219 L 107.878906 171.933594 L 109.242188 172.1875 L 110.597656 172.460938 L 111.941406 172.753906 L 113.277344 173.066406 L 114.605469 173.398438 L 115.925781 173.75 L 117.238281 174.117188 L 118.539062 174.507812 L 119.835938 174.914062 L 121.121094 175.339844 L 122.398438 175.785156 L 123.667969 176.25 L 124.925781 176.734375 L 126.179688 177.238281 L 127.421875 177.757812 L 128.65625 178.300781 L 129.882812 178.859375 L 131.101562 179.4375 L 132.308594 180.039062 L 133.511719 180.65625 L 134.703125 181.289062 L 135.886719 181.945312 L 137.0625 182.621094 L 138.226562 183.3125 L 139.386719 184.027344 L 140.535156 184.757812 L 141.675781 185.507812 L 142.808594 186.277344 L 143.929688 187.066406 L 145.046875 187.875 L 146.152344 188.699219 L 147.25 189.546875 L 148.339844 190.410156 L 149.421875 191.292969 L 150.496094 192.195312 L 151.558594 193.121094 L 152.617188 194.058594 L 153.664062 195.019531 L 154.699219 196 L 155.730469 196.996094 L 156.753906 198.015625 L 157.765625 199.050781 L 158.769531 200.105469 L 159.765625 201.179688 L 160.753906 202.273438 L 161.734375 203.386719 L 162.703125 204.519531 L 163.664062 205.667969 L 164.617188 206.839844 L 165.5625 208.027344 L 166.5 209.234375 L 167.425781 210.460938 L 168.347656 211.707031 L 169.257812 212.972656 L 170.160156 214.257812 L 171.054688 215.558594 L 171.9375 216.882812 L 172.816406 218.222656 L 173.683594 219.582031 L 174.542969 220.964844 L 175.394531 222.363281 L 176.234375 223.777344 L 177.070312 225.214844 L 177.894531 226.671875 L 178.710938 228.144531 L 179.519531 229.640625 L 180.320312 231.152344 L 181.113281 232.683594 L 181.894531 234.234375 L 182.667969 235.804688 L 183.433594 237.394531 L 184.191406 239 L 184.941406 240.628906 L 185.683594 242.273438 L 186.414062 243.941406 Z M 187.136719 245.625 "/>
<path style="fill-rule:nonzero;fill:rgb(0%,0%,0%);fill-opacity:1;stroke-width:0.75;stroke-linecap:round;stroke-linejoin:round;stroke:rgb(0%,0%,0%);stroke-opacity:1;stroke-miterlimit:10;" d="M 252.917969 162.03125 L 251.273438 161.753906 L 249.632812 161.464844 L 248.003906 161.167969 L 246.382812 160.859375 L 244.769531 160.542969 L 243.167969 160.214844 L 241.570312 159.875 L 239.984375 159.527344 L 238.40625 159.171875 L 236.835938 158.804688 L 235.273438 158.425781 L 233.71875 158.039062 L 232.175781 157.640625 L 230.640625 157.234375 L 229.109375 156.816406 L 227.589844 156.390625 L 226.078125 155.953125 L 224.578125 155.503906 L 223.082031 155.046875 L 221.597656 154.582031 L 220.117188 154.105469 L 218.648438 153.617188 L 217.1875 153.121094 L 215.734375 152.617188 L 214.292969 152.097656 L 212.855469 151.574219 L 211.429688 151.035156 L 210.011719 150.492188 L 208.601562 149.933594 L 207.199219 149.367188 L 205.804688 148.792969 L 204.417969 148.207031 L 203.042969 147.609375 L 201.675781 147.003906 L 200.3125 146.390625 L 198.964844 145.765625 L 197.621094 145.128906 L 196.285156 144.484375 L 194.960938 143.828125 L 193.640625 143.160156 L 192.332031 142.488281 L 191.03125 141.800781 L 189.738281 141.105469 L 188.453125 140.402344 L 187.179688 139.6875 L 185.910156 138.960938 L 184.652344 138.226562 L 183.402344 137.480469 L 182.160156 136.726562 L 180.925781 135.964844 L 179.703125 135.1875 L 178.484375 134.402344 L 177.277344 133.609375 L 176.078125 132.804688 L 174.886719 131.992188 L 173.703125 131.167969 L 172.527344 130.332031 L 171.363281 129.488281 L 170.203125 128.636719 L 169.054688 127.773438 L 167.914062 126.898438 L 166.78125 126.015625 L 165.65625 125.121094 L 164.542969 124.21875 L 163.433594 123.304688 L 162.335938 122.378906 L 161.246094 121.445312 L 160.164062 120.503906 L 159.089844 119.550781 L 158.023438 118.585938 L 156.964844 117.613281 L 155.917969 116.632812 L 154.878906 115.640625 L 153.847656 114.636719 L 152.824219 113.625 L 151.808594 112.601562 L 150.804688 111.566406 L 149.804688 110.527344 L 148.816406 109.472656 L 147.835938 108.410156 L 146.863281 107.339844 L 145.898438 106.257812 L 144.941406 105.164062 L 143.996094 104.0625 L 143.054688 102.949219 L 142.125 101.828125 L 141.203125 100.695312 L 140.289062 99.554688 L 139.382812 98.402344 L 138.488281 97.242188 L 137.597656 96.070312 L 136.71875 94.886719 L 135.847656 93.695312 L 134.984375 92.496094 L 134.128906 91.285156 L 133.28125 90.0625 L 132.445312 88.832031 L 131.617188 87.589844 L 130.792969 86.339844 L 129.980469 85.078125 L 129.179688 83.808594 L 128.382812 82.527344 L 127.59375 81.238281 L 126.816406 79.9375 L 126.046875 78.625 L 125.28125 77.304688 L 124.527344 75.976562 L 123.785156 74.636719 L 123.046875 73.285156 L 122.320312 71.925781 L 121.597656 70.554688 L 120.886719 69.175781 L 120.183594 67.785156 L 119.488281 66.382812 L 118.800781 64.976562 L 118.125 63.554688 L 117.453125 62.125 L 116.792969 60.6875 L 116.140625 59.238281 L 115.496094 57.777344 L 114.859375 56.308594 L 114.234375 54.828125 L 113.613281 53.339844 L 113.003906 51.839844 L 112.402344 50.332031 L 111.808594 48.8125 L 111.222656 47.285156 L 110.644531 45.746094 L 110.078125 44.195312 L 109.515625 42.636719 L 108.964844 41.070312 L 108.421875 39.488281 L 106.722656 40.082031 L 105.035156 40.703125 L 103.359375 41.351562 L 101.691406 42.027344 L 100.035156 42.730469 L 98.394531 43.460938 L 96.761719 44.214844 L 95.140625 45 L 93.535156 45.808594 L 94.28125 47.25 L 95.03125 48.679688 L 95.789062 50.105469 L 96.554688 51.523438 L 97.324219 52.929688 L 98.101562 54.332031 L 98.882812 55.726562 L 99.671875 57.109375 L 100.464844 58.488281 L 101.265625 59.859375 L 102.070312 61.21875 L 102.882812 62.574219 L 103.703125 63.921875 L 104.527344 65.257812 L 105.359375 66.589844 L 106.195312 67.914062 L 107.039062 69.226562 L 107.890625 70.535156 L 108.746094 71.835938 L 109.609375 73.125 L 110.476562 74.410156 L 111.351562 75.6875 L 112.230469 76.953125 L 113.117188 78.214844 L 114.011719 79.46875 L 114.910156 80.710938 L 115.8125 81.949219 L 116.726562 83.179688 L 117.640625 84.398438 L 118.566406 85.613281 L 119.496094 86.820312 L 120.429688 88.015625 L 121.371094 89.207031 L 122.320312 90.390625 L 123.273438 91.5625 L 124.234375 92.730469 L 125.203125 93.890625 L 126.175781 95.039062 L 127.152344 96.183594 L 128.136719 97.320312 L 129.128906 98.449219 L 130.125 99.566406 L 131.128906 100.679688 L 132.140625 101.785156 L 133.15625 102.878906 L 134.175781 103.96875 L 135.203125 105.050781 L 136.238281 106.121094 L 137.277344 107.1875 L 138.324219 108.246094 L 139.378906 109.292969 L 140.4375 110.335938 L 141.5 111.371094 L 142.570312 112.394531 L 143.648438 113.414062 L 144.730469 114.425781 L 145.820312 115.429688 L 146.917969 116.421875 L 148.019531 117.410156 L 149.125 118.390625 L 150.242188 119.359375 L 151.359375 120.324219 L 152.488281 121.28125 L 153.621094 122.226562 L 154.757812 123.167969 L 155.902344 124.101562 L 157.054688 125.023438 L 158.210938 125.941406 L 159.375 126.851562 L 160.542969 127.753906 L 161.71875 128.644531 L 162.898438 129.53125 L 164.085938 130.410156 L 165.28125 131.277344 L 166.480469 132.140625 L 167.6875 132.996094 L 168.898438 133.839844 L 170.117188 134.679688 L 171.34375 135.511719 L 172.574219 136.335938 L 173.808594 137.148438 L 175.054688 137.957031 L 176.300781 138.757812 L 177.558594 139.546875 L 178.820312 140.332031 L 180.085938 141.109375 L 181.359375 141.875 L 182.640625 142.636719 L 183.925781 143.390625 L 185.21875 144.136719 L 186.515625 144.871094 L 187.820312 145.601562 L 189.132812 146.324219 L 190.449219 147.035156 L 191.773438 147.742188 L 193.101562 148.441406 L 194.4375 149.132812 L 195.777344 149.8125 L 197.125 150.488281 L 198.480469 151.15625 L 199.839844 151.8125 L 201.203125 152.464844 L 202.578125 153.109375 L 203.957031 153.746094 L 205.339844 154.371094 L 206.730469 154.992188 L 208.125 155.605469 L 209.53125 156.207031 L 210.9375 156.804688 L 212.355469 157.394531 L 213.773438 157.976562 L 215.203125 158.546875 L 216.636719 159.113281 L 218.074219 159.671875 L 219.523438 160.21875 L 220.972656 160.761719 L 222.433594 161.296875 L 223.894531 161.824219 L 225.367188 162.339844 L 226.84375 162.851562 L 228.324219 163.355469 L 229.816406 163.851562 L 231.308594 164.335938 L 232.8125 164.816406 L 234.316406 165.289062 L 235.832031 165.75 L 237.351562 166.207031 L 238.878906 166.65625 L 240.410156 167.097656 L 241.945312 167.527344 L 243.492188 167.953125 L 245.042969 168.371094 L 246.597656 168.777344 L 248.160156 169.179688 L 249.730469 169.574219 L 251.304688 169.960938 L 251.761719 167.988281 L 252.183594 166.011719 L 252.570312 164.023438 Z M 252.917969 162.03125 "/>
<path style="fill-rule:nonzero;fill:rgb(0%,0%,0%);fill-opacity:1;stroke-width:0.75;stroke-linecap:round;stroke-linejoin:round;stroke:rgb(0%,0%,0%);stroke-opacity:1;stroke-miterlimit:10;" d="M 185.355469 41.640625 L 184.683594 43.28125 L 184.003906 44.910156 L 183.316406 46.519531 L 182.617188 48.117188 L 181.910156 49.699219 L 181.195312 51.261719 L 180.472656 52.8125 L 179.738281 54.34375 L 178.996094 55.863281 L 178.246094 57.367188 L 177.488281 58.851562 L 176.71875 60.324219 L 175.941406 61.777344 L 175.15625 63.21875 L 174.363281 64.640625 L 173.558594 66.050781 L 172.746094 67.441406 L 171.925781 68.820312 L 171.097656 70.179688 L 170.257812 71.527344 L 169.410156 72.855469 L 168.554688 74.171875 L 167.691406 75.46875 L 166.816406 76.753906 L 165.933594 78.019531 L 165.042969 79.273438 L 164.144531 80.507812 L 163.234375 81.726562 L 162.316406 82.933594 L 161.390625 84.121094 L 160.457031 85.296875 L 159.511719 86.453125 L 158.558594 87.59375 L 157.597656 88.722656 L 156.628906 89.832031 L 155.648438 90.925781 L 154.660156 92.007812 L 153.664062 93.070312 L 152.660156 94.117188 L 151.644531 95.152344 L 150.621094 96.167969 L 149.589844 97.167969 L 148.550781 98.152344 L 147.5 99.125 L 146.441406 100.078125 L 145.375 101.015625 L 144.300781 101.9375 L 143.214844 102.847656 L 142.121094 103.738281 L 141.019531 104.613281 L 139.910156 105.472656 L 138.789062 106.316406 L 137.660156 107.148438 L 136.523438 107.960938 L 135.378906 108.757812 L 134.222656 109.539062 L 133.058594 110.304688 L 131.886719 111.054688 L 130.707031 111.792969 L 129.515625 112.511719 L 128.316406 113.214844 L 127.109375 113.902344 L 125.894531 114.574219 L 124.667969 115.230469 L 123.433594 115.871094 L 122.191406 116.496094 L 120.941406 117.105469 L 119.679688 117.699219 L 118.410156 118.277344 L 117.132812 118.839844 L 115.847656 119.386719 L 114.550781 119.917969 L 113.246094 120.433594 L 111.933594 120.933594 L 110.613281 121.417969 L 109.28125 121.886719 L 107.941406 122.339844 L 106.59375 122.777344 L 105.238281 123.199219 L 103.871094 123.605469 L 102.496094 123.996094 L 101.113281 124.371094 L 99.722656 124.730469 L 98.320312 125.074219 L 96.910156 125.402344 L 95.492188 125.714844 L 94.066406 126.011719 L 92.628906 126.289062 L 91.1875 126.554688 L 89.730469 126.804688 L 88.269531 127.039062 L 86.796875 127.257812 L 85.320312 127.460938 L 83.828125 127.648438 L 82.332031 127.816406 L 80.828125 127.972656 L 79.3125 128.113281 L 77.789062 128.238281 L 76.253906 128.347656 L 74.714844 128.4375 L 73.164062 128.515625 L 71.605469 128.578125 L 70.035156 128.625 L 68.460938 128.652344 L 66.875 128.667969 L 65.28125 128.667969 L 63.675781 128.648438 L 62.066406 128.617188 L 60.445312 128.570312 L 58.816406 128.503906 L 57.175781 128.425781 L 55.53125 128.332031 L 53.875 128.21875 L 52.210938 128.09375 L 50.539062 127.953125 L 48.855469 127.792969 L 47.164062 127.621094 L 45.464844 127.433594 L 43.757812 127.226562 L 42.039062 127.007812 L 40.3125 126.769531 L 38.578125 126.519531 L 36.835938 126.25 L 35.082031 125.96875 L 35.429688 123.976562 L 35.816406 121.988281 L 36.238281 120.011719 L 36.695312 118.039062 L 38.449219 118.457031 L 40.195312 118.855469 L 41.933594 119.238281 L 43.660156 119.605469 L 45.378906 119.953125 L 47.089844 120.285156 L 48.792969 120.597656 L 50.484375 120.894531 L 52.167969 121.171875 L 53.84375 121.433594 L 55.507812 121.679688 L 57.167969 121.90625 L 58.816406 122.117188 L 60.453125 122.308594 L 62.085938 122.484375 L 63.707031 122.640625 L 65.320312 122.785156 L 66.921875 122.90625 L 68.519531 123.015625 L 70.105469 123.101562 L 71.683594 123.175781 L 73.25 123.230469 L 74.8125 123.269531 L 76.363281 123.289062 L 77.902344 123.292969 L 79.4375 123.277344 L 80.960938 123.246094 L 82.476562 123.195312 L 83.984375 123.132812 L 85.480469 123.046875 L 86.96875 122.949219 L 88.449219 122.832031 L 89.921875 122.695312 L 91.382812 122.542969 L 92.835938 122.375 L 94.28125 122.1875 L 95.714844 121.984375 L 97.144531 121.761719 L 98.5625 121.523438 L 99.96875 121.269531 L 101.371094 120.996094 L 102.761719 120.707031 L 104.144531 120.398438 L 105.515625 120.074219 L 106.882812 119.734375 L 108.238281 119.375 L 109.585938 118.996094 L 110.921875 118.605469 L 112.253906 118.191406 L 113.574219 117.765625 L 114.882812 117.320312 L 116.1875 116.859375 L 117.480469 116.378906 L 118.765625 115.882812 L 120.042969 115.367188 L 121.308594 114.835938 L 122.566406 114.285156 L 123.816406 113.722656 L 125.058594 113.136719 L 126.289062 112.539062 L 127.511719 111.917969 L 128.726562 111.285156 L 129.933594 110.632812 L 131.128906 109.964844 L 132.316406 109.277344 L 133.496094 108.574219 L 134.664062 107.851562 L 135.824219 107.113281 L 136.976562 106.359375 L 138.121094 105.585938 L 139.253906 104.796875 L 140.378906 103.988281 L 141.496094 103.164062 L 142.605469 102.320312 L 143.703125 101.460938 L 144.792969 100.585938 L 145.875 99.691406 L 146.949219 98.78125 L 148.011719 97.855469 L 149.066406 96.910156 L 150.113281 95.945312 L 151.148438 94.964844 L 152.175781 93.96875 L 153.195312 92.957031 L 154.207031 91.925781 L 155.207031 90.875 L 156.199219 89.808594 L 157.183594 88.726562 L 158.160156 87.625 L 159.125 86.507812 L 160.082031 85.375 L 161.03125 84.222656 L 161.96875 83.050781 L 162.898438 81.863281 L 163.820312 80.660156 L 164.734375 79.441406 L 165.636719 78.203125 L 166.53125 76.945312 L 167.417969 75.671875 L 168.296875 74.382812 L 169.164062 73.074219 L 170.023438 71.75 L 170.875 70.410156 L 171.71875 69.050781 L 172.550781 67.675781 L 173.375 66.28125 L 174.191406 64.871094 L 174.996094 63.441406 L 175.792969 61.996094 L 176.582031 60.535156 L 177.363281 59.054688 L 178.132812 57.558594 L 178.894531 56.042969 L 179.648438 54.511719 L 180.394531 52.960938 L 181.128906 51.398438 L 181.855469 49.8125 L 182.574219 48.214844 L 183.28125 46.59375 L 183.984375 44.960938 L 184.675781 43.308594 Z M 185.355469 41.640625 "/>
</g>
</svg>
