<?xml version="1.0" encoding="UTF-8"?>
<svg xmlns="http://www.w3.org/2000/svg" xmlns:xlink="http://www.w3.org/1999/xlink" width="288pt" height="288pt" viewBox="0 0 288 288" version="1.1">
<g id="surface229">
<rect x="0" y="0" width="288" height="288" style="fill:rgb(100%,100%,100%);fill-opacity:1;stroke:none;"/>
<path style=" stroke:none;fill-rule:nonzero;fill:rgb(74.509804%,74.509804%,74.509804%);fill-opacity:1;" d="M 256.800781 144 L 262.800781 144 L 262.789062 145.472656 L 262.761719 146.941406 L 262.71875 148.414062 L 262.652344 149.882812 L 262.570312 151.351562 L 262.472656 152.820312 L 262.355469 154.289062 L 262.21875 155.753906 L 262.0625 157.214844 L 261.890625 158.675781 L 261.699219 160.136719 L 261.488281 161.59375 L 261.261719 163.046875 L 261.019531 164.496094 L 260.753906 165.945312 L 260.476562 167.390625 L 260.175781 168.832031 L 259.859375 170.269531 L 259.523438 171.699219 L 259.171875 173.128906 L 258.804688 174.554688 L 258.417969 175.972656 L 258.011719 177.386719 L 257.589844 178.796875 L 257.148438 180.203125 L 256.691406 181.601562 L 256.21875 182.992188 L 255.726562 184.378906 L 255.21875 185.761719 L 254.691406 187.136719 L 254.148438 188.503906 L 253.589844 189.863281 L 253.011719 191.21875 L 252.421875 192.566406 L 251.808594 193.902344 L 251.183594 195.234375 L 250.542969 196.558594 L 249.882812 197.875 L 249.207031 199.183594 L 248.515625 200.480469 L 247.808594 201.769531 L 247.082031 203.050781 L 246.34375 204.324219 L 245.589844 205.585938 L 244.820312 206.839844 L 244.03125 208.085938 L 243.230469 209.320312 L 242.414062 210.542969 L 241.582031 211.757812 L 240.738281 212.960938 L 239.875 214.152344 L 239 215.335938 L 238.109375 216.507812 L 237.203125 217.667969 L 236.28125 218.816406 L 235.347656 219.953125 L 234.402344 221.078125 L 233.441406 222.191406 L 232.464844 223.292969 L 231.476562 224.382812 L 230.472656 225.460938 L 229.457031 226.527344 L 227.300781 224.441406 L 226.21875 223.398438 L 225.140625 222.359375 L 226.105469 221.347656 L 227.058594 220.324219 L 227.996094 219.289062 L 228.921875 218.242188 L 229.835938 217.183594 L 230.734375 216.117188 L 231.621094 215.035156 L 232.496094 213.945312 L 233.355469 212.84375 L 234.199219 211.734375 L 235.03125 210.609375 L 235.851562 209.476562 L 236.65625 208.335938 L 237.445312 207.183594 L 238.21875 206.019531 L 238.980469 204.847656 L 239.726562 203.667969 L 240.457031 202.476562 L 241.175781 201.277344 L 241.878906 200.070312 L 242.566406 198.851562 L 243.238281 197.628906 L 243.894531 196.394531 L 244.535156 195.152344 L 245.160156 193.90625 L 245.769531 192.648438 L 246.367188 191.382812 L 246.945312 190.113281 L 247.507812 188.832031 L 248.054688 187.546875 L 248.585938 186.253906 L 249.101562 184.957031 L 249.601562 183.652344 L 250.082031 182.339844 L 250.550781 181.023438 L 251 179.703125 L 251.433594 178.375 L 251.851562 177.039062 L 252.253906 175.703125 L 252.636719 174.359375 L 253.003906 173.011719 L 253.355469 171.660156 L 253.691406 170.300781 L 254.007812 168.941406 L 254.308594 167.578125 L 254.59375 166.207031 L 254.859375 164.835938 L 255.109375 163.460938 L 255.339844 162.085938 L 255.554688 160.703125 L 255.753906 159.320312 L 255.9375 157.9375 L 256.101562 156.546875 L 256.246094 155.160156 L 256.375 153.769531 L 256.488281 152.375 L 256.582031 150.980469 L 256.660156 149.585938 L 256.722656 148.191406 L 256.765625 146.792969 L 256.792969 145.398438 Z M 256.800781 144 "/>
<path style=" stroke:none;fill-rule:nonzero;fill:rgb(74.509804%,74.509804%,74.509804%);fill-opacity:1;" d="M 223.761719 223.761719 L 228.003906 228.003906 L 226.957031 229.039062 L 225.898438 230.058594 L 224.824219 231.066406 L 223.742188 232.0625 L 222.644531 233.042969 L 221.535156 234.007812 L 220.414062 234.964844 L 219.28125 235.902344 L 218.136719 236.828125 L 216.980469 237.738281 L 215.816406 238.636719 L 214.636719 239.519531 L 213.449219 240.386719 L 212.25 241.238281 L 211.039062 242.078125 L 209.820312 242.898438 L 208.589844 243.707031 L 207.351562 244.5 L 206.101562 245.277344 L 204.84375 246.039062 L 203.574219 246.785156 L 202.296875 247.511719 L 201.007812 248.226562 L 199.714844 248.925781 L 198.410156 249.609375 L 197.097656 250.273438 L 195.777344 250.921875 L 194.449219 251.554688 L 193.113281 252.171875 L 191.769531 252.773438 L 190.417969 253.355469 L 189.0625 253.921875 L 187.695312 254.472656 L 186.324219 255.003906 L 184.945312 255.519531 L 183.5625 256.019531 L 182.171875 256.5 L 180.773438 256.964844 L 179.371094 257.410156 L 177.964844 257.839844 L 176.554688 258.253906 L 175.136719 258.648438 L 173.710938 259.023438 L 172.285156 259.382812 L 170.855469 259.726562 L 169.417969 260.046875 L 167.980469 260.355469 L 166.535156 260.644531 L 165.089844 260.914062 L 163.640625 261.164062 L 162.1875 261.398438 L 160.734375 261.617188 L 159.273438 261.8125 L 157.8125 261.992188 L 156.351562 262.15625 L 154.886719 262.300781 L 153.421875 262.425781 L 151.953125 262.535156 L 150.484375 262.621094 L 149.015625 262.695312 L 147.542969 262.746094 L 146.074219 262.78125 L 146.019531 259.78125 L 145.996094 258.28125 L 145.96875 256.78125 L 147.367188 256.75 L 148.761719 256.699219 L 150.15625 256.632812 L 151.550781 256.546875 L 152.945312 256.445312 L 154.335938 256.324219 L 155.726562 256.1875 L 157.117188 256.035156 L 158.503906 255.863281 L 159.886719 255.675781 L 161.269531 255.46875 L 162.648438 255.246094 L 164.023438 255.007812 L 165.398438 254.75 L 166.769531 254.476562 L 168.136719 254.1875 L 169.5 253.878906 L 170.855469 253.554688 L 172.210938 253.214844 L 173.5625 252.855469 L 174.910156 252.484375 L 176.25 252.089844 L 177.585938 251.683594 L 178.917969 251.257812 L 180.242188 250.820312 L 181.5625 250.363281 L 182.878906 249.886719 L 184.1875 249.398438 L 185.488281 248.894531 L 186.785156 248.371094 L 188.074219 247.832031 L 189.355469 247.277344 L 190.632812 246.710938 L 191.902344 246.125 L 193.164062 245.523438 L 194.417969 244.90625 L 195.664062 244.273438 L 196.898438 243.625 L 198.128906 242.964844 L 199.351562 242.285156 L 200.566406 241.59375 L 201.769531 240.882812 L 202.964844 240.160156 L 204.152344 239.421875 L 205.328125 238.671875 L 206.496094 237.902344 L 207.65625 237.121094 L 208.804688 236.328125 L 209.941406 235.519531 L 211.070312 234.695312 L 212.1875 233.855469 L 213.296875 233.003906 L 214.394531 232.140625 L 215.480469 231.261719 L 216.554688 230.367188 L 217.621094 229.464844 L 218.671875 228.546875 L 219.714844 227.613281 L 220.742188 226.667969 L 221.761719 225.710938 L 222.769531 224.742188 Z M 223.761719 223.761719 "/>
<path style=" stroke:none;fill-rule:nonzero;fill:rgb(74.509804%,74.509804%,74.509804%);fill-opacity:1;" d="M 144 256.800781 L 144 262.800781 L 142.527344 262.789062 L 141.058594 262.761719 L 139.585938 262.71875 L 138.117188 262.652344 L 136.648438 262.570312 L 135.179688 262.472656 L 133.710938 262.355469 L 132.246094 262.21875 L 130.785156 262.0625 L 129.324219 261.890625 L 127.863281 261.699219 L 126.40625 261.488281 L 124.953125 261.261719 L 123.503906 261.019531 L 122.054688 260.753906 L 120.609375 260.476562 L 119.167969 260.175781 L 117.730469 259.859375 L 116.300781 259.523438 L 114.871094 259.171875 L 113.445312 258.804688 L 112.027344 258.417969 L 110.613281 258.011719 L 109.203125 257.589844 L 107.796875 257.148438 L 106.398438 256.691406 L 105.007812 256.21875 L 103.621094 255.726562 L 102.238281 255.21875 L 100.863281 254.691406 L 99.496094 254.148438 L 98.136719 253.589844 L 96.78125 253.011719 L 95.433594 252.421875 L 94.097656 251.808594 L 92.765625 251.183594 L 91.441406 250.542969 L 90.125 249.882812 L 88.816406 249.207031 L 87.519531 248.515625 L 86.230469 247.808594 L 84.949219 247.082031 L 83.675781 246.34375 L 82.414062 245.589844 L 81.160156 244.820312 L 79.914062 244.03125 L 78.679688 243.230469 L 77.457031 242.414062 L 76.242188 241.582031 L 75.039062 240.738281 L 73.847656 239.875 L 72.664062 239 L 71.492188 238.109375 L 70.332031 237.203125 L 69.183594 236.28125 L 68.046875 235.347656 L 66.921875 234.402344 L 65.808594 233.441406 L 64.707031 232.464844 L 63.617188 231.476562 L 62.539062 230.472656 L 61.472656 229.457031 L 63.558594 227.300781 L 64.601562 226.21875 L 65.640625 225.140625 L 66.652344 226.105469 L 67.675781 227.058594 L 68.710938 227.996094 L 69.757812 228.921875 L 70.816406 229.835938 L 71.882812 230.734375 L 72.964844 231.621094 L 74.054688 232.496094 L 75.15625 233.355469 L 76.265625 234.199219 L 77.390625 235.03125 L 78.523438 235.851562 L 79.664062 236.65625 L 80.816406 237.445312 L 81.980469 238.21875 L 83.152344 238.980469 L 84.332031 239.726562 L 85.523438 240.457031 L 86.722656 241.175781 L 87.929688 241.878906 L 89.148438 242.566406 L 90.371094 243.238281 L 91.605469 243.894531 L 92.847656 244.535156 L 94.09375 245.160156 L 95.351562 245.769531 L 96.617188 246.367188 L 97.886719 246.945312 L 99.167969 247.507812 L 100.453125 248.054688 L 101.746094 248.585938 L 103.042969 249.101562 L 104.347656 249.601562 L 105.660156 250.082031 L 106.976562 250.550781 L 108.296875 251 L 109.625 251.433594 L 110.960938 251.851562 L 112.296875 252.253906 L 113.640625 252.636719 L 114.988281 253.003906 L 116.339844 253.355469 L 117.699219 253.691406 L 119.058594 254.007812 L 120.421875 254.308594 L 121.792969 254.59375 L 123.164062 254.859375 L 124.539062 255.109375 L 125.914062 255.339844 L 127.296875 255.554688 L 128.679688 255.753906 L 130.0625 255.9375 L 131.453125 256.101562 L 132.839844 256.246094 L 134.230469 256.375 L 135.625 256.488281 L 137.019531 256.582031 L 138.414062 256.660156 L 139.808594 256.722656 L 141.207031 256.765625 L 142.601562 256.792969 Z M 144 256.800781 "/>
<path style=" stroke:none;fill-rule:nonzero;fill:rgb(74.509804%,74.509804%,74.509804%);fill-opacity:1;" d="M 64.238281 223.761719 L 59.996094 228.003906 L 58.960938 226.957031 L 57.941406 225.898438 L 56.933594 224.824219 L 55.9375 223.742188 L 54.957031 222.644531 L 53.992188 221.535156 L 53.035156 220.414062 L 52.097656 219.28125 L 51.171875 218.136719 L 50.261719 216.980469 L 49.363281 215.816406 L 48.480469 214.636719 L 47.613281 213.449219 L 46.761719 212.25 L 45.921875 211.039062 L 45.101562 209.820312 L 44.292969 208.589844 L 43.5 207.351562 L 42.722656 206.101562 L 41.960938 204.84375 L 41.214844 203.574219 L 40.488281 202.296875 L 39.773438 201.007812 L 39.074219 199.714844 L 38.390625 198.410156 L 37.726562 197.097656 L 37.078125 195.777344 L 36.445312 194.449219 L 35.828125 193.113281 L 35.226562 191.769531 L 34.644531 190.417969 L 34.078125 189.0625 L 33.527344 187.695312 L 32.996094 186.324219 L 32.480469 184.945312 L 31.980469 183.5625 L 31.5 182.171875 L 31.035156 180.773438 L 30.589844 179.371094 L 30.160156 177.964844 L 29.746094 176.554688 L 29.351562 175.136719 L 28.976562 173.710938 L 28.617188 172.285156 L 28.273438 170.855469 L 27.953125 169.417969 L 27.644531 167.980469 L 27.355469 166.535156 L 27.085938 165.089844 L 26.835938 163.640625 L 26.601562 162.1875 L 26.382812 160.734375 L 26.1875 159.273438 L 26.007812 157.8125 L 25.84375 156.351562 L 25.699219 154.886719 L 25.574219 153.421875 L 25.464844 151.953125 L 25.378906 150.484375 L 25.304688 149.015625 L 25.253906 147.542969 L 25.21875 146.074219 L 28.21875 146.019531 L 29.71875 145.996094 L 31.21875 145.96875 L 31.25 147.367188 L 31.300781 148.761719 L 31.367188 150.15625 L 31.453125 151.550781 L 31.554688 152.945312 L 31.675781 154.335938 L 31.8125 155.726562 L 31.964844 157.117188 L 32.136719 158.503906 L 32.324219 159.886719 L 32.53125 161.269531 L 32.753906 162.648438 L 32.992188 164.023438 L 33.25 165.398438 L 33.523438 166.769531 L 33.8125 168.136719 L 34.121094 169.5 L 34.445312 170.855469 L 34.785156 172.210938 L 35.144531 173.5625 L 35.515625 174.910156 L 35.910156 176.25 L 36.316406 177.585938 L 36.742188 178.917969 L 37.179688 180.242188 L 37.636719 181.5625 L 38.113281 182.878906 L 38.601562 184.1875 L 39.105469 185.488281 L 39.628906 186.785156 L 40.167969 188.074219 L 40.722656 189.355469 L 41.289062 190.632812 L 41.875 191.902344 L 42.476562 193.164062 L 43.09375 194.417969 L 43.726562 195.664062 L 44.375 196.898438 L 45.035156 198.128906 L 45.714844 199.351562 L 46.40625 200.566406 L 47.117188 201.769531 L 47.839844 202.964844 L 48.578125 204.152344 L 49.328125 205.328125 L 50.097656 206.496094 L 50.878906 207.65625 L 51.671875 208.804688 L 52.480469 209.941406 L 53.304688 211.070312 L 54.144531 212.1875 L 54.996094 213.296875 L 55.859375 214.394531 L 56.738281 215.480469 L 57.632812 216.554688 L 58.535156 217.621094 L 59.453125 218.671875 L 60.386719 219.714844 L 61.332031 220.742188 L 62.289062 221.761719 L 63.257812 222.769531 Z M 64.238281 223.761719 "/>
<path style=" stroke:none;fill-rule:nonzero;fill:rgb(74.509804%,74.509804%,74.509804%);fill-opacity:1;" d="M 31.199219 144 L 25.199219 144 L 25.210938 142.527344 L 25.238281 141.058594 L 25.28125 139.585938 L 25.347656 138.117188 L 25.429688 136.648438 L 25.527344 135.179688 L 25.644531 133.710938 L 25.78125 132.246094 L 25.9375 130.785156 L 26.109375 129.324219 L 26.300781 127.863281 L 26.511719 126.40625 L 26.738281 124.953125 L 26.980469 123.503906 L 27.246094 122.054688 L 27.523438 120.609375 L 27.824219 119.167969 L 28.140625 117.730469 L 28.476562 116.300781 L 28.828125 114.871094 L 29.195312 113.445312 L 29.582031 112.027344 L 29.988281 110.613281 L 30.410156 109.203125 L 30.851562 107.796875 L 31.308594 106.398438 L 31.78125 105.007812 L 32.273438 103.621094 L 32.78125 102.238281 L 33.308594 100.863281 L 33.851562 99.496094 L 34.410156 98.136719 L 34.988281 96.78125 L 35.578125 95.433594 L 36.191406 94.097656 L 36.816406 92.765625 L 37.457031 91.441406 L 38.117188 90.125 L 38.792969 88.816406 L 39.484375 87.519531 L 40.191406 86.230469 L 40.917969 84.949219 L 41.65625 83.675781 L 42.410156 82.414062 L 43.179688 81.160156 L 43.96875 79.914062 L 44.769531 78.679688 L 45.585938 77.457031 L 46.417969 76.242188 L 47.261719 75.039062 L 48.125 73.847656 L 49 72.664062 L 49.890625 71.492188 L 50.796875 70.332031 L 51.71875 69.183594 L 52.652344 68.046875 L 53.597656 66.921875 L 54.558594 65.808594 L 55.535156 64.707031 L 56.523438 63.617188 L 57.527344 62.539062 L 58.542969 61.472656 L 60.699219 63.558594 L 61.78125 64.601562 L 62.859375 65.640625 L 61.894531 66.652344 L 60.941406 67.675781 L 60.003906 68.710938 L 59.078125 69.757812 L 58.164062 70.816406 L 57.265625 71.882812 L 56.378906 72.964844 L 55.503906 74.054688 L 54.644531 75.15625 L 53.800781 76.265625 L 52.96875 77.390625 L 52.148438 78.523438 L 51.34375 79.664062 L 50.554688 80.816406 L 49.78125 81.980469 L 49.019531 83.152344 L 48.273438 84.332031 L 47.542969 85.523438 L 46.824219 86.722656 L 46.121094 87.929688 L 45.433594 89.148438 L 44.761719 90.371094 L 44.105469 91.605469 L 43.464844 92.847656 L 42.839844 94.09375 L 42.230469 95.351562 L 41.632812 96.617188 L 41.054688 97.886719 L 40.492188 99.167969 L 39.945312 100.453125 L 39.414062 101.746094 L 38.898438 103.042969 L 38.398438 104.347656 L 37.917969 105.660156 L 37.449219 106.976562 L 37 108.296875 L 36.566406 109.625 L 36.148438 110.960938 L 35.746094 112.296875 L 35.363281 113.640625 L 34.996094 114.988281 L 34.644531 116.339844 L 34.308594 117.699219 L 33.992188 119.058594 L 33.691406 120.421875 L 33.40625 121.792969 L 33.140625 123.164062 L 32.890625 124.539062 L 32.660156 125.914062 L 32.445312 127.296875 L 32.246094 128.679688 L 32.0625 130.0625 L 31.898438 131.453125 L 31.753906 132.839844 L 31.625 134.230469 L 31.511719 135.625 L 31.417969 137.019531 L 31.339844 138.414062 L 31.277344 139.808594 L 31.234375 141.207031 L 31.207031 142.601562 Z M 31.199219 144 "/>
<path style=" stroke:none;fill-rule:nonzero;fill:rgb(74.509804%,74.509804%,74.509804%);fill-opacity:1;" d="M 64.238281 64.238281 L 59.996094 59.996094 L 61.042969 58.960938 L 62.101562 57.941406 L 63.175781 56.933594 L 64.257812 55.9375 L 65.355469 54.957031 L 66.464844 53.992188 L 67.585938 53.035156 L 68.71875 52.097656 L 69.863281 51.171875 L 71.019531 50.261719 L 72.183594 49.363281 L 73.363281 48.480469 L 74.550781 47.613281 L 75.75 46.761719 L 76.960938 45.921875 L 78.179688 45.101562 L 79.410156 44.292969 L 80.648438 43.5 L 81.898438 42.722656 L 83.15625 41.960938 L 84.425781 41.214844 L 85.703125 40.488281 L 86.992188 39.773438 L 88.285156 39.074219 L 89.589844 38.390625 L 90.902344 37.726562 L 92.222656 37.078125 L 93.550781 36.445312 L 94.886719 35.828125 L 96.230469 35.226562 L 97.582031 34.644531 L 98.9375 34.078125 L 100.304688 33.527344 L 101.675781 32.996094 L 103.054688 32.480469 L 104.4375 31.980469 L 105.828125 31.5 L 107.226562 31.035156 L 108.628906 30.589844 L 110.035156 30.160156 L 111.445312 29.746094 L 112.863281 29.351562 L 114.289062 28.976562 L 115.714844 28.617188 L 117.144531 28.273438 L 118.582031 27.953125 L 120.019531 27.644531 L 121.464844 27.355469 L 122.910156 27.085938 L 124.359375 26.835938 L 125.8125 26.601562 L 127.265625 26.382812 L 128.726562 26.1875 L 130.1875 26.007812 L 131.648438 25.84375 L 133.113281 25.699219 L 134.578125 25.574219 L 136.046875 25.464844 L 137.515625 25.378906 L 138.984375 25.304688 L 140.457031 25.253906 L 141.925781 25.21875 L 141.980469 28.21875 L 142.003906 29.71875 L 142.03125 31.21875 L 140.632812 31.25 L 139.238281 31.300781 L 137.84375 31.367188 L 136.449219 31.453125 L 135.054688 31.554688 L 133.664062 31.675781 L 132.273438 31.8125 L 130.882812 31.964844 L 129.496094 32.136719 L 128.113281 32.324219 L 126.730469 32.53125 L 125.351562 32.753906 L 123.976562 32.992188 L 122.601562 33.25 L 121.230469 33.523438 L 119.863281 33.8125 L 118.5 34.121094 L 117.144531 34.445312 L 115.789062 34.785156 L 114.4375 35.144531 L 113.089844 35.515625 L 111.75 35.910156 L 110.414062 36.316406 L 109.082031 36.742188 L 107.757812 37.179688 L 106.4375 37.636719 L 105.121094 38.113281 L 103.8125 38.601562 L 102.511719 39.105469 L 101.214844 39.628906 L 99.925781 40.167969 L 98.644531 40.722656 L 97.367188 41.289062 L 96.097656 41.875 L 94.835938 42.476562 L 93.582031 43.09375 L 92.335938 43.726562 L 91.101562 44.375 L 89.871094 45.035156 L 88.648438 45.714844 L 87.433594 46.40625 L 86.230469 47.117188 L 85.035156 47.839844 L 83.847656 48.578125 L 82.671875 49.328125 L 81.503906 50.097656 L 80.34375 50.878906 L 79.195312 51.671875 L 78.058594 52.480469 L 76.929688 53.304688 L 75.8125 54.144531 L 74.703125 54.996094 L 73.605469 55.859375 L 72.519531 56.738281 L 71.445312 57.632812 L 70.378906 58.535156 L 69.328125 59.453125 L 68.285156 60.386719 L 67.257812 61.332031 L 66.238281 62.289062 L 65.230469 63.257812 Z M 64.238281 64.238281 "/>
<path style=" stroke:none;fill-rule:nonzero;fill:rgb(74.509804%,74.509804%,74.509804%);fill-opacity:1;" d="M 144 31.199219 L 144 25.199219 L 145.472656 25.210938 L 146.941406 25.238281 L 148.414062 25.28125 L 149.882812 25.347656 L 151.351562 25.429688 L 152.820312 25.527344 L 154.289062 25.644531 L 155.753906 25.78125 L 157.214844 25.9375 L 158.675781 26.109375 L 160.136719 26.300781 L 161.59375 26.511719 L 163.046875 26.738281 L 164.496094 26.980469 L 165.945312 27.246094 L 167.390625 27.523438 L 168.832031 27.824219 L 170.269531 28.140625 L 171.699219 28.476562 L 173.128906 28.828125 L 174.554688 29.195312 L 175.972656 29.582031 L 177.386719 29.988281 L 178.796875 30.410156 L 180.203125 30.851562 L 181.601562 31.308594 L 182.992188 31.78125 L 184.378906 32.273438 L 185.761719 32.78125 L 187.136719 33.308594 L 188.503906 33.851562 L 189.863281 34.410156 L 191.21875 34.988281 L 192.566406 35.578125 L 193.902344 36.191406 L 195.234375 36.816406 L 196.558594 37.457031 L 197.875 38.117188 L 199.183594 38.792969 L 200.480469 39.484375 L 201.769531 40.191406 L 203.050781 40.917969 L 204.324219 41.65625 L 205.585938 42.410156 L 206.839844 43.179688 L 208.085938 43.96875 L 209.320312 44.769531 L 210.542969 45.585938 L 211.757812 46.417969 L 212.960938 47.261719 L 214.152344 48.125 L 215.335938 49 L 216.507812 49.890625 L 217.667969 50.796875 L 218.816406 51.71875 L 219.953125 52.652344 L 221.078125 53.597656 L 222.191406 54.558594 L 223.292969 55.535156 L 224.382812 56.523438 L 225.460938 57.527344 L 226.527344 58.542969 L 224.441406 60.699219 L 223.398438 61.78125 L 222.359375 62.859375 L 221.347656 61.894531 L 220.324219 60.941406 L 219.289062 60.003906 L 218.242188 59.078125 L 217.183594 58.164062 L 216.117188 57.265625 L 215.035156 56.378906 L 213.945312 55.503906 L 212.84375 54.644531 L 211.734375 53.800781 L 210.609375 52.96875 L 209.476562 52.148438 L 208.335938 51.34375 L 207.183594 50.554688 L 206.019531 49.78125 L 204.847656 49.019531 L 203.667969 48.273438 L 202.476562 47.542969 L 201.277344 46.824219 L 200.070312 46.121094 L 198.851562 45.433594 L 197.628906 44.761719 L 196.394531 44.105469 L 195.152344 43.464844 L 193.90625 42.839844 L 192.648438 42.230469 L 191.382812 41.632812 L 190.113281 41.054688 L 188.832031 40.492188 L 187.546875 39.945312 L 186.253906 39.414062 L 184.957031 38.898438 L 183.652344 38.398438 L 182.339844 37.917969 L 181.023438 37.449219 L 179.703125 37 L 178.375 36.566406 L 177.039062 36.148438 L 175.703125 35.746094 L 174.359375 35.363281 L 173.011719 34.996094 L 171.660156 34.644531 L 170.300781 34.308594 L 168.941406 33.992188 L 167.578125 33.691406 L 166.207031 33.40625 L 164.835938 33.140625 L 163.460938 32.890625 L 162.085938 32.660156 L 160.703125 32.445312 L 159.320312 32.246094 L 157.9375 32.0625 L 156.546875 31.898438 L 155.160156 31.753906 L 153.769531 31.625 L 152.375 31.511719 L 150.980469 31.417969 L 149.585938 31.339844 L 148.191406 31.277344 L 146.792969 31.234375 L 145.398438 31.207031 Z M 144 31.199219 "/>
<path style=" stroke:none;fill-rule:nonzero;fill:rgb(74.509804%,74.509804%,74.509804%);fill-opacity:1;" d="M 223.761719 64.238281 L 228.003906 59.996094 L 229.039062 61.042969 L 230.058594 62.101562 L 231.066406 63.175781 L 232.0625 64.257812 L 233.042969 65.355469 L 234.007812 66.464844 L 234.964844 67.585938 L 235.902344 68.71875 L 236.828125 69.863281 L 237.738281 71.019531 L 238.636719 72.183594 L 239.519531 73.363281 L 240.386719 74.550781 L 241.238281 75.75 L 242.078125 76.960938 L 242.898438 78.179688 L 243.707031 79.410156 L 244.5 80.648438 L 245.277344 81.898438 L 246.039062 83.15625 L 246.785156 84.425781 L 247.511719 85.703125 L 248.226562 86.992188 L 248.925781 88.285156 L 249.609375 89.589844 L 250.273438 90.902344 L 250.921875 92.222656 L 251.554688 93.550781 L 252.171875 94.886719 L 252.773438 96.230469 L 253.355469 97.582031 L 253.921875 98.9375 L 254.472656 100.304688 L 255.003906 101.675781 L 255.519531 103.054688 L 256.019531 104.4375 L 256.5 105.828125 L 256.964844 107.226562 L 257.410156 108.628906 L 257.839844 110.035156 L 258.253906 111.445312 L 258.648438 112.863281 L 259.023438 114.289062 L 259.382812 115.714844 L 259.726562 117.144531 L 260.046875 118.582031 L 260.355469 120.019531 L 260.644531 121.464844 L 260.914062 122.910156 L 261.164062 124.359375 L 261.398438 125.8125 L 261.617188 127.265625 L 261.8125 128.726562 L 261.992188 130.1875 L 262.15625 131.648438 L 262.300781 133.113281 L 262.425781 134.578125 L 262.535156 136.046875 L 262.621094 137.515625 L 262.695312 138.984375 L 262.746094 140.457031 L 262.78125 141.925781 L 259.78125 141.980469 L 258.28125 142.003906 L 256.78125 142.03125 L 256.75 140.632812 L 256.699219 139.238281 L 256.632812 137.84375 L 256.546875 136.449219 L 256.445312 135.054688 L 256.324219 133.664062 L 256.1875 132.273438 L 256.035156 130.882812 L 255.863281 129.496094 L 255.675781 128.113281 L 255.46875 126.730469 L 255.246094 125.351562 L 255.007812 123.976562 L 254.75 122.601562 L 254.476562 121.230469 L 254.1875 119.863281 L 253.878906 118.5 L 253.554688 117.144531 L 253.214844 115.789062 L 252.855469 114.4375 L 252.484375 113.089844 L 252.089844 111.75 L 251.683594 110.414062 L 251.257812 109.082031 L 250.820312 107.757812 L 250.363281 106.4375 L 249.886719 105.121094 L 249.398438 103.8125 L 248.894531 102.511719 L 248.371094 101.214844 L 247.832031 99.925781 L 247.277344 98.644531 L 246.710938 97.367188 L 246.125 96.097656 L 245.523438 94.835938 L 244.90625 93.582031 L 244.273438 92.335938 L 243.625 91.101562 L 242.964844 89.871094 L 242.285156 88.648438 L 241.59375 87.433594 L 240.882812 86.230469 L 240.160156 85.035156 L 239.421875 83.847656 L 238.671875 82.671875 L 237.902344 81.503906 L 237.121094 80.34375 L 236.328125 79.195312 L 235.519531 78.058594 L 234.695312 76.929688 L 233.855469 75.8125 L 233.003906 74.703125 L 232.140625 73.605469 L 231.261719 72.519531 L 230.367188 71.445312 L 229.464844 70.378906 L 228.546875 69.328125 L 227.613281 68.285156 L 226.667969 67.257812 L 225.710938 66.238281 L 224.742188 65.230469 Z M 223.761719 64.238281 "/>
<path style="fill:none;stroke-width:0.75;stroke-linecap:butt;stroke-linejoin:round;stroke:rgb(0%,0%,0%);stroke-opacity:1;stroke-miterlimit:10;" d="M 246.359375 185.355469 L 199.632812 166.476562 L 197.902344 165.792969 L 196.1875 165.148438 L 194.488281 164.539062 L 192.808594 163.972656 L 191.140625 163.441406 L 189.492188 162.949219 L 187.859375 162.492188 L 186.242188 162.078125 L 184.640625 161.699219 L 183.054688 161.359375 L 181.488281 161.058594 L 179.933594 160.792969 L 178.398438 160.566406 L 176.878906 160.378906 L 175.375 160.230469 L 173.886719 160.121094 L 172.417969 160.046875 L 170.960938 160.011719 L 169.523438 160.015625 L 168.097656 160.054688 L 166.691406 160.136719 L 165.300781 160.253906 L 163.929688 160.410156 L 162.570312 160.601562 L 161.226562 160.835938 L 159.902344 161.105469 L 158.59375 161.414062 L 157.300781 161.761719 L 156.023438 162.144531 L 154.761719 162.566406 L 153.515625 163.027344 L 152.289062 163.527344 L 151.078125 164.0625 L 149.878906 164.640625 L 148.699219 165.253906 L 147.535156 165.902344 L 146.390625 166.59375 L 145.257812 167.320312 L 144.140625 168.085938 L 143.042969 168.890625 L 141.960938 169.734375 L 140.894531 170.613281 L 139.84375 171.53125 L 138.808594 172.488281 L 137.792969 173.484375 L 136.789062 174.515625 L 135.804688 175.589844 L 134.832031 176.695312 L 133.878906 177.84375 L 132.945312 179.03125 L 132.023438 180.253906 L 131.117188 181.515625 L 130.230469 182.816406 L 129.355469 184.152344 L 128.5 185.53125 L 127.660156 186.945312 L 126.835938 188.394531 L 126.03125 189.886719 L 125.238281 191.414062 L 124.460938 192.980469 L 123.703125 194.585938 L 122.960938 196.230469 L 122.234375 197.910156 L 121.523438 199.632812 "/>
<path style="fill-rule:nonzero;fill:rgb(0%,0%,0%);fill-opacity:1;stroke-width:0.75;stroke-linecap:round;stroke-linejoin:round;stroke:rgb(0%,0%,0%);stroke-opacity:1;stroke-miterlimit:10;" d="M 187.136719 245.625 L 167.445312 199.230469 L 166.679688 197.46875 L 165.898438 195.753906 L 165.105469 194.078125 L 164.292969 192.449219 L 163.46875 190.859375 L 162.625 189.316406 L 161.769531 187.8125 L 160.894531 186.351562 L 160.007812 184.9375 L 159.101562 183.5625 L 158.183594 182.234375 L 157.246094 180.945312 L 156.296875 179.703125 L 155.332031 178.503906 L 154.347656 177.34375 L 153.351562 176.230469 L 152.339844 175.15625 L 151.308594 174.128906 L 150.265625 173.140625 L 149.207031 172.199219 L 148.128906 171.300781 L 147.039062 170.441406 L 145.933594 169.628906 L 144.808594 168.855469 L 143.671875 168.128906 L 142.519531 167.445312 L 141.351562 166.800781 L 140.167969 166.203125 L 138.964844 165.648438 L 137.75 165.132812 L 136.519531 164.664062 L 135.273438 164.238281 L 134.011719 163.851562 L 132.734375 163.511719 L 131.441406 163.214844 L 130.132812 162.960938 L 128.804688 162.746094 L 127.464844 162.578125 L 126.109375 162.453125 L 124.738281 162.371094 L 123.351562 162.328125 L 121.949219 162.332031 L 120.53125 162.378906 L 119.097656 162.46875 L 117.648438 162.601562 L 116.1875 162.773438 L 114.707031 162.992188 L 113.210938 163.253906 L 111.699219 163.558594 L 110.171875 163.90625 L 108.628906 164.296875 L 107.070312 164.730469 L 105.496094 165.207031 L 103.910156 165.722656 L 102.304688 166.285156 L 100.683594 166.890625 L 99.046875 167.539062 L 97.394531 168.230469 L 95.730469 168.964844 L 94.046875 169.742188 L 92.347656 170.5625 L 90.636719 171.425781 L 89.664062 169.453125 L 88.769531 167.445312 L 87.949219 165.402344 L 87.199219 163.335938 L 88.96875 162.75 L 90.71875 162.199219 L 92.453125 161.6875 L 94.171875 161.210938 L 95.871094 160.769531 L 97.558594 160.367188 L 99.226562 160 L 100.878906 159.667969 L 102.515625 159.371094 L 104.136719 159.113281 L 105.742188 158.890625 L 107.328125 158.707031 L 108.898438 158.558594 L 110.453125 158.445312 L 111.992188 158.367188 L 113.515625 158.328125 L 115.023438 158.324219 L 116.511719 158.359375 L 117.984375 158.425781 L 119.441406 158.53125 L 120.882812 158.675781 L 122.308594 158.855469 L 123.71875 159.070312 L 125.109375 159.320312 L 126.484375 159.609375 L 127.84375 159.933594 L 129.1875 160.292969 L 130.515625 160.6875 L 131.828125 161.121094 L 133.121094 161.59375 L 134.398438 162.097656 L 135.660156 162.640625 L 136.90625 163.21875 L 138.136719 163.835938 L 139.347656 164.488281 L 140.546875 165.175781 L 141.726562 165.902344 L 142.890625 166.660156 L 144.039062 167.460938 L 145.171875 168.292969 L 146.285156 169.164062 L 147.386719 170.070312 L 148.46875 171.011719 L 149.535156 171.992188 L 150.585938 173.007812 L 151.617188 174.0625 L 152.636719 175.148438 L 153.636719 176.277344 L 154.621094 177.4375 L 155.589844 178.636719 L 156.542969 179.871094 L 157.480469 181.140625 L 158.398438 182.449219 L 159.304688 183.792969 L 160.191406 185.171875 L 161.0625 186.585938 L 161.917969 188.039062 L 162.753906 189.53125 L 163.578125 191.054688 L 164.382812 192.617188 L 165.171875 194.214844 L 165.945312 195.851562 L 166.703125 197.523438 L 167.445312 199.230469 Z M 187.136719 245.625 "/>
<path style="fill-rule:nonzero;fill:rgb(0%,0%,0%);fill-opacity:1;stroke-width:0.75;stroke-linecap:round;stroke-linejoin:round;stroke:rgb(0%,0%,0%);stroke-opacity:1;stroke-miterlimit:10;" d="M 252.917969 162.03125 L 203.195312 153.800781 L 201.558594 153.519531 L 199.9375 153.21875 L 198.332031 152.902344 L 196.738281 152.566406 L 195.164062 152.210938 L 193.605469 151.839844 L 192.0625 151.449219 L 190.53125 151.042969 L 189.019531 150.617188 L 187.519531 150.171875 L 186.039062 149.707031 L 184.570312 149.226562 L 183.117188 148.730469 L 181.679688 148.210938 L 180.261719 147.675781 L 178.855469 147.125 L 177.464844 146.550781 L 176.089844 145.960938 L 174.726562 145.355469 L 173.382812 144.730469 L 172.054688 144.085938 L 170.742188 143.421875 L 169.441406 142.742188 L 168.160156 142.042969 L 166.894531 141.328125 L 165.640625 140.59375 L 164.402344 139.839844 L 163.183594 139.070312 L 161.976562 138.28125 L 160.785156 137.472656 L 159.609375 136.648438 L 158.449219 135.804688 L 157.304688 134.945312 L 156.175781 134.0625 L 155.0625 133.167969 L 153.964844 132.25 L 152.882812 131.316406 L 151.8125 130.363281 L 150.761719 129.394531 L 149.726562 128.40625 L 148.703125 127.398438 L 147.695312 126.375 L 146.707031 125.332031 L 145.730469 124.269531 L 144.769531 123.191406 L 143.828125 122.09375 L 142.898438 120.976562 L 141.984375 119.84375 L 141.085938 118.691406 L 140.203125 117.523438 L 139.335938 116.335938 L 138.480469 115.128906 L 137.644531 113.90625 L 136.824219 112.664062 L 136.015625 111.402344 L 135.226562 110.125 L 134.449219 108.828125 L 133.691406 107.511719 L 132.945312 106.179688 L 132.214844 104.828125 L 131.503906 103.460938 L 130.804688 102.070312 L 130.121094 100.667969 L 129.453125 99.242188 L 128.800781 97.800781 L 128.164062 96.339844 L 127.542969 94.863281 L 126.933594 93.367188 L 126.34375 91.851562 L 125.769531 90.320312 L 125.207031 88.769531 L 124.664062 87.199219 L 122.597656 87.949219 L 120.554688 88.769531 L 118.546875 89.664062 L 116.574219 90.636719 L 117.320312 92.070312 L 118.078125 93.492188 L 118.847656 94.898438 L 119.628906 96.289062 L 120.421875 97.667969 L 121.226562 99.03125 L 122.039062 100.378906 L 122.863281 101.714844 L 123.703125 103.035156 L 124.550781 104.339844 L 125.410156 105.632812 L 126.28125 106.910156 L 127.164062 108.171875 L 128.058594 109.421875 L 128.960938 110.65625 L 129.878906 111.875 L 130.804688 113.082031 L 131.746094 114.273438 L 132.695312 115.449219 L 133.65625 116.613281 L 134.628906 117.761719 L 135.613281 118.894531 L 136.605469 120.015625 L 137.613281 121.121094 L 138.632812 122.210938 L 139.660156 123.289062 L 140.699219 124.351562 L 141.75 125.398438 L 142.8125 126.433594 L 143.886719 127.453125 L 144.972656 128.457031 L 146.070312 129.449219 L 147.179688 130.425781 L 148.296875 131.386719 L 149.429688 132.332031 L 150.570312 133.265625 L 151.722656 134.1875 L 152.886719 135.089844 L 154.0625 135.980469 L 155.25 136.855469 L 156.449219 137.71875 L 157.65625 138.566406 L 158.878906 139.398438 L 160.109375 140.21875 L 161.355469 141.023438 L 162.609375 141.8125 L 163.875 142.585938 L 165.152344 143.347656 L 166.441406 144.09375 L 167.738281 144.828125 L 169.050781 145.546875 L 170.371094 146.25 L 171.707031 146.941406 L 173.050781 147.613281 L 174.40625 148.277344 L 175.773438 148.921875 L 177.152344 149.554688 L 178.542969 150.171875 L 179.945312 150.777344 L 181.355469 151.363281 L 182.78125 151.941406 L 184.214844 152.5 L 185.664062 153.046875 L 187.121094 153.578125 L 188.589844 154.097656 L 190.070312 154.597656 L 191.5625 155.089844 L 193.0625 155.5625 L 194.578125 156.023438 L 196.101562 156.46875 L 197.640625 156.898438 L 199.1875 157.316406 L 200.746094 157.71875 L 202.316406 158.109375 L 251.304688 169.960938 L 251.761719 167.988281 L 252.183594 166.011719 L 252.570312 164.023438 Z M 252.917969 162.03125 "/>
</g>
</svg>
